<svg width="39" height="36" viewBox="0 0 39 36" fill="none" xmlns="http://www.w3.org/2000/svg">
<g clip-path="url(#clip0)">
<path d="M29.1067 11.5941C29.1067 11.3478 29.0989 11.1163 29.1067 10.8853C29.21 8.27776 28.0799 6.29756 26.0998 4.79121C23.8904 3.11135 21.3618 2.51869 18.6539 2.69955C16.3996 2.84905 14.3299 3.56719 12.5578 5.04817C11.0839 6.28087 10.1059 7.82726 9.91291 9.8088C9.85573 10.3908 9.90381 10.9834 9.90381 11.5908C9.31246 11.6702 8.76659 11.7289 8.22592 11.8184C4.86298 12.371 2.40918 15.5031 2.61063 18.977C2.77049 21.7274 4.73431 24.2108 7.39087 24.999C7.59473 25.0533 7.78597 25.1488 7.95336 25.2801C8.12076 25.4113 8.26093 25.5756 8.36564 25.7632C8.64312 26.2538 8.64637 26.737 8.2909 27.1901C7.93544 27.6433 7.4825 27.8609 6.91584 27.7241C3.50741 26.8784 0.685143 23.6595 0.11783 20.0842C-0.532013 16.001 1.51564 12.1421 4.96436 10.2193C5.42886 9.95745 5.91302 9.73427 6.41221 9.55184C6.98407 9.34561 7.30834 9.00323 7.45975 8.3752C7.95299 6.32826 9.05317 4.64639 10.5907 3.27019C12.6273 1.44482 15.0194 0.44905 17.687 0.120017C20.7633 -0.258404 23.6857 0.244155 26.3949 1.81257C28.6264 3.104 30.2985 4.92269 31.1745 7.43949C31.2789 7.74272 31.3657 8.05205 31.4344 8.36586C31.5689 8.9732 31.9094 9.32292 32.4995 9.53115C36.0087 10.7712 38.2032 13.2386 38.8426 17.0155C39.6725 21.9129 36.691 26.4259 31.9166 27.7541C31.7464 27.7996 31.5686 27.8063 31.3956 27.7737C31.2226 27.7412 31.0587 27.6702 30.9152 27.5657C30.7718 27.4613 30.6523 27.3259 30.5652 27.169C30.4781 27.0121 30.4254 26.8375 30.4109 26.6575C30.3342 25.8393 30.7358 25.2633 31.5572 25.0104C32.717 24.663 33.7657 24.0043 34.5952 23.1022C37.6697 19.7732 36.6409 14.3939 32.5554 12.4003C31.6521 11.9592 30.6949 11.7603 29.7084 11.6662C29.518 11.6508 29.327 11.6221 29.1067 11.5941Z" fill="#B2B7BB"/>
<path d="M10.3975 24.6847C10.3975 21.6257 10.3975 18.5674 10.3975 15.5098C10.3975 14.4686 10.8459 14.0101 11.8668 14.0101H27.1023C28.0843 14.0101 28.5866 14.522 28.5866 15.5225C28.5866 21.6386 28.5866 27.755 28.5866 33.8716C28.5866 34.888 28.1265 35.3592 27.1361 35.3592H11.8362C10.8614 35.3592 10.3988 34.884 10.3981 33.8909C10.3977 30.8226 10.3975 27.7539 10.3975 24.6847ZM25.9677 32.6682V16.6951H13.0176V32.6682H25.9677Z" fill="#B2B7BB"/>
<path d="M19.4951 20.6768C20.3509 20.6768 21.2061 20.6735 22.0619 20.6768C22.8853 20.6808 23.3974 21.1981 23.3954 22.015C23.3954 22.8159 22.8866 23.3385 22.0821 23.3425C20.36 23.3501 18.6381 23.3501 16.9165 23.3425C16.099 23.3392 15.5876 22.8012 15.5973 21.9863C15.6071 21.1901 16.1211 20.6808 16.9288 20.6768C17.7808 20.6735 18.6366 20.6768 19.4951 20.6768Z" fill="#B2B7BB"/>
<path d="M19.5115 26.0208C20.3673 26.0208 21.2225 26.0168 22.0777 26.0208C22.8861 26.0255 23.3898 26.5361 23.3924 27.341C23.395 28.1459 22.8881 28.6758 22.0927 28.6805C20.3598 28.6871 18.6269 28.6871 16.8939 28.6805C16.0998 28.6771 15.591 28.1399 15.5943 27.3383C15.5975 26.5367 16.105 26.0255 16.9134 26.0208C17.7797 26.0168 18.6459 26.0208 19.5115 26.0208Z" fill="#B2B7BB"/>
</g>
<defs>
<clipPath id="clip0">
<rect width="38.9867" height="35.36" fill="white"/>
</clipPath>
</defs>
</svg>
