<svg width="40" height="36" viewBox="0 0 40 36" fill="none" xmlns="http://www.w3.org/2000/svg">
<g clip-path="url(#clip0)">
<path d="M29.6135 11.9141C29.6135 11.6678 29.6057 11.4363 29.6135 11.2053C29.7168 8.59777 28.5868 6.61756 26.6067 5.11122C24.3972 3.43135 21.8687 2.83869 19.1608 3.01956C16.9065 3.16906 14.8367 3.88719 13.0646 5.36817C11.5908 6.60088 10.6128 8.14727 10.4197 10.1288C10.3626 10.7108 10.4106 11.3034 10.4106 11.9108C9.81929 11.9902 9.27342 12.0489 8.73276 12.1384C5.36982 12.691 2.91601 15.8231 3.11746 19.297C3.27732 22.0474 5.24115 24.5308 7.89771 25.319C8.10156 25.3733 8.29281 25.4688 8.4602 25.6001C8.62759 25.7313 8.76776 25.8956 8.87247 26.0832C9.14995 26.5738 9.1532 27.057 8.79774 27.5101C8.44228 27.9633 7.98933 28.1809 7.42267 28.0441C4.01425 27.1985 1.19198 23.9795 0.624666 20.4042C-0.0251767 16.321 2.02248 12.4621 5.47119 10.5393C5.93569 10.2775 6.41986 10.0543 6.91904 9.87185C7.49091 9.66562 7.81518 9.32324 7.96659 8.69521C8.45982 6.64826 9.56001 4.96639 11.0975 3.5902C13.1341 1.76483 15.5262 0.769057 18.1938 0.440025C21.2702 0.0616038 24.1925 0.564163 26.9017 2.13257C29.1333 3.42401 30.8053 5.2427 31.6813 7.7595C31.7857 8.06273 31.8725 8.37206 31.9412 8.68586C32.0758 9.29321 32.4163 9.64293 33.0063 9.85116C36.5155 11.0912 38.71 13.5586 39.3495 17.3355C40.1793 22.2329 37.1978 26.746 32.4234 28.0741C32.2532 28.1196 32.0754 28.1263 31.9025 28.0937C31.7295 28.0612 31.5655 27.9902 31.4221 27.8857C31.2786 27.7813 31.1592 27.6459 31.072 27.489C30.9849 27.3321 30.9323 27.1575 30.9177 26.9775C30.8411 26.1593 31.2427 25.5833 32.0641 25.3304C33.2239 24.983 34.2725 24.3243 35.1021 23.4223C38.1765 20.0932 37.1478 14.7139 33.0622 12.7204C32.1589 12.2792 31.2017 12.0803 30.2153 11.9862C30.0249 11.9709 29.8338 11.9422 29.6135 11.9141Z" fill="#00FFC3"/>
<path d="M10.9043 25.0047C10.9043 21.9457 10.9043 18.8874 10.9043 15.8298C10.9043 14.7886 11.3527 14.3301 12.3736 14.3301H27.6092C28.5911 14.3301 29.0934 14.842 29.0934 15.8425C29.0934 21.9586 29.0934 28.075 29.0934 34.1916C29.0934 35.208 28.6333 35.6792 27.643 35.6792H12.3431C11.3683 35.6792 10.9056 35.204 10.9049 34.2109C10.9045 31.1426 10.9043 28.0739 10.9043 25.0047ZM26.4745 32.9882V17.0151H13.5245V32.9882H26.4745Z" fill="#00FFC3"/>
<path d="M20.0019 20.9968C20.8577 20.9968 21.7129 20.9935 22.5688 20.9968C23.3921 21.0008 23.9042 21.5181 23.9023 22.335C23.9023 23.1359 23.3934 23.6585 22.5889 23.6625C20.8668 23.6701 19.145 23.6701 17.4233 23.6625C16.6058 23.6592 16.0944 23.1212 16.1041 22.3063C16.1139 21.5101 16.6279 21.0008 17.4357 20.9968C18.2876 20.9935 19.1435 20.9968 20.0019 20.9968Z" fill="#00FFC3"/>
<path d="M20.0183 26.3408C20.8742 26.3408 21.7294 26.3368 22.5846 26.3408C23.393 26.3455 23.8966 26.8561 23.8992 27.661C23.9018 28.4659 23.3949 28.9958 22.5995 29.0005C20.8666 29.0071 19.1337 29.0071 17.4008 29.0005C16.6067 28.9971 16.0978 28.4599 16.1011 27.6583C16.1043 26.8567 16.6119 26.3455 17.4203 26.3408C18.2865 26.3368 19.1528 26.3408 20.0183 26.3408Z" fill="#00FFC3"/>
</g>
<defs>
<clipPath id="clip0">
<rect width="38.9867" height="35.36" fill="white" transform="translate(0.506836 0.320007)"/>
</clipPath>
</defs>
</svg>
