<svg width="31" height="31" viewBox="0 0 31 31" fill="none" xmlns="http://www.w3.org/2000/svg">
<path d="M12.4117 24.8278C14.1183 24.8278 15.5146 23.6819 15.5146 22.2813H9.30878C9.30878 23.6819 10.7051 24.8278 12.4117 24.8278ZM21.7205 17.1884V10.8224C21.7205 6.91357 19.1916 3.6414 14.7389 2.77562V1.90983C14.7389 0.853056 13.6994 0 12.4117 0C11.124 0 10.0845 0.853056 10.0845 1.90983V2.77562C5.64732 3.6414 3.10293 6.90084 3.10293 10.8224V17.1884L0 19.7349V21.0081H24.8234V19.7349L21.7205 17.1884ZM18.6176 18.4617H6.20585V10.8224C6.20585 7.66477 8.54856 5.09287 12.4117 5.09287C16.2748 5.09287 18.6176 7.66477 18.6176 10.8224V18.4617Z" fill="#B6B6B6"/>
</svg>
