<svg width="32" height="32" viewBox="0 0 32 32" fill="none" xmlns="http://www.w3.org/2000/svg">
<path d="M12 9.72008V4.00008C12 3.26675 12.6 2.66675 13.3333 2.66675H18.6667C19.4 2.66675 20 3.26675 20 4.00008V9.72008C20 9.89342 19.9333 10.0667 19.8 10.1867L16.4667 13.5201C16.2 13.7867 15.7867 13.7867 15.52 13.5201L12.1867 10.1867C12.0667 10.0667 12 9.90675 12 9.72008ZM22.28 12.0001H28C28.7333 12.0001 29.3333 12.6001 29.3333 13.3334V18.6667C29.3333 19.4001 28.7333 20.0001 28 20.0001H22.28C22.1067 20.0001 21.9333 19.9334 21.8133 19.8001L18.48 16.4668C18.2133 16.2001 18.2133 15.7867 18.48 15.5201L21.8133 12.1867C21.8746 12.1259 21.9475 12.0781 22.0277 12.046C22.1079 12.0139 22.1937 11.9983 22.28 12.0001ZM20 22.2801V28.0001C20 28.7334 19.4 29.3334 18.6667 29.3334H13.3333C12.6 29.3334 12 28.7334 12 28.0001V22.2801C11.9989 22.1926 12.0162 22.106 12.0506 22.0256C12.0851 21.9452 12.136 21.8729 12.2 21.8134L15.5333 18.4801C15.8 18.2134 16.2133 18.2134 16.48 18.4801L19.8133 21.8134C19.9333 21.9334 20 22.0934 20 22.2801ZM10.2 12.2001L13.5333 15.5334C13.8 15.8001 13.8 16.2134 13.5333 16.4801L10.2 19.8134C10.08 19.9334 9.90667 20.0134 9.73333 20.0134H4C3.26667 20.0134 2.66667 19.4134 2.66667 18.6801V13.3467C2.66667 12.6134 3.26667 12.0134 4 12.0134H9.72C9.80888 12.0067 9.89813 12.0199 9.9812 12.0522C10.0643 12.0845 10.139 12.1351 10.2 12.2001Z" fill="#B6B6B6"/>
</svg>
