<svg width="31" height="32" viewBox="0 0 31 32" fill="none" xmlns="http://www.w3.org/2000/svg">
<path d="M25.8333 8.00008H28.4167V26.6668C28.4167 28.1334 27.2542 29.3334 25.8333 29.3334H7.75V26.6668H25.8333V8.00008ZM5.16666 2.66675H20.6667C22.0875 2.66675 23.25 3.86675 23.25 5.33342V21.3334C23.25 22.8001 22.0875 24.0001 20.6667 24.0001H5.16666C3.74583 24.0001 2.58333 22.8001 2.58333 21.3334V5.33342C2.58333 3.86675 3.74583 2.66675 5.16666 2.66675ZM6.45833 14.6667H19.375V12.0001H6.45833V14.6667ZM11.625 20.0001H19.375V17.3334H11.625V20.0001ZM6.45833 9.33342H19.375V6.66675H6.45833V9.33342Z" fill="#48FFD5"/>
</svg>
