<svg width="31" height="31" viewBox="0 0 31 31" fill="none" xmlns="http://www.w3.org/2000/svg">
<path d="M15.5 5.8125C21.9583 5.8125 27.4737 9.82958 29.7083 15.5C27.4737 21.1704 21.9583 25.1875 15.5 25.1875C15.035 25.1875 14.57 25.1875 14.105 25.1229C14.1715 24.7172 14.206 24.3069 14.2083 23.8958C14.2083 23.4308 14.1567 22.9658 14.0792 22.5008C14.5442 22.5525 15.0221 22.6042 15.5 22.6042C20.3567 22.6042 24.7612 19.84 26.8925 15.5C25.8485 13.3684 24.2274 11.5724 22.2135 10.3162C20.1995 9.06006 17.8736 8.39413 15.5 8.39413C13.1264 8.39413 10.8005 9.06006 8.78654 10.3162C6.7726 11.5724 5.1515 13.3684 4.1075 15.5C4.2625 15.81 4.44333 16.0813 4.61125 16.3783C3.75875 16.585 2.945 16.9338 2.20875 17.4375C1.86 16.7917 1.55 16.1458 1.29167 15.5C3.52625 9.82958 9.04167 5.8125 15.5 5.8125ZM15.5 11.625C16.5277 11.625 17.5133 12.0333 18.24 12.76C18.9667 13.4867 19.375 14.4723 19.375 15.5C19.375 16.5277 18.9667 17.5133 18.24 18.24C17.5133 18.9667 16.5277 19.375 15.5 19.375C14.4723 19.375 13.4867 18.9667 12.76 18.24C12.0333 17.5133 11.625 16.5277 11.625 15.5C11.625 14.4723 12.0333 13.4867 12.76 12.76C13.4867 12.0333 14.4723 11.625 15.5 11.625ZM7.75 18.7292V22.6042H11.625V25.1875H7.75V29.0625H5.16667V25.1875H1.29167V22.6042H5.16667V18.7292H7.75Z" fill="#B6B6B6"/>
</svg>
