<svg width="25" height="25" viewBox="0 0 25 25" fill="none" xmlns="http://www.w3.org/2000/svg">
<g clip-path="url(#clip0)">
<path d="M23.0882 0H2.03579C0.993256 0 0.148132 0.845124 0.148132 1.88766V16.0907C0.148132 17.1333 0.993256 17.9785 2.03579 17.9785H3.84631L5.14666 20.2308L7.80075 24.8278L10.4547 20.2308L11.7552 17.9785H23.0882C24.1308 17.9785 24.9759 17.1333 24.9759 16.0907V1.88766C24.9759 0.845124 24.1308 0 23.0882 0ZM22.6314 13.7462C22.6314 14.7888 21.7862 15.6339 20.7437 15.6339H10.4547L7.80075 20.2308L5.14666 15.6339H4.38031C3.33778 15.6339 2.49266 14.7888 2.49266 13.7462V12.3451L3.88249 11.1402L8.31631 14.7526L18.1671 5.75034L22.2911 9.00501L22.6314 8.71453V13.7462ZM22.6314 5.74307V6.23824L22.2362 6.57562L18.0752 3.29172H18.0525L8.23394 12.2641L3.8385 8.68295L2.49266 9.84975V4.23218C2.49266 3.18965 3.33778 2.34453 4.38031 2.34453H20.7437C21.7862 2.34453 22.6314 3.18965 22.6314 4.23218V5.74307Z" fill="#B6B6B6"/>
</g>
<defs>
<clipPath id="clip0">
<rect width="24.8278" height="24.8278" fill="white" transform="translate(0.148132)"/>
</clipPath>
</defs>
</svg>
