<svg width="29" height="20" viewBox="0 0 29 20" fill="none" xmlns="http://www.w3.org/2000/svg">
<path d="M9.947 0C7.30889 0 4.77883 1.04798 2.91341 2.91341C1.04798 4.77883 0 7.30889 0 9.947C0 12.5851 1.04798 15.1152 2.91341 16.9806C4.77883 18.846 7.30889 19.894 9.947 19.894C11.4248 19.894 12.8743 19.553 14.21 18.9277C15.5457 19.553 16.9952 19.894 18.473 19.894C21.1111 19.894 23.6412 18.846 25.5066 16.9806C27.372 15.1152 28.42 12.5851 28.42 9.947C28.42 7.30889 27.372 4.77883 25.5066 2.91341C23.6412 1.04798 21.1111 0 18.473 0C16.9952 0 15.5457 0.34104 14.21 0.96628C12.8743 0.34104 11.4248 0 9.947 0ZM9.947 2.842C10.4301 2.842 10.8991 2.88463 11.368 2.9841C9.54912 4.84561 8.526 7.34657 8.526 9.947C8.526 12.5474 9.54912 15.0484 11.368 16.8957C10.8991 16.9952 10.4301 17.052 9.947 17.052C8.06264 17.052 6.25545 16.3034 4.92301 14.971C3.59056 13.6385 2.842 11.8314 2.842 9.947C2.842 8.06264 3.59056 6.25545 4.92301 4.92301C6.25545 3.59056 8.06264 2.842 9.947 2.842ZM18.473 2.842C20.3574 2.842 22.1645 3.59056 23.497 4.92301C24.8294 6.25545 25.578 8.06264 25.578 9.947C25.578 11.8314 24.8294 13.6385 23.497 14.971C22.1645 16.3034 20.3574 17.052 18.473 17.052C17.9899 17.052 17.5209 17.0094 17.052 16.9099C18.8709 15.0484 19.894 12.5474 19.894 9.947C19.894 7.34657 18.8709 4.84561 17.052 2.99831C17.5209 2.89884 17.9899 2.842 18.473 2.842Z" fill="#B6B6B6"/>
</svg>
