<svg width="29" height="29" viewBox="0 0 29 29" fill="none" xmlns="http://www.w3.org/2000/svg">
<path d="M9.947 0H2.842C2.08825 0 1.36538 0.299424 0.832402 0.832402C0.299424 1.36538 0 2.08825 0 2.842V9.947C0 10.7007 0.299424 11.4236 0.832402 11.9566C1.36538 12.4896 2.08825 12.789 2.842 12.789H9.947C10.7007 12.789 11.4236 12.4896 11.9566 11.9566C12.4896 11.4236 12.789 10.7007 12.789 9.947V2.842C12.789 2.08825 12.4896 1.36538 11.9566 0.832402C11.4236 0.299424 10.7007 0 9.947 0ZM9.947 7.105H2.842V5.684H9.947V7.105ZM25.578 15.631H18.473C17.7193 15.631 16.9964 15.9304 16.4634 16.4634C15.9304 16.9964 15.631 17.7193 15.631 18.473V25.578C15.631 26.3317 15.9304 27.0546 16.4634 27.5876C16.9964 28.1206 17.7193 28.42 18.473 28.42H25.578C26.3317 28.42 27.0546 28.1206 27.5876 27.5876C28.1206 27.0546 28.42 26.3317 28.42 25.578V18.473C28.42 17.7193 28.1206 16.9964 27.5876 16.4634C27.0546 15.9304 26.3317 15.631 25.578 15.631ZM25.578 24.157H18.473V22.736H25.578V24.157ZM25.578 21.315H18.473V19.894H25.578V21.315ZM25.578 0H18.473C17.7193 0 16.9964 0.299424 16.4634 0.832402C15.9304 1.36538 15.631 2.08825 15.631 2.842V9.947C15.631 10.7007 15.9304 11.4236 16.4634 11.9566C16.9964 12.4896 17.7193 12.789 18.473 12.789H25.578C26.3317 12.789 27.0546 12.4896 27.5876 11.9566C28.1206 11.4236 28.42 10.7007 28.42 9.947V2.842C28.42 2.08825 28.1206 1.36538 27.5876 0.832402C27.0546 0.299424 26.3317 0 25.578 0ZM25.578 7.105H22.736V9.947H21.315V7.105H18.473V5.684H21.315V2.842H22.736V5.684H25.578V7.105ZM9.947 15.631H2.842C2.08825 15.631 1.36538 15.9304 0.832402 16.4634C0.299424 16.9964 0 17.7193 0 18.473V25.578C0 26.3317 0.299424 27.0546 0.832402 27.5876C1.36538 28.1206 2.08825 28.42 2.842 28.42H9.947C10.7007 28.42 11.4236 28.1206 11.9566 27.5876C12.4896 27.0546 12.789 26.3317 12.789 25.578V18.473C12.789 17.7193 12.4896 16.9964 11.9566 16.4634C11.4236 15.9304 10.7007 15.631 9.947 15.631ZM9.40702 24.0291L8.39811 25.038L6.3945 23.0344L4.39089 25.038L3.38198 24.0291L5.38559 22.0255L3.38198 20.0219L4.39089 19.013L6.3945 21.0166L8.39811 19.013L9.40702 20.0219L7.40341 22.0255L9.40702 24.0291Z" fill="#B6B6B6"/>
</svg>
