<svg width="31" height="31" viewBox="0 0 31 31" fill="none" xmlns="http://www.w3.org/2000/svg">
<path d="M12.4934 0C10.8528 0 9.22817 0.323152 7.7124 0.951006C6.19663 1.57886 4.81936 2.49912 3.65924 3.65924C1.31627 6.00221 0 9.17997 0 12.4934C0 15.8069 1.31627 18.9846 3.65924 21.3276C4.81936 22.4877 6.19663 23.408 7.7124 24.0359C9.22817 24.6637 10.8528 24.9869 12.4934 24.9869C15.8069 24.9869 18.9846 23.6706 21.3276 21.3276C23.6706 18.9846 24.9869 15.8069 24.9869 12.4934C24.9869 10.8528 24.6637 9.22817 24.0359 7.7124C23.408 6.19663 22.4877 4.81936 21.3276 3.65924C20.1675 2.49912 18.7902 1.57886 17.2745 0.951006C15.7587 0.323152 14.1341 0 12.4934 0ZM6.33417 20.3393C6.87139 19.2149 10.1447 18.1155 12.4934 18.1155C14.8422 18.1155 18.1155 19.2149 18.6527 20.3393C16.9028 21.7336 14.7308 22.4914 12.4934 22.4882C10.1697 22.4882 8.03327 21.6886 6.33417 20.3393ZM20.4392 18.5278C18.6527 16.3539 14.3175 15.6168 12.4934 15.6168C10.6694 15.6168 6.33417 16.3539 4.54761 18.5278C3.21854 16.7969 2.49827 14.6757 2.49869 12.4934C2.49869 6.98383 6.98383 2.49869 12.4934 2.49869C18.003 2.49869 22.4882 6.98383 22.4882 12.4934C22.4882 14.7672 21.7136 16.8661 20.4392 18.5278ZM12.4934 4.99737C10.0697 4.99737 8.12073 6.94635 8.12073 9.37007C8.12073 11.7938 10.0697 13.7428 12.4934 13.7428C14.9172 13.7428 16.8661 11.7938 16.8661 9.37007C16.8661 6.94635 14.9172 4.99737 12.4934 4.99737ZM12.4934 11.2441C11.9964 11.2441 11.5197 11.0466 11.1683 10.6952C10.8169 10.3438 10.6194 9.86709 10.6194 9.37007C10.6194 8.87305 10.8169 8.39639 11.1683 8.04494C11.5197 7.6935 11.9964 7.49606 12.4934 7.49606C12.9904 7.49606 13.4671 7.6935 13.8186 8.04494C14.17 8.39639 14.3674 8.87305 14.3674 9.37007C14.3674 9.86709 14.17 10.3438 13.8186 10.6952C13.4671 11.0466 12.9904 11.2441 12.4934 11.2441Z" fill="#B6B6B6"/>
</svg>
