<svg width="32" height="32" viewBox="0 0 32 32" fill="none" xmlns="http://www.w3.org/2000/svg">
<path d="M8 14C6.53334 14 5.33334 15.2 5.33334 16.6667C5.33334 18.1333 6.53334 19.3333 8 19.3333C9.46667 19.3333 10.6667 18.1333 10.6667 16.6667C10.6667 15.2 9.46667 14 8 14ZM24 14C22.5333 14 21.3333 15.2 21.3333 16.6667C21.3333 18.1333 22.5333 19.3333 24 19.3333C25.4667 19.3333 26.6667 18.1333 26.6667 16.6667C26.6667 15.2 25.4667 14 24 14ZM16 14C14.5333 14 13.3333 15.2 13.3333 16.6667C13.3333 18.1333 14.5333 19.3333 16 19.3333C17.4667 19.3333 18.6667 18.1333 18.6667 16.6667C18.6667 15.2 17.4667 14 16 14Z" fill="#B6B6B6"/>
</svg>
