<svg width="31" height="32" viewBox="0 0 31 32" fill="none" xmlns="http://www.w3.org/2000/svg">
<path d="M15.5 29C22.4441 29 28.0938 23.1681 28.0938 16C28.0938 8.83187 22.4441 3 15.5 3C8.55588 3 2.90625 8.83187 2.90625 16C2.90625 23.1681 8.55588 29 15.5 29ZM15.5 5C21.373 5 26.1562 9.9375 26.1562 16C26.1562 22.0625 21.373 27 15.5 27C9.62695 27 4.84375 22.0656 4.84375 16C4.84375 9.93437 9.62393 5 15.5 5Z" fill="#B6B6B6"/>
<path d="M11.4028 18.25C12.4563 18.25 13.4741 17.7675 14.2691 16.8919C15.0554 16.0114 15.5256 14.8793 15.6011 13.6844C15.6901 12.3906 15.3056 11.2 14.5185 10.3331C13.7314 9.46625 12.6313 9 11.4028 9C10.1834 9 9.07961 9.47625 8.29492 10.3413C7.51024 11.2063 7.11608 12.4037 7.20508 13.6856C7.28206 14.8799 7.75203 16.0111 8.53711 16.8919C9.3327 17.7675 10.3499 18.25 11.4028 18.25Z" fill="#B6B6B6"/>
<path d="M21.0812 18.4599C22.8831 18.4599 24.4676 16.7406 24.6129 14.6268C24.6874 13.5443 24.3616 12.5437 23.6944 11.8093C23.0272 11.075 22.1069 10.6843 21.0818 10.6843C20.0568 10.6843 19.1371 11.0868 18.4741 11.8181C17.8111 12.5493 17.475 13.5568 17.5507 14.6306C17.6985 16.7412 19.2824 18.4599 21.0812 18.4599Z" fill="#B6B6B6"/>
<path d="M5.54791 22.205C5.64418 21.9113 5.8785 21.5981 6.34834 21.3013C7.76877 20.4056 9.51615 19.9319 11.4028 19.9319C13.2537 19.9319 15.0495 20.4256 16.4603 21.3225C18.0496 22.3331 19.1177 23.8069 19.5482 25.5838C19.6499 26.0019 19.7982 26.78 19.6396 27.2156C17.0939 28.2149 14.2893 28.2608 11.7142 27.3452C9.13918 26.4296 6.95684 24.6106 5.54731 22.205H5.54791Z" fill="#B6B6B6"/>
<path d="M21.0927 25.0855C20.6647 23.3224 19.7534 21.8524 18.3397 20.6637C18.2728 20.6068 18.222 20.5324 18.1925 20.4483C18.163 20.3642 18.1559 20.2735 18.1719 20.1856C18.1879 20.0977 18.2265 20.0158 18.2835 19.9485C18.3406 19.8812 18.4142 19.831 18.4965 19.803C19.223 19.5637 20.0525 19.4355 21.0812 19.4355C22.5234 19.4355 24.0547 19.8387 25.2069 20.5712C25.5338 20.7793 25.8547 20.8593 26.1018 20.9305C25.11 23.1933 23.4652 25.0845 21.3924 26.3456L21.284 26.3368C21.2603 25.9142 21.1963 25.4951 21.0927 25.0855Z" fill="#B6B6B6"/>
</svg>
