<svg width="25" height="25" viewBox="0 0 25 25" fill="none" xmlns="http://www.w3.org/2000/svg">
<path d="M10.3449 13.4485H3.10346C2.8291 13.4485 2.56597 13.5575 2.37196 13.7515C2.17796 13.9455 2.06897 14.2086 2.06897 14.483V21.7244C2.06897 21.9988 2.17796 22.2619 2.37196 22.4559C2.56597 22.6499 2.8291 22.7589 3.10346 22.7589H10.3449C10.6193 22.7589 10.8824 22.6499 11.0764 22.4559C11.2704 22.2619 11.3794 21.9988 11.3794 21.7244V14.483C11.3794 14.2086 11.2704 13.9455 11.0764 13.7515C10.8824 13.5575 10.6193 13.4485 10.3449 13.4485ZM9.3104 20.6899H4.13795V15.5175H9.3104V20.6899ZM21.7243 2.06909H14.4828C14.2085 2.06909 13.9454 2.17808 13.7514 2.37209C13.5573 2.56609 13.4484 2.82922 13.4484 3.10358V10.345C13.4484 10.6194 13.5573 10.8825 13.7514 11.0765C13.9454 11.2705 14.2085 11.3795 14.4828 11.3795H21.7243C21.9986 11.3795 22.2618 11.2705 22.4558 11.0765C22.6498 10.8825 22.7588 10.6194 22.7588 10.345V3.10358C22.7588 2.82922 22.6498 2.56609 22.4558 2.37209C22.2618 2.17808 21.9986 2.06909 21.7243 2.06909ZM20.6898 9.31052H15.5173V4.13807H20.6898V9.31052ZM21.7243 13.4485H14.4828C14.2085 13.4485 13.9454 13.5575 13.7514 13.7515C13.5573 13.9455 13.4484 14.2086 13.4484 14.483V21.7244C13.4484 21.9988 13.5573 22.2619 13.7514 22.4559C13.9454 22.6499 14.2085 22.7589 14.4828 22.7589H21.7243C21.9986 22.7589 22.2618 22.6499 22.4558 22.4559C22.6498 22.2619 22.7588 21.9988 22.7588 21.7244V14.483C22.7588 14.2086 22.6498 13.9455 22.4558 13.7515C22.2618 13.5575 21.9986 13.4485 21.7243 13.4485ZM20.6898 20.6899H15.5173V15.5175H20.6898V20.6899ZM10.3449 2.06909H3.10346C2.8291 2.06909 2.56597 2.17808 2.37196 2.37209C2.17796 2.56609 2.06897 2.82922 2.06897 3.10358V10.345C2.06897 10.6194 2.17796 10.8825 2.37196 11.0765C2.56597 11.2705 2.8291 11.3795 3.10346 11.3795H10.3449C10.6193 11.3795 10.8824 11.2705 11.0764 11.0765C11.2704 10.8825 11.3794 10.6194 11.3794 10.345V3.10358C11.3794 2.82922 11.2704 2.56609 11.0764 2.37209C10.8824 2.17808 10.6193 2.06909 10.3449 2.06909ZM9.3104 9.31052H4.13795V4.13807H9.3104V9.31052Z" fill="#B6B6B6"/>
</svg>
