<svg id="Layer_1" data-name="Layer 1" xmlns="http://www.w3.org/2000/svg" viewBox="0 0 2131.2 994.36"><defs><style>.cls-1{fill:#03dac5;}.cls-2{fill:#fff;stroke:#fff;stroke-miterlimit:10;}</style></defs><title>Hi res Lyduz Logo Light Mode</title><rect class="cls-1" x="444.21" y="68.23" width="56.5" height="194.94"/><polygon class="cls-1" points="655.7 151.13 655.7 348.83 289.23 348.83 289.23 151.13 347.57 151.13 347.57 286.07 599.28 286.07 599.28 151.13 655.7 151.13"/><path class="cls-2" d="M101.67,222.93h92.39V771.07H101.67Z"/><path class="cls-2" d="M561.31,379.55h90.84V612.9a210,210,0,0,1-7.88,57.55,168.38,168.38,0,0,1-24.42,51.29,165,165,0,0,1-41.36,40.72q-24.79,17.22-58.67,25.06v138.6H429V786.73a193,193,0,0,1-54-26.62,201.13,201.13,0,0,1-41.89-39.54,173.86,173.86,0,0,1-27.41-49.72,170.73,170.73,0,0,1-9.79-58V379.55h92.4V612.9A85.6,85.6,0,0,0,413.32,674a91.36,91.36,0,0,0,27.41,18.79,81,81,0,0,0,33.66,7,86.21,86.21,0,0,0,33.28-6.64,84.87,84.87,0,0,0,27.81-18.41,91.23,91.23,0,0,0,18.79-27.41,81,81,0,0,0,7-33.67Z"/><path class="cls-2" d="M1156.43,574.52q0,45.43-16.45,84.18a207.07,207.07,0,0,1-45.41,67.35,214.88,214.88,0,0,1-67.74,45q-38.76,16.44-83.39,16.45T860,770.69A212.92,212.92,0,0,1,747.28,657.93q-16.85-38.77-16.83-83.41t16.83-83.39A212.83,212.83,0,0,1,860,378.37q38.76-16.81,83.4-16.83,33.64,0,67.73,13.7t54.42,32.5V222.93h90.84Zm-90.84,0a116.58,116.58,0,0,0-9.79-47.37,123.52,123.52,0,0,0-65-65,119.63,119.63,0,0,0-94.75,0,123.7,123.7,0,0,0-65,65,119.55,119.55,0,0,0,0,94.76,123.73,123.73,0,0,0,65,65,119.52,119.52,0,0,0,94.75,0,123.54,123.54,0,0,0,65-65A116.57,116.57,0,0,0,1065.59,574.52Z"/><path class="cls-2" d="M1508,379.55h90.83V609a169.55,169.55,0,0,1-14.09,68.9,191.58,191.58,0,0,1-38,56.77,174.32,174.32,0,0,1-125.69,52.86,169.55,169.55,0,0,1-68.9-14.09,184.53,184.53,0,0,1-95.54-95.93,172.31,172.31,0,0,1-14.09-69.3V379.55h90.84V609a81,81,0,0,0,7,33.66,91.26,91.26,0,0,0,18.8,27.41,84.54,84.54,0,0,0,27.8,18.4,87.88,87.88,0,0,0,34,6.66,86,86,0,0,0,33.28-6.66,84.69,84.69,0,0,0,27.81-18.4A91.23,91.23,0,0,0,1501,642.65a81,81,0,0,0,7-33.66Z"/><path class="cls-2" d="M1714.74,379.55h314.79L1840.81,680.24h188.72v90.83H1673.24l187.94-300.69H1714.74Z"/></svg>