<svg width="29" height="28" viewBox="0 0 29 28" fill="none" xmlns="http://www.w3.org/2000/svg">
<path d="M24.3043 4.04886C21.604 1.36248 18.3051 0 14.5 0C10.6595 0 7.35124 1.36402 4.6664 4.0504C1.97694 6.73679 0.612915 10.0481 0.612915 13.8871C0.612915 17.6906 1.97539 20.9896 4.66178 23.6914C7.34816 26.4009 10.6579 27.7742 14.5 27.7742C18.3066 27.7742 21.6056 26.4009 24.3074 23.696C27.0154 20.9911 28.3871 17.6906 28.3871 13.8871C28.3871 10.0481 27.0138 6.73679 24.3043 4.04886ZM22.1256 21.5142C20.3712 23.2717 18.3668 24.2731 16.043 24.5771V16.9731H19.129V13.8871H16.043V11.7269C16.043 11.6052 16.067 11.4847 16.1136 11.3722C16.1603 11.2598 16.2286 11.1577 16.3147 11.0717C16.4009 10.9857 16.5031 10.9175 16.6156 10.8711C16.7281 10.8247 16.8487 10.8009 16.9704 10.8011H19.129V7.71505H16.9735C15.8285 7.71505 14.8734 8.1363 14.1081 8.98341C13.3428 9.82744 12.957 10.8582 12.957 12.0818V13.8871H9.87098V16.9731H12.957V24.5802C10.6085 24.2793 8.59645 23.2763 6.85131 21.5188C4.72967 19.3833 3.69894 16.8867 3.69894 13.8871C3.69894 10.8535 4.72812 8.35077 6.84976 6.23376C8.96369 4.11521 11.4665 3.08602 14.5 3.08602C17.5012 3.08602 19.9962 4.11675 22.1302 6.23839C24.2642 8.3554 25.3011 10.8582 25.3011 13.8871C25.3011 16.8821 24.2626 19.3787 22.1256 21.5142Z" fill="#B6B6B6"/>
</svg>
