<svg width="27" height="28" viewBox="0 0 27 28" fill="none" xmlns="http://www.w3.org/2000/svg">
<path d="M22.5363 0H4.68148C2.15205 0 0.217773 2.00591 0.217773 4.62903V23.1452C0.217773 25.7683 2.15205 27.7742 4.68148 27.7742H22.5363C25.0658 27.7742 27 25.7683 27 23.1452V4.62903C27 2.00591 25.0658 0 22.5363 0ZM13.6089 9.25807C16.1383 9.25807 18.0726 11.264 18.0726 13.8871C18.0726 16.5102 16.1383 18.5161 13.6089 18.5161C11.0795 18.5161 9.14519 16.5102 9.14519 13.8871C9.14519 11.264 11.0795 9.25807 13.6089 9.25807ZM19.2629 6.17204C19.2629 5.09194 20.1557 4.32043 21.0484 4.32043C21.9412 4.32043 22.8339 5.24624 22.8339 6.17204C22.8339 7.09785 22.09 8.02366 21.0484 8.02366C20.0069 8.02366 19.2629 7.25215 19.2629 6.17204ZM22.5363 24.6882H4.68148C3.78874 24.6882 3.19358 24.071 3.19358 23.1452V13.8871H6.16939C6.16939 18.2075 9.44277 21.6022 13.6089 21.6022C17.775 21.6022 21.0484 18.2075 21.0484 13.8871H24.0242V23.1452C24.0242 24.071 23.4291 24.6882 22.5363 24.6882Z" fill="#B6B6B6"/>
</svg>
