<?xml version="1.0" encoding="utf-8"?>
<!-- Generator: Adobe Illustrator 21.0.0, SVG Export Plug-In . SVG Version: 6.00 Build 0)  -->
<svg version="1.1" id="Layer_1" xmlns="http://www.w3.org/2000/svg" xmlns:xlink="http://www.w3.org/1999/xlink" x="0px" y="0px"
	 viewBox="0 0 20 20" style="enable-background:new 0 0 20 20;" xml:space="preserve">
<style type="text/css">
	.st0{fill:#03DAC5;}
</style>
<path class="st0" d="M10.4,12.7l-4.5,4.5C5.6,17.5,5,17.4,4.6,17L3,15.4c-0.4-0.4-0.4-1-0.1-1.3l4.5-4.5c0.3-0.3,0.3-0.9-0.1-1.3
	c-0.4-0.4-1-0.4-1.3-0.1l-5.7,5.7c-0.3,0.3-0.3,0.9,0.1,1.3l4.4,4.4c0.4,0.4,1,0.4,1.3,0.1l5.7-5.7c0.3-0.3,0.3-0.9-0.1-1.3
	C11.3,12.3,10.7,12.3,10.4,12.7z"/>
<path class="st0" d="M19.7,4.7l-4.4-4.4c-0.4-0.4-1-0.4-1.3-0.1L8.2,5.9C7.9,6.3,7.9,6.9,8.3,7.3c0.4,0.4,1,0.4,1.3,0.1l4.5-4.5
	C14.4,2.5,15,2.6,15.4,3L17,4.6c0.4,0.4,0.4,1,0.1,1.3l-4.5,4.5c-0.3,0.3-0.3,0.9,0.1,1.3c0.4,0.4,1,0.4,1.3,0.1l5.7-5.7
	C20.1,5.7,20.1,5.1,19.7,4.7z"/>
<path class="st0" d="M5.4,14.6c0.4,0.4,1.1,0.5,1.5,0.1l7.9-7.9c0.4-0.4,0.4-1.1-0.1-1.5c-0.4-0.4-1.1-0.5-1.5-0.1l-7.8,7.9
	C4.9,13.5,4.9,14.2,5.4,14.6z"/>
</svg>
