<svg width="20" height="20" viewBox="0 0 20 20" fill="none" xmlns="http://www.w3.org/2000/svg">
<path d="M10.3642 12.6544L5.8953 17.1235C5.55427 17.4642 4.95944 17.429 4.57427 17.0435L2.95704 15.4258C2.57118 15.0406 2.53566 14.4458 2.87669 14.1048L7.34598 9.63568C7.68736 9.29395 7.65081 8.69945 7.26598 8.31427C6.88081 7.92874 6.28667 7.89288 5.94495 8.23461L0.234294 13.9444C-0.106738 14.2855 -0.0715663 14.88 0.314294 15.2655L4.73461 19.6859C5.11875 20.0711 5.71461 20.107 6.0553 19.7659L11.766 14.0554C12.1073 13.7141 12.0708 13.1192 11.6856 12.7344C11.3004 12.3495 10.7056 12.3126 10.3642 12.6544Z" fill="#00FFC3"/>
<path d="M19.6862 4.73433L15.2658 0.314165C14.8803 -0.0713373 14.2858 -0.106853 13.9444 0.234168L8.23435 5.94394C7.89297 6.28531 7.92883 6.88011 8.31401 7.26527C8.69884 7.65008 9.29436 7.68629 9.6354 7.34561L14.1037 2.87682C14.4458 2.53511 15.0403 2.57166 15.4255 2.95682L17.0427 4.57434C17.4279 4.95984 17.4641 5.55396 17.1224 5.89567L12.6537 10.3645C12.3123 10.7055 12.3489 11.3006 12.7337 11.6861C13.1189 12.0709 13.7137 12.1071 14.0554 11.7658L19.7652 6.05566C20.1076 5.71464 20.0707 5.11915 19.6862 4.73433Z" fill="#00FFC3"/>
<path d="M5.3619 14.639C5.80435 15.0822 6.48785 15.1227 6.87955 14.7306L14.7303 6.87999C15.1228 6.48748 15.0823 5.80514 14.6387 5.36149C14.1963 4.91823 13.5128 4.8766 13.1195 5.2699L5.26952 13.1201C4.87663 13.5122 4.91826 14.1961 5.3619 14.639Z" fill="#00FFC3"/>
</svg>
