<svg width="31" height="31" viewBox="0 0 31 31" fill="none" xmlns="http://www.w3.org/2000/svg">
<g clip-path="url(#clip0)">
<path d="M21.9107 10.848C21.9107 10.6813 21.9053 10.5245 21.9107 10.3682C21.9814 8.60317 21.2083 7.2628 19.8538 6.24318C18.3423 5.1061 16.6126 4.70494 14.7602 4.82737C13.2181 4.92856 11.8022 5.41465 10.5899 6.41711C9.58168 7.2515 8.91264 8.29823 8.78061 9.6395C8.74149 10.0334 8.77438 10.4346 8.77438 10.8457C8.36985 10.8995 7.99643 10.9392 7.62657 10.9997C5.32605 11.3738 3.64745 13.4939 3.78526 15.8453C3.89462 17.707 5.23803 19.388 7.05533 19.9215C7.19478 19.9582 7.32561 20.0229 7.44012 20.1117C7.55463 20.2006 7.65052 20.3118 7.72215 20.4388C7.91197 20.7708 7.91419 21.0979 7.67102 21.4046C7.42786 21.7114 7.11801 21.8587 6.73037 21.7661C4.39873 21.1937 2.46808 19.0148 2.07999 16.5948C1.63544 13.8309 3.0362 11.2188 5.3954 9.91733C5.71316 9.74012 6.04436 9.58905 6.38585 9.46557C6.77705 9.32598 6.99887 9.09423 7.10245 8.66912C7.43986 7.28358 8.19247 6.14515 9.24427 5.21362C10.6375 3.97806 12.2738 3.30404 14.0987 3.08132C16.2032 2.82517 18.2023 3.16535 20.0556 4.22698C21.5822 5.10113 22.726 6.33218 23.3252 8.03576C23.3967 8.24101 23.456 8.45039 23.503 8.6628C23.5951 9.0739 23.828 9.31062 24.2316 9.45157C26.6322 10.2909 28.1334 11.9611 28.5708 14.5176C29.1385 17.8326 27.099 20.8874 23.8329 21.7864C23.7165 21.8172 23.5948 21.8217 23.4765 21.7997C23.3582 21.7777 23.246 21.7296 23.1479 21.6589C23.0497 21.5882 22.968 21.4965 22.9084 21.3903C22.8488 21.2841 22.8128 21.166 22.8029 21.0441C22.7504 20.4903 23.0251 20.1004 23.5871 19.9292C24.3805 19.694 25.0978 19.2482 25.6653 18.6376C27.7684 16.3843 27.0647 12.7431 24.2699 11.3937C23.652 11.0951 22.9971 10.9604 22.3223 10.8967C22.1921 10.8864 22.0614 10.8669 21.9107 10.848Z" fill="#B6B6B6"/>
<path d="M9.11133 19.7088C9.11133 17.6383 9.11133 15.5682 9.11133 13.4985C9.11133 12.7938 9.41806 12.4834 10.1164 12.4834H20.5388C21.2105 12.4834 21.5541 12.8299 21.5541 13.5071C21.5541 17.647 21.5541 21.7871 21.5541 25.9273C21.5541 26.6153 21.2394 26.9343 20.5619 26.9343H10.0956C9.42873 26.9343 9.11222 26.6126 9.11177 25.9404C9.11148 23.8635 9.11133 21.7863 9.11133 19.7088ZM19.7626 25.1128V14.3008H10.9037V25.1128H19.7626Z" fill="#B6B6B6"/>
<path d="M15.3364 16.9961C15.9219 16.9961 16.5069 16.9939 17.0923 16.9961C17.6556 16.9988 18.0059 17.3489 18.0045 17.9019C18.0045 18.444 17.6565 18.7978 17.1061 18.8005C15.9281 18.8056 14.7502 18.8056 13.5724 18.8005C13.0132 18.7982 12.6633 18.4341 12.67 17.8825C12.6767 17.3435 13.0283 16.9988 13.5809 16.9961C14.1637 16.9939 14.7492 16.9961 15.3364 16.9961Z" fill="#B6B6B6"/>
<path d="M15.3457 20.613C15.9312 20.613 16.5162 20.6103 17.1012 20.613C17.6543 20.6162 17.9988 20.9618 18.0006 21.5066C18.0023 22.0514 17.6556 22.4101 17.1115 22.4133C15.926 22.4178 14.7406 22.4178 13.5551 22.4133C13.0119 22.411 12.6638 22.0474 12.666 21.5048C12.6682 20.9622 13.0154 20.6162 13.5685 20.613C14.161 20.6103 14.7536 20.613 15.3457 20.613Z" fill="#B6B6B6"/>
</g>
<defs>
<clipPath id="clip0">
<rect width="26.67" height="23.9346" fill="white" transform="translate(2 3)"/>
</clipPath>
</defs>
</svg>
