<svg width="20" height="21" viewBox="0 0 20 21" fill="none" xmlns="http://www.w3.org/2000/svg">
<path d="M16.0006 6.00075C16.531 6.00075 17.0397 5.79004 17.4148 5.41497C17.7898 5.03989 18.0006 4.53119 18.0006 4.00076C18.0006 3.47032 17.7898 2.96162 17.4148 2.58654C17.0397 2.21147 16.531 2.00076 16.0006 2.00076C15.4701 2.00076 14.9614 2.21147 14.5863 2.58654C14.2113 2.96162 14.0006 3.47032 14.0006 4.00076C14.0006 4.53119 14.2113 5.03989 14.5863 5.41497C14.9614 5.79004 15.4701 6.00075 16.0006 6.00075ZM7.92855 9.24074C8.03324 9.78468 8.02439 10.3444 7.90255 10.8847L12.9426 13.4217C13.5705 12.6777 14.4481 12.1883 15.4111 12.0451C16.3741 11.9019 17.3562 12.1149 18.1734 12.644C18.9906 13.1731 19.5868 13.9821 19.8502 14.9193C20.1136 15.8566 20.0262 16.8577 19.6043 17.7351C19.1824 18.6124 18.455 19.3058 17.5584 19.6853C16.6618 20.0647 15.6577 20.1042 14.7341 19.7962C13.8106 19.4883 13.031 18.8541 12.5416 18.0125C12.0522 17.1709 11.8865 16.1797 12.0755 15.2247L6.98554 12.6627C6.44246 13.2718 5.72607 13.7002 4.93251 13.8905C4.13896 14.0807 3.3062 14.0237 2.54598 13.727C1.78576 13.4304 1.13445 12.9084 0.67946 12.2309C0.224466 11.5535 -0.0124497 10.7531 0.000504229 9.93719C0.0134581 9.12125 0.275662 8.3288 0.751931 7.66616C1.2282 7.00352 1.89575 6.5024 2.665 6.23005C3.43425 5.95769 4.2684 5.92713 5.05552 6.14247C5.84264 6.35781 6.54507 6.80874 7.06855 7.43475L12.1045 4.91275C11.8825 3.96487 12.0138 2.96855 12.4738 2.11054C12.9338 1.25252 13.6909 0.591713 14.6032 0.251968C15.5155 -0.087778 16.5205 -0.0831363 17.4296 0.265023C18.3388 0.613182 19.0898 1.28096 19.5418 2.14319C19.9938 3.00541 20.1159 4.0029 19.8851 4.94869C19.6543 5.89448 19.0865 6.72364 18.2882 7.28076C17.4898 7.83788 16.5157 8.08471 15.5483 7.97499C14.581 7.86527 13.6869 7.40653 13.0336 6.68475L7.92855 9.24074ZM4.00054 12.0007C4.53098 12.0007 5.03968 11.79 5.41476 11.415C5.78983 11.0399 6.00054 10.5312 6.00054 10.0007C6.00054 9.47031 5.78983 8.96161 5.41476 8.58653C5.03968 8.21146 4.53098 8.00075 4.00054 8.00075C3.47011 8.00075 2.9614 8.21146 2.58633 8.58653C2.21126 8.96161 2.00054 9.47031 2.00054 10.0007C2.00054 10.5312 2.21126 11.0399 2.58633 11.415C2.9614 11.79 3.47011 12.0007 4.00054 12.0007ZM16.0006 18.0007C16.531 18.0007 17.0397 17.79 17.4148 17.4149C17.7898 17.0399 18.0006 16.5312 18.0006 16.0007C18.0006 15.4703 17.7898 14.9616 17.4148 14.5865C17.0397 14.2114 16.531 14.0007 16.0006 14.0007C15.4701 14.0007 14.9614 14.2114 14.5863 14.5865C14.2113 14.9616 14.0006 15.4703 14.0006 16.0007C14.0006 16.5312 14.2113 17.0399 14.5863 17.4149C14.9614 17.79 15.4701 18.0007 16.0006 18.0007Z" fill="#535358"/>
</svg>
