<svg width="27" height="22" viewBox="0 0 27 22" fill="none" xmlns="http://www.w3.org/2000/svg">
<path d="M23.643 4.26761C24.8451 3.55998 25.6411 2.59413 26.0309 1.36578C24.933 1.93517 23.7548 2.34893 22.533 2.59413C21.4871 1.51558 20.1629 0.967743 18.5754 0.967743C17.0236 0.967743 15.7129 1.4899 14.6431 2.50568C14.1265 2.98804 13.7181 3.56647 13.4428 4.20552C13.1675 4.84457 13.0312 5.53079 13.0422 6.22213C13.0422 6.66297 13.1003 7.05672 13.2163 7.39056C8.63977 7.24076 4.85178 5.42035 1.86722 1.91647C1.36136 2.77389 1.10843 3.64701 1.10843 4.55008C1.10843 6.40617 1.92524 7.87705 3.55589 8.95703C2.626 8.88142 1.80621 8.65601 1.10843 8.2865C1.10843 9.61187 1.5146 10.719 2.32844 11.6934C3.119 12.6429 4.23312 13.295 5.47518 13.5352C5.01098 13.6493 4.52149 13.7035 4.0186 13.7035C3.5544 13.7035 3.22559 13.6664 3.03069 13.5851C3.37289 14.6651 4.0186 15.5411 4.95147 16.2116C5.87368 16.883 6.99547 17.2544 8.15326 17.2716C6.17148 18.7625 3.90553 19.5 1.34201 19.5C0.714154 19.5 0.269296 19.4915 0 19.4458C2.52483 21.018 5.33533 21.7984 8.44487 21.7984C11.6273 21.7984 14.4393 21.0251 16.8868 19.4786C19.3342 17.9407 21.1404 16.0432 22.3009 13.8091C23.4486 11.6473 24.0461 9.25566 24.0447 6.82988V6.16221C25.1144 5.40597 26.0404 4.47891 26.7823 3.4216C25.7804 3.83798 24.7244 4.12256 23.643 4.26761Z" fill="#B6B6B6"/>
</svg>
