<svg width="17" height="17" viewBox="0 0 17 17" fill="none" xmlns="http://www.w3.org/2000/svg">
<circle cx="8.5" cy="8.5" r="8.5" fill="#03DAC5"/>
<path d="M11.3332 7.55V5.56667C11.3332 5.41638 11.2735 5.27224 11.1673 5.16597C11.061 5.0597 10.9169 5 10.7666 5H3.96657C3.81628 5 3.67215 5.0597 3.56588 5.16597C3.4596 5.27224 3.3999 5.41638 3.3999 5.56667V11.2333C3.3999 11.3836 3.4596 11.5278 3.56588 11.634C3.67215 11.7403 3.81628 11.8 3.96657 11.8H10.7666C10.9169 11.8 11.061 11.7403 11.1673 11.634C11.2735 11.5278 11.3332 11.3836 11.3332 11.2333V9.25L13.5999 11.5167V5.28333L11.3332 7.55Z" fill="black"/>
</svg>
