<svg width="192" height="108" viewBox="0 0 192 108" fill="none" xmlns="http://www.w3.org/2000/svg">
<path d="M94.3562 99L92.5102 94.71H83.5922L81.7462 99H78.3662L86.6602 80.67H89.3902L97.6842 99H94.3562ZM84.6842 92.11H91.3922L88.0382 84.31L84.6842 92.11ZM106.659 85.974C107.768 85.974 108.748 86.2427 109.597 86.78C110.446 87.3173 111.105 88.08 111.573 89.068C112.058 90.056 112.301 91.2087 112.301 92.526C112.301 93.8433 112.058 95.0133 111.573 96.036C111.105 97.0413 110.438 97.8213 109.571 98.376C108.722 98.9307 107.751 99.208 106.659 99.208C105.74 99.208 104.917 99.0087 104.189 98.61C103.478 98.2113 102.932 97.6567 102.551 96.946V99H99.3531V80.67H102.603V88.132C102.984 87.4387 103.53 86.91 104.241 86.546C104.952 86.1647 105.758 85.974 106.659 85.974ZM105.801 96.686C106.824 96.686 107.621 96.322 108.193 95.594C108.765 94.866 109.051 93.8433 109.051 92.526C109.051 91.226 108.765 90.2293 108.193 89.536C107.638 88.8427 106.841 88.496 105.801 88.496C104.761 88.496 103.955 88.8513 103.383 89.562C102.828 90.2553 102.551 91.2607 102.551 92.578C102.551 93.8953 102.828 94.9093 103.383 95.62C103.955 96.3307 104.761 96.686 105.801 96.686ZM120.766 99.208C119.466 99.208 118.322 98.9393 117.334 98.402C116.364 97.8647 115.61 97.0933 115.072 96.088C114.535 95.0827 114.266 93.9127 114.266 92.578C114.266 91.2433 114.535 90.082 115.072 89.094C115.61 88.0887 116.364 87.3173 117.334 86.78C118.322 86.2427 119.466 85.974 120.766 85.974C122.066 85.974 123.202 86.2427 124.172 86.78C125.16 87.3173 125.914 88.0887 126.434 89.094C126.972 90.082 127.24 91.2433 127.24 92.578C127.24 93.9127 126.972 95.0827 126.434 96.088C125.914 97.0933 125.16 97.8647 124.172 98.402C123.202 98.9393 122.066 99.208 120.766 99.208ZM120.74 96.686C121.798 96.686 122.604 96.3393 123.158 95.646C123.713 94.9527 123.99 93.93 123.99 92.578C123.99 91.2433 123.713 90.2293 123.158 89.536C122.604 88.8253 121.806 88.47 120.766 88.47C119.726 88.47 118.92 88.8253 118.348 89.536C117.794 90.2293 117.516 91.2433 117.516 92.578C117.516 93.93 117.794 94.9527 118.348 95.646C118.903 96.3393 119.7 96.686 120.74 96.686ZM141.597 86.286V99H138.425V97.05C138.027 97.7433 137.489 98.2807 136.813 98.662C136.137 99.026 135.375 99.208 134.525 99.208C131.405 99.208 129.845 97.4573 129.845 93.956V86.286H133.095V93.982C133.095 94.8833 133.277 95.5507 133.641 95.984C134.005 96.4173 134.577 96.634 135.357 96.634C136.259 96.634 136.978 96.3393 137.515 95.75C138.07 95.1433 138.347 94.346 138.347 93.358V86.286H141.597ZM151.48 96.764C151.861 96.764 152.26 96.738 152.676 96.686L152.52 99.104C152 99.156 151.523 99.182 151.09 99.182C149.305 99.182 147.987 98.7747 147.138 97.96C146.289 97.128 145.864 95.8973 145.864 94.268V88.73H143.42V86.286H145.864V82.49H149.114V86.286H152.468V88.73H149.114V94.216C149.114 95.9147 149.903 96.764 151.48 96.764ZM169.488 99.234C166.975 99.234 165.068 98.584 163.768 97.284C162.468 95.984 161.818 94.086 161.818 91.59V80.67H165.094V91.772C165.094 93.3493 165.467 94.5453 166.212 95.36C166.958 96.1573 168.05 96.556 169.488 96.556C170.91 96.556 171.993 96.1487 172.738 95.334C173.484 94.5193 173.856 93.332 173.856 91.772V80.67H177.132V91.59C177.132 94.0687 176.482 95.9667 175.182 97.284C173.882 98.584 171.984 99.234 169.488 99.234ZM185.385 99.208C184.258 99.208 183.218 99.0693 182.265 98.792C181.329 98.5147 180.531 98.116 179.873 97.596L180.783 95.334C182.135 96.322 183.686 96.816 185.437 96.816C186.182 96.816 186.745 96.6947 187.127 96.452C187.525 96.2093 187.725 95.8627 187.725 95.412C187.725 95.0307 187.586 94.736 187.309 94.528C187.049 94.32 186.572 94.1293 185.879 93.956L183.799 93.488C182.62 93.228 181.745 92.8033 181.173 92.214C180.601 91.6247 180.315 90.862 180.315 89.926C180.315 89.146 180.531 88.4613 180.965 87.872C181.415 87.2653 182.031 86.7973 182.811 86.468C183.608 86.1387 184.527 85.974 185.567 85.974C186.468 85.974 187.335 86.1127 188.167 86.39C189.016 86.6673 189.761 87.0573 190.403 87.56L189.493 89.77C188.175 88.8167 186.858 88.34 185.541 88.34C184.83 88.34 184.275 88.47 183.877 88.73C183.478 88.99 183.279 89.354 183.279 89.822C183.279 90.1687 183.4 90.4547 183.643 90.68C183.903 90.9053 184.31 91.0787 184.865 91.2L187.023 91.694C188.288 91.9713 189.215 92.4133 189.805 93.02C190.394 93.6093 190.689 94.3893 190.689 95.36C190.689 96.5387 190.212 97.4747 189.259 98.168C188.305 98.8613 187.014 99.208 185.385 99.208Z" fill="#263238"/>
<path d="M38.135 0H32.8786V19.5966H38.135V0Z" fill="#48FFD5"/>
<path d="M52.5535 8.33423V28.2142H18.45V8.33423H23.8813V21.8954H47.3068V8.33423H52.5535Z" fill="#48FFD5"/>
<path d="M1 16.6052H9.59875V71.7108H1V16.6052Z" fill="white" stroke="white" stroke-miterlimit="10"/>
<path d="M43.7706 32.3496H52.2236V55.8088C52.2288 57.7637 51.9835 59.71 51.4949 61.5923C50.5214 65.3548 48.3548 68.6279 45.3737 70.8395C43.7193 72.0483 41.8657 72.9035 39.9133 73.3586V87.2977H31.4603V73.2852C29.6635 72.6825 27.9652 71.7794 26.4273 70.6086C24.9647 69.4872 23.6562 68.1479 22.5409 66.6305C21.4287 65.1298 20.5523 63.4419 19.9467 61.6343C19.3311 59.7646 19.022 57.7932 19.0334 55.8088V32.3496H27.7196V55.8088C27.7083 56.9698 27.9201 58.1206 28.3414 59.1886C28.7267 60.2089 29.2909 61.1391 30.0029 61.9282C30.7443 62.7316 31.6173 63.3794 32.5776 63.8385C33.5653 64.3122 34.6354 64.552 35.7159 64.5418C36.7803 64.544 37.8342 64.3156 38.8154 63.87C39.782 63.4461 40.6607 62.818 41.3998 62.0226C42.1337 61.2293 42.7265 60.2972 43.1487 59.2726C43.5873 58.2057 43.8092 57.0497 43.7997 55.8823L43.7706 32.3496Z" fill="white" stroke="white" stroke-miterlimit="10"/>
<path d="M99.152 51.9463C99.195 54.8452 98.6926 57.7234 97.6752 60.4063C96.6816 62.948 95.2282 65.2497 93.4001 67.1764C91.5864 69.1101 89.4457 70.6495 87.0944 71.7108C84.6338 72.8242 81.9891 73.3849 79.3215 73.3587C76.6502 73.3827 74.0034 72.8073 71.5486 71.6688C66.8228 69.5025 63.0605 65.4381 61.0552 60.3328C60.0136 57.6763 59.4768 54.8208 59.4768 51.9358C59.4768 49.0508 60.0136 46.1952 61.0552 43.5387C63.0574 38.4336 66.8212 34.3715 71.5486 32.2132C74.0013 31.0664 76.6491 30.4872 79.3215 30.5128C81.4856 30.5302 83.6264 30.997 85.6272 31.8878C87.4829 32.6424 89.1976 33.7517 90.6893 35.1627V16.6052H99.1423L99.152 51.9463ZM90.699 51.9463C90.7019 50.3248 90.3943 48.7202 89.7954 47.2334C88.6299 44.2949 86.4624 41.9534 83.7423 40.6942C82.3514 40.0434 80.8518 39.7076 79.3361 39.7076C77.8203 39.7076 76.3207 40.0434 74.9298 40.6942C72.2045 41.9452 70.0346 44.2893 68.8767 47.2334C68.2743 48.736 67.9634 50.356 67.9634 51.9935C67.9634 53.6309 68.2743 55.251 68.8767 56.7536C69.4562 58.2055 70.2835 59.5265 71.3154 60.6477C72.3547 61.7656 73.5813 62.6596 74.9298 63.2823C76.3207 63.9331 77.8203 64.2689 79.3361 64.2689C80.8518 64.2689 82.3514 63.9331 83.7423 63.2823C85.0879 62.6594 86.3112 61.7653 87.347 60.6477C88.3884 59.5047 89.2193 58.1582 89.7954 56.6801C90.3948 55.1861 90.7024 53.5745 90.699 51.9463Z" fill="white" stroke="white" stroke-miterlimit="10"/>
<path d="M131.876 32.3496H140.329V55.4415C140.344 57.8243 139.898 60.1843 139.017 62.369C138.165 64.486 136.967 66.4202 135.48 68.079C133.965 69.7623 132.152 71.0998 130.149 72.0121C128.146 72.9245 125.995 73.393 123.821 73.3901C121.615 73.4072 119.431 72.9245 117.408 71.9731C113.422 70.0886 110.245 66.6416 108.518 62.327C107.639 60.1306 107.193 57.7608 107.206 55.368V32.3496H115.659V55.4415C115.653 56.6096 115.878 57.7656 116.32 58.8318C116.742 59.8563 117.335 60.7885 118.069 61.5818C118.808 62.3772 119.687 63.0052 120.654 63.4291C121.657 63.88 122.734 64.1084 123.821 64.1009C124.885 64.1043 125.94 63.8758 126.92 63.4291C127.888 63.007 128.767 62.3787 129.505 61.5818C130.239 60.7885 130.831 59.8563 131.254 58.8318C131.696 57.7656 131.921 56.6096 131.914 55.4415L131.876 32.3496Z" fill="white" stroke="white" stroke-miterlimit="10"/>
<path d="M151.114 32.3496H180.408L162.841 62.5789H180.408V71.7107H147.228L164.717 41.4814H151.114V32.3496Z" fill="white" stroke="white" stroke-miterlimit="10"/>
</svg>
