<svg width="202" height="108" viewBox="0 0 202 108" fill="none" xmlns="http://www.w3.org/2000/svg">
<path d="M79.6534 99.234C77.8508 99.234 76.2734 98.8527 74.9214 98.09C73.5868 97.31 72.5554 96.2093 71.8274 94.788C71.1168 93.3667 70.7614 91.7113 70.7614 89.822C70.7614 87.9327 71.1168 86.286 71.8274 84.882C72.5554 83.4607 73.5868 82.3687 74.9214 81.606C76.2734 80.826 77.8508 80.436 79.6534 80.436C80.8841 80.436 82.0454 80.6267 83.1374 81.008C84.2294 81.3893 85.1481 81.9267 85.8934 82.62L84.7754 85.064C83.9434 84.4053 83.1201 83.9287 82.3054 83.634C81.4908 83.322 80.6241 83.166 79.7054 83.166C77.9374 83.166 76.5681 83.738 75.5974 84.882C74.6441 86.026 74.1674 87.6727 74.1674 89.822C74.1674 91.9887 74.6441 93.644 75.5974 94.788C76.5681 95.932 77.9374 96.504 79.7054 96.504C80.6241 96.504 81.4908 96.3567 82.3054 96.062C83.1201 95.75 83.9434 95.2647 84.7754 94.606L85.8934 97.05C85.1481 97.7433 84.2294 98.2807 83.1374 98.662C82.0454 99.0433 80.8841 99.234 79.6534 99.234ZM94.2126 99.208C92.9126 99.208 91.7686 98.9393 90.7806 98.402C89.8099 97.8647 89.0559 97.0933 88.5186 96.088C87.9813 95.0827 87.7126 93.9127 87.7126 92.578C87.7126 91.2433 87.9813 90.082 88.5186 89.094C89.0559 88.0887 89.8099 87.3173 90.7806 86.78C91.7686 86.2427 92.9126 85.974 94.2126 85.974C95.5126 85.974 96.6479 86.2427 97.6186 86.78C98.6066 87.3173 99.3606 88.0887 99.8806 89.094C100.418 90.082 100.687 91.2433 100.687 92.578C100.687 93.9127 100.418 95.0827 99.8806 96.088C99.3606 97.0933 98.6066 97.8647 97.6186 98.402C96.6479 98.9393 95.5126 99.208 94.2126 99.208ZM94.1866 96.686C95.2439 96.686 96.0499 96.3393 96.6046 95.646C97.1593 94.9527 97.4366 93.93 97.4366 92.578C97.4366 91.2433 97.1593 90.2293 96.6046 89.536C96.0499 88.8253 95.2526 88.47 94.2126 88.47C93.1726 88.47 92.3666 88.8253 91.7946 89.536C91.2399 90.2293 90.9626 91.2433 90.9626 92.578C90.9626 93.93 91.2399 94.9527 91.7946 95.646C92.3493 96.3393 93.1466 96.686 94.1866 96.686ZM110.754 85.974C112.279 85.974 113.414 86.4073 114.16 87.274C114.905 88.1407 115.278 89.4493 115.278 91.2V99H112.028V91.382C112.028 90.394 111.837 89.6747 111.456 89.224C111.092 88.7733 110.511 88.548 109.714 88.548C108.778 88.548 108.024 88.8427 107.452 89.432C106.897 90.0213 106.62 90.81 106.62 91.798V99H103.37V86.286H106.542V88.184C106.975 87.4733 107.556 86.9273 108.284 86.546C109.012 86.1647 109.835 85.974 110.754 85.974ZM125.079 96.764C125.46 96.764 125.859 96.738 126.275 96.686L126.119 99.104C125.599 99.156 125.122 99.182 124.689 99.182C122.903 99.182 121.586 98.7747 120.737 97.96C119.887 97.128 119.463 95.8973 119.463 94.268V88.73H117.019V86.286H119.463V82.49H122.713V86.286H126.067V88.73H122.713V94.216C122.713 95.9147 123.501 96.764 125.079 96.764ZM133.636 85.974C135.422 85.974 136.748 86.4073 137.614 87.274C138.481 88.1407 138.914 89.4753 138.914 91.278V99H135.82V97.05C135.526 97.726 135.058 98.2547 134.416 98.636C133.792 99.0173 133.064 99.208 132.232 99.208C131.383 99.208 130.612 99.0347 129.918 98.688C129.225 98.3413 128.679 97.8647 128.28 97.258C127.882 96.6513 127.682 95.9753 127.682 95.23C127.682 94.294 127.916 93.5573 128.384 93.02C128.87 92.4827 129.65 92.0927 130.724 91.85C131.799 91.6073 133.281 91.486 135.17 91.486H135.82V90.888C135.82 90.0213 135.63 89.3973 135.248 89.016C134.884 88.6347 134.269 88.444 133.402 88.444C132.726 88.444 132.016 88.5653 131.27 88.808C130.542 89.0333 129.823 89.354 129.112 89.77L128.202 87.534C128.913 87.0833 129.771 86.7107 130.776 86.416C131.782 86.1213 132.735 85.974 133.636 85.974ZM132.882 96.868C133.749 96.868 134.451 96.582 134.988 96.01C135.543 95.4207 135.82 94.6667 135.82 93.748V93.202H135.352C134.191 93.202 133.29 93.254 132.648 93.358C132.007 93.462 131.548 93.644 131.27 93.904C130.993 94.164 130.854 94.5193 130.854 94.97C130.854 95.5247 131.045 95.984 131.426 96.348C131.808 96.6947 132.293 96.868 132.882 96.868ZM148.015 99.208C146.681 99.208 145.519 98.9393 144.531 98.402C143.561 97.8647 142.815 97.102 142.295 96.114C141.775 95.126 141.515 93.9733 141.515 92.656C141.515 91.3387 141.784 90.1773 142.321 89.172C142.876 88.1493 143.656 87.3607 144.661 86.806C145.667 86.2513 146.828 85.974 148.145 85.974C149.047 85.974 149.922 86.1213 150.771 86.416C151.638 86.6933 152.331 87.0747 152.851 87.56L151.915 89.848C151.378 89.4147 150.806 89.0853 150.199 88.86C149.61 88.6347 149.021 88.522 148.431 88.522C147.305 88.522 146.429 88.8773 145.805 89.588C145.181 90.2813 144.869 91.2867 144.869 92.604C144.869 93.904 145.181 94.9093 145.805 95.62C146.429 96.3133 147.305 96.66 148.431 96.66C149.021 96.66 149.61 96.5473 150.199 96.322C150.806 96.0967 151.378 95.7673 151.915 95.334L152.851 97.596C152.297 98.0987 151.586 98.4973 150.719 98.792C149.853 99.0693 148.951 99.208 148.015 99.208ZM161.489 96.764C161.87 96.764 162.269 96.738 162.685 96.686L162.529 99.104C162.009 99.156 161.532 99.182 161.099 99.182C159.313 99.182 157.996 98.7747 157.147 97.96C156.297 97.128 155.873 95.8973 155.873 94.268V88.73H153.429V86.286H155.873V82.49H159.123V86.286H162.477V88.73H159.123V94.216C159.123 95.9147 159.911 96.764 161.489 96.764ZM179.497 99.234C176.984 99.234 175.077 98.584 173.777 97.284C172.477 95.984 171.827 94.086 171.827 91.59V80.67H175.103V91.772C175.103 93.3493 175.476 94.5453 176.221 95.36C176.966 96.1573 178.058 96.556 179.497 96.556C180.918 96.556 182.002 96.1487 182.747 95.334C183.492 94.5193 183.865 93.332 183.865 91.772V80.67H187.141V91.59C187.141 94.0687 186.491 95.9667 185.191 97.284C183.891 98.584 181.993 99.234 179.497 99.234ZM195.393 99.208C194.267 99.208 193.227 99.0693 192.273 98.792C191.337 98.5147 190.54 98.116 189.881 97.596L190.791 95.334C192.143 96.322 193.695 96.816 195.445 96.816C196.191 96.816 196.754 96.6947 197.135 96.452C197.534 96.2093 197.733 95.8627 197.733 95.412C197.733 95.0307 197.595 94.736 197.317 94.528C197.057 94.32 196.581 94.1293 195.887 93.956L193.807 93.488C192.629 93.228 191.753 92.8033 191.181 92.214C190.609 91.6247 190.323 90.862 190.323 89.926C190.323 89.146 190.54 88.4613 190.973 87.872C191.424 87.2653 192.039 86.7973 192.819 86.468C193.617 86.1387 194.535 85.974 195.575 85.974C196.477 85.974 197.343 86.1127 198.175 86.39C199.025 86.6673 199.77 87.0573 200.411 87.56L199.501 89.77C198.184 88.8167 196.867 88.34 195.549 88.34C194.839 88.34 194.284 88.47 193.885 88.73C193.487 88.99 193.287 89.354 193.287 89.822C193.287 90.1687 193.409 90.4547 193.651 90.68C193.911 90.9053 194.319 91.0787 194.873 91.2L197.031 91.694C198.297 91.9713 199.224 92.4133 199.813 93.02C200.403 93.6093 200.697 94.3893 200.697 95.36C200.697 96.5387 200.221 97.4747 199.267 98.168C198.314 98.8613 197.023 99.208 195.393 99.208Z" fill="#263238"/>
<path d="M38.1351 0H32.8787V19.5966H38.1351V0Z" fill="#48FFD5"/>
<path d="M52.5536 8.33423V28.2142H18.4501V8.33423H23.8814V21.8954H47.3069V8.33423H52.5536Z" fill="#48FFD5"/>
<path d="M1 16.605H9.59875V71.7105H1V16.605Z" fill="white" stroke="white" stroke-miterlimit="10"/>
<path d="M43.7706 32.3496H52.2236V55.8088C52.2288 57.7637 51.9835 59.71 51.4949 61.5923C50.5214 65.3548 48.3548 68.6279 45.3737 70.8395C43.7193 72.0483 41.8657 72.9035 39.9133 73.3586V87.2977H31.4603V73.2852C29.6635 72.6825 27.9652 71.7794 26.4273 70.6086C24.9647 69.4872 23.6562 68.1479 22.5409 66.6305C21.4287 65.1298 20.5523 63.4419 19.9467 61.6343C19.3311 59.7646 19.022 57.7932 19.0334 55.8088V32.3496H27.7196V55.8088C27.7083 56.9698 27.9201 58.1206 28.3414 59.1886C28.7267 60.2089 29.2909 61.1391 30.0029 61.9282C30.7443 62.7316 31.6173 63.3794 32.5776 63.8385C33.5653 64.3122 34.6354 64.552 35.7159 64.5418C36.7803 64.544 37.8342 64.3156 38.8154 63.87C39.782 63.4461 40.6607 62.818 41.3998 62.0226C42.1337 61.2293 42.7265 60.2972 43.1487 59.2726C43.5873 58.2057 43.8092 57.0497 43.7997 55.8823L43.7706 32.3496Z" fill="white" stroke="white" stroke-miterlimit="10"/>
<path d="M99.152 51.946C99.195 54.845 98.6926 57.7231 97.6752 60.406C96.6816 62.9477 95.2282 65.2494 93.4001 67.1761C91.5864 69.1099 89.4457 70.6492 87.0944 71.7105C84.6338 72.824 81.9891 73.3847 79.3215 73.3585C76.6502 73.3825 74.0034 72.807 71.5486 71.6686C66.8228 69.5022 63.0605 65.4378 61.0552 60.3326C60.0136 57.6761 59.4768 54.8205 59.4768 51.9355C59.4768 49.0505 60.0136 46.195 61.0552 43.5385C63.0574 38.4334 66.8212 34.3712 71.5486 32.213C74.0013 31.0662 76.6491 30.4869 79.3215 30.5126C81.4856 30.5299 83.6264 30.9967 85.6272 31.8876C87.4829 32.6421 89.1976 33.7514 90.6893 35.1624V16.605H99.1423L99.152 51.946ZM90.699 51.946C90.7019 50.3246 90.3943 48.72 89.7954 47.2332C88.6299 44.2946 86.4624 41.9532 83.7423 40.694C82.3514 40.0432 80.8518 39.7074 79.3361 39.7074C77.8203 39.7074 76.3207 40.0432 74.9298 40.694C72.2045 41.9449 70.0346 44.2891 68.8767 47.2332C68.2743 48.7357 67.9634 50.3558 67.9634 51.9932C67.9634 53.6307 68.2743 55.2508 68.8767 56.7533C69.4562 58.2052 70.2835 59.5263 71.3154 60.6474C72.3547 61.7653 73.5813 62.6594 74.9298 63.282C76.3207 63.9328 77.8203 64.2686 79.3361 64.2686C80.8518 64.2686 82.3514 63.9328 83.7423 63.282C85.0879 62.6591 86.3112 61.765 87.347 60.6474C88.3884 59.5044 89.2193 58.158 89.7954 56.6798C90.3948 55.1858 90.7024 53.5743 90.699 51.946Z" fill="white" stroke="white" stroke-miterlimit="10"/>
<path d="M131.876 32.3496H140.329V55.4415C140.344 57.8243 139.898 60.1843 139.017 62.369C138.165 64.486 136.967 66.4202 135.48 68.079C133.965 69.7623 132.152 71.0998 130.149 72.0121C128.147 72.9245 125.995 73.393 123.821 73.3901C121.615 73.4072 119.431 72.9245 117.408 71.9731C113.422 70.0886 110.245 66.6416 108.518 62.327C107.639 60.1306 107.193 57.7608 107.206 55.368V32.3496H115.659V55.4415C115.653 56.6096 115.878 57.7656 116.32 58.8318C116.742 59.8563 117.335 60.7885 118.069 61.5818C118.808 62.3772 119.687 63.0052 120.654 63.4291C121.657 63.88 122.734 64.1084 123.821 64.1009C124.885 64.1043 125.94 63.8758 126.92 63.4291C127.888 63.007 128.767 62.3787 129.505 61.5818C130.239 60.7885 130.832 59.8563 131.254 58.8318C131.696 57.7656 131.921 56.6096 131.915 55.4415L131.876 32.3496Z" fill="white" stroke="white" stroke-miterlimit="10"/>
<path d="M151.114 32.3496H180.408L162.841 62.5789H180.408V71.7107H147.228L164.717 41.4814H151.114V32.3496Z" fill="white" stroke="white" stroke-miterlimit="10"/>
</svg>
