<svg width="67" height="23" viewBox="0 0 67 23" fill="none" xmlns="http://www.w3.org/2000/svg">
<rect width="67" height="23" rx="11.5" fill="#03DAC5" fill-opacity="0.2"/>
<circle cx="12.5" cy="11.5" r="8.5" fill="#03DAC5"/>
<path d="M18 8.14723C17.5583 8.34799 17.0822 8.47992 16.5889 8.54302C17.0937 8.23901 17.4837 7.75717 17.6673 7.17782C17.1912 7.46463 16.6635 7.66539 16.1071 7.78011C15.6539 7.28681 15.0172 7 14.2945 7C12.9465 7 11.8451 8.10134 11.8451 9.4608C11.8451 9.65583 11.8681 9.84512 11.9082 10.0229C9.86616 9.91969 8.0478 8.93881 6.83748 7.45315C6.62524 7.81453 6.50478 8.23901 6.50478 8.68642C6.50478 9.54111 6.93499 10.2983 7.60038 10.7285C7.19312 10.7285 6.81453 10.6138 6.48184 10.4417V10.4589C6.48184 11.652 7.33078 12.6501 8.45507 12.8738C8.09411 12.9726 7.71516 12.9863 7.34799 12.914C7.50379 13.403 7.80891 13.8308 8.22047 14.1374C8.63202 14.444 9.12932 14.614 9.64245 14.6233C8.77264 15.3119 7.69445 15.6841 6.58509 15.6788C6.39006 15.6788 6.19503 15.6673 6 15.6444C7.08987 16.3442 8.38623 16.7514 9.77438 16.7514C14.2945 16.7514 16.7782 13 16.7782 9.74761C16.7782 9.63862 16.7782 9.53537 16.7725 9.42639C17.2543 9.08222 17.6673 8.64627 18 8.14723V8.14723Z" fill="black"/>
<path d="M28 15.5V8.072H25.144V7.04H32.116V8.072H29.248V15.5H28ZM40.1353 9.644H41.3353L39.0913 15.5H37.9993L36.4513 11.312L34.9033 15.5H33.7993L31.5673 9.644H32.8273L34.4113 14.048L36.0073 9.644H36.9553L38.5513 14.072L40.1353 9.644ZM47.3091 12.776H43.1691C43.2571 14.016 43.8731 14.636 45.0171 14.636C45.6891 14.636 46.2971 14.416 46.8411 13.976L47.2131 14.828C46.9411 15.06 46.6051 15.244 46.2051 15.38C45.8051 15.516 45.3971 15.584 44.9811 15.584C44.0451 15.584 43.3051 15.316 42.7611 14.78C42.2251 14.244 41.9571 13.504 41.9571 12.56C41.9571 11.96 42.0731 11.428 42.3051 10.964C42.5451 10.5 42.8771 10.14 43.3011 9.884C43.7331 9.628 44.2211 9.5 44.7651 9.5C45.5571 9.5 46.1771 9.756 46.6251 10.268C47.0811 10.78 47.3091 11.488 47.3091 12.392V12.776ZM44.7891 10.388C44.3251 10.388 43.9531 10.536 43.6731 10.832C43.4011 11.12 43.2371 11.536 43.1811 12.08H46.2651C46.2411 11.536 46.1011 11.12 45.8451 10.832C45.5971 10.536 45.2451 10.388 44.7891 10.388ZM53.6607 12.776H49.5207C49.6087 14.016 50.2247 14.636 51.3687 14.636C52.0407 14.636 52.6487 14.416 53.1927 13.976L53.5647 14.828C53.2927 15.06 52.9567 15.244 52.5567 15.38C52.1567 15.516 51.7487 15.584 51.3327 15.584C50.3967 15.584 49.6567 15.316 49.1127 14.78C48.5767 14.244 48.3087 13.504 48.3087 12.56C48.3087 11.96 48.4247 11.428 48.6567 10.964C48.8967 10.5 49.2287 10.14 49.6527 9.884C50.0847 9.628 50.5727 9.5 51.1167 9.5C51.9087 9.5 52.5287 9.756 52.9767 10.268C53.4327 10.78 53.6607 11.488 53.6607 12.392V12.776ZM51.1407 10.388C50.6767 10.388 50.3047 10.536 50.0247 10.832C49.7527 11.12 49.5887 11.536 49.5327 12.08H52.6167C52.5927 11.536 52.4527 11.12 52.1967 10.832C51.9487 10.536 51.5967 10.388 51.1407 10.388ZM57.7097 14.648C57.8937 14.648 58.0737 14.636 58.2497 14.612L58.1897 15.536C57.9897 15.568 57.7817 15.584 57.5657 15.584C56.8057 15.584 56.2377 15.4 55.8617 15.032C55.4937 14.656 55.3097 14.116 55.3097 13.412V10.58H54.1697V9.644H55.3097V7.88H56.5217V9.644H58.1297V10.58H56.5217V13.364C56.5217 14.22 56.9177 14.648 57.7097 14.648Z" fill="#263238"/>
</svg>
