<svg width="67" height="23" viewBox="0 0 67 23" fill="none" xmlns="http://www.w3.org/2000/svg">
<rect width="67" height="23" rx="11.5" fill="#03DAC5" fill-opacity="0.2"/>
<circle cx="12.5" cy="11.5" r="8.5" fill="#03DAC5"/>
<path d="M12.4998 4.44531C8.604 4.44531 5.4165 7.62573 5.4165 11.5428C5.4165 15.0845 8.009 18.0241 11.3948 18.5553V13.597H9.59567V11.5428H11.3948V9.9774C11.3948 8.19948 12.4503 7.22198 14.0723 7.22198C14.8444 7.22198 15.6519 7.35656 15.6519 7.35656V9.10615H14.7594C13.8811 9.10615 13.6048 9.65156 13.6048 10.2111V11.5428H15.574L15.2553 13.597H13.6048V18.5553C15.274 18.2917 16.7939 17.4401 17.8902 16.1541C18.9865 14.8682 19.587 13.2326 19.5832 11.5428C19.5832 7.62573 16.3957 4.44531 12.4998 4.44531V4.44531Z" fill="black"/>
<path d="M28.756 15.596C28.1 15.596 27.496 15.508 26.944 15.332C26.4 15.156 25.932 14.896 25.54 14.552L25.984 13.64C26.4 13.976 26.828 14.22 27.268 14.372C27.716 14.516 28.216 14.588 28.768 14.588C29.4 14.588 29.888 14.472 30.232 14.24C30.576 14 30.748 13.664 30.748 13.232C30.748 12.864 30.588 12.592 30.268 12.416C29.948 12.232 29.436 12.06 28.732 11.9C28.06 11.756 27.508 11.592 27.076 11.408C26.644 11.224 26.304 10.976 26.056 10.664C25.816 10.344 25.696 9.94 25.696 9.452C25.696 8.956 25.824 8.52 26.08 8.144C26.344 7.768 26.716 7.476 27.196 7.268C27.676 7.052 28.232 6.944 28.864 6.944C29.456 6.944 30.012 7.036 30.532 7.22C31.06 7.396 31.492 7.652 31.828 7.988L31.396 8.9C31.004 8.58 30.6 8.344 30.184 8.192C29.776 8.032 29.34 7.952 28.876 7.952C28.268 7.952 27.788 8.08 27.436 8.336C27.092 8.584 26.92 8.932 26.92 9.38C26.92 9.764 27.072 10.056 27.376 10.256C27.68 10.448 28.168 10.624 28.84 10.784C29.544 10.944 30.112 11.112 30.544 11.288C30.984 11.456 31.332 11.692 31.588 11.996C31.852 12.292 31.984 12.68 31.984 13.16C31.984 13.648 31.852 14.076 31.588 14.444C31.332 14.812 30.96 15.096 30.472 15.296C29.992 15.496 29.42 15.596 28.756 15.596ZM36.5194 9.5C37.9194 9.5 38.6194 10.288 38.6194 11.864V15.5H37.4074V11.924C37.4074 11.428 37.3074 11.064 37.1074 10.832C36.9154 10.6 36.6114 10.484 36.1954 10.484C35.7074 10.484 35.3154 10.636 35.0194 10.94C34.7234 11.244 34.5754 11.652 34.5754 12.164V15.5H33.3634V7.04H34.5754V10.532C34.7754 10.196 35.0434 9.94 35.3794 9.764C35.7154 9.588 36.0954 9.5 36.5194 9.5ZM42.7255 9.5C43.5095 9.5 44.0895 9.696 44.4655 10.088C44.8495 10.48 45.0415 11.076 45.0415 11.876V15.5H43.8775V14.528C43.7255 14.872 43.4975 15.136 43.1935 15.32C42.8975 15.496 42.5495 15.584 42.1495 15.584C41.7655 15.584 41.4135 15.508 41.0935 15.356C40.7735 15.196 40.5215 14.976 40.3375 14.696C40.1615 14.416 40.0735 14.104 40.0735 13.76C40.0735 13.336 40.1815 13.004 40.3975 12.764C40.6215 12.516 40.9855 12.34 41.4895 12.236C42.0015 12.132 42.7015 12.08 43.5895 12.08H43.8655V11.732C43.8655 11.284 43.7695 10.96 43.5775 10.76C43.3935 10.56 43.0895 10.46 42.6655 10.46C42.0015 10.46 41.3375 10.664 40.6735 11.072L40.3135 10.22C40.6255 10.004 41.0015 9.832 41.4415 9.704C41.8895 9.568 42.3175 9.5 42.7255 9.5ZM42.3655 14.684C42.8055 14.684 43.1655 14.536 43.4455 14.24C43.7255 13.936 43.8655 13.548 43.8655 13.076V12.764H43.6495C43.0255 12.764 42.5455 12.792 42.2095 12.848C41.8735 12.904 41.6335 13 41.4895 13.136C41.3455 13.264 41.2735 13.452 41.2735 13.7C41.2735 13.98 41.3735 14.216 41.5735 14.408C41.7815 14.592 42.0455 14.684 42.3655 14.684ZM50.2634 10.52L49.5314 10.592C48.9554 10.648 48.5394 10.824 48.2834 11.12C48.0354 11.416 47.9114 11.792 47.9114 12.248V15.5H46.6994V9.644H47.8754V10.664C48.1874 9.976 48.8234 9.596 49.7834 9.524L50.1794 9.5L50.2634 10.52ZM55.9927 12.776H51.8527C51.9407 14.016 52.5567 14.636 53.7007 14.636C54.3727 14.636 54.9807 14.416 55.5247 13.976L55.8967 14.828C55.6247 15.06 55.2887 15.244 54.8887 15.38C54.4887 15.516 54.0807 15.584 53.6647 15.584C52.7287 15.584 51.9887 15.316 51.4447 14.78C50.9087 14.244 50.6407 13.504 50.6407 12.56C50.6407 11.96 50.7567 11.428 50.9887 10.964C51.2287 10.5 51.5607 10.14 51.9847 9.884C52.4167 9.628 52.9047 9.5 53.4487 9.5C54.2407 9.5 54.8607 9.756 55.3087 10.268C55.7647 10.78 55.9927 11.488 55.9927 12.392V12.776ZM53.4727 10.388C53.0087 10.388 52.6367 10.536 52.3567 10.832C52.0847 11.12 51.9207 11.536 51.8647 12.08H54.9487C54.9247 11.536 54.7847 11.12 54.5287 10.832C54.2807 10.536 53.9287 10.388 53.4727 10.388Z" fill="#263238"/>
</svg>
