<svg width="198" height="108" viewBox="0 0 198 108" fill="none" xmlns="http://www.w3.org/2000/svg">
<path d="M91.9566 80.67V99H88.6806V91.044H79.2946V99H75.9926V80.67H79.2946V88.34H88.6806V80.67H91.9566ZM106.767 93.228H98.1089C98.2129 94.4067 98.5682 95.282 99.1749 95.854C99.7815 96.426 100.648 96.712 101.775 96.712C103.179 96.712 104.462 96.2613 105.623 95.36L106.559 97.596C105.97 98.0813 105.224 98.4713 104.323 98.766C103.439 99.0607 102.546 99.208 101.645 99.208C99.5649 99.208 97.9182 98.6187 96.7049 97.44C95.5089 96.2613 94.9109 94.6493 94.9109 92.604C94.9109 91.304 95.1709 90.1513 95.6909 89.146C96.2109 88.1407 96.9389 87.3607 97.8749 86.806C98.8282 86.2513 99.9029 85.974 101.099 85.974C102.85 85.974 104.228 86.5373 105.233 87.664C106.256 88.7907 106.767 90.342 106.767 92.318V93.228ZM101.177 88.262C100.31 88.262 99.6082 88.5393 99.0709 89.094C98.5509 89.6487 98.2302 90.446 98.1089 91.486H103.985C103.95 90.4287 103.69 89.6313 103.205 89.094C102.72 88.5393 102.044 88.262 101.177 88.262ZM109.425 80.67H112.675V99H109.425V80.67ZM123.333 85.974C124.425 85.974 125.396 86.2513 126.245 86.806C127.112 87.3607 127.779 88.1493 128.247 89.172C128.732 90.1773 128.975 91.3387 128.975 92.656C128.975 93.9733 128.732 95.126 128.247 96.114C127.779 97.102 127.12 97.8647 126.271 98.402C125.422 98.9393 124.442 99.208 123.333 99.208C122.432 99.208 121.626 99.0173 120.915 98.636C120.204 98.2547 119.658 97.726 119.277 97.05V103.68H116.027V86.286H119.225V88.21C119.606 87.4993 120.152 86.9533 120.863 86.572C121.591 86.1733 122.414 85.974 123.333 85.974ZM122.475 96.686C123.498 96.686 124.295 96.3393 124.867 95.646C125.439 94.9353 125.725 93.9387 125.725 92.656C125.725 91.3387 125.439 90.316 124.867 89.588C124.295 88.86 123.498 88.496 122.475 88.496C121.435 88.496 120.629 88.8513 120.057 89.562C119.502 90.2727 119.225 91.2867 119.225 92.604C119.225 93.904 119.502 94.9093 120.057 95.62C120.629 96.3307 121.435 96.686 122.475 96.686ZM138.987 80.67H145.747C148.745 80.67 151.068 81.476 152.715 83.088C154.379 84.6827 155.211 86.9273 155.211 89.822C155.211 92.7167 154.379 94.97 152.715 96.582C151.068 98.194 148.745 99 145.747 99H138.987V80.67ZM145.539 96.27C149.751 96.27 151.857 94.1207 151.857 89.822C151.857 85.5407 149.751 83.4 145.539 83.4H142.341V96.27H145.539ZM169.456 93.228H160.798C160.902 94.4067 161.258 95.282 161.864 95.854C162.471 96.426 163.338 96.712 164.464 96.712C165.868 96.712 167.151 96.2613 168.312 95.36L169.248 97.596C168.659 98.0813 167.914 98.4713 167.012 98.766C166.128 99.0607 165.236 99.208 164.334 99.208C162.254 99.208 160.608 98.6187 159.394 97.44C158.198 96.2613 157.6 94.6493 157.6 92.604C157.6 91.304 157.86 90.1513 158.38 89.146C158.9 88.1407 159.628 87.3607 160.564 86.806C161.518 86.2513 162.592 85.974 163.788 85.974C165.539 85.974 166.917 86.5373 167.922 87.664C168.945 88.7907 169.456 90.342 169.456 92.318V93.228ZM163.866 88.262C163 88.262 162.298 88.5393 161.76 89.094C161.24 89.6487 160.92 90.446 160.798 91.486H166.674C166.64 90.4287 166.38 89.6313 165.894 89.094C165.409 88.5393 164.733 88.262 163.866 88.262ZM176.795 99.208C175.668 99.208 174.628 99.0693 173.675 98.792C172.739 98.5147 171.941 98.116 171.283 97.596L172.193 95.334C173.545 96.322 175.096 96.816 176.847 96.816C177.592 96.816 178.155 96.6947 178.537 96.452C178.935 96.2093 179.135 95.8627 179.135 95.412C179.135 95.0307 178.996 94.736 178.719 94.528C178.459 94.32 177.982 94.1293 177.289 93.956L175.209 93.488C174.03 93.228 173.155 92.8033 172.583 92.214C172.011 91.6247 171.725 90.862 171.725 89.926C171.725 89.146 171.941 88.4613 172.375 87.872C172.825 87.2653 173.441 86.7973 174.221 86.468C175.018 86.1387 175.937 85.974 176.977 85.974C177.878 85.974 178.745 86.1127 179.577 86.39C180.426 86.6673 181.171 87.0573 181.813 87.56L180.903 89.77C179.585 88.8167 178.268 88.34 176.951 88.34C176.24 88.34 175.685 88.47 175.287 88.73C174.888 88.99 174.689 89.354 174.689 89.822C174.689 90.1687 174.81 90.4547 175.053 90.68C175.313 90.9053 175.72 91.0787 176.275 91.2L178.433 91.694C179.698 91.9713 180.625 92.4133 181.215 93.02C181.804 93.6093 182.099 94.3893 182.099 95.36C182.099 96.5387 181.622 97.4747 180.669 98.168C179.715 98.8613 178.424 99.208 176.795 99.208ZM193.444 99L187.984 93.202V99H184.734V80.67H187.984V91.85L193.106 86.312H197.058L191.338 92.396L197.474 99H193.444Z" fill="#263238"/>
<path d="M38.1348 0H32.8784V19.5966H38.1348V0Z" fill="#48FFD5"/>
<path d="M52.5537 8.33423V28.2142H18.4502V8.33423H23.8815V21.8954H47.307V8.33423H52.5537Z" fill="#48FFD5"/>
<path d="M1 16.6052H9.59875V71.7108H1V16.6052Z" fill="white" stroke="white" stroke-miterlimit="10"/>
<path d="M43.7707 32.3496H52.2237V55.8088C52.2289 57.7637 51.9837 59.71 51.495 61.5923C50.5215 65.3548 48.3549 68.6279 45.3739 70.8395C43.7194 72.0483 41.8658 72.9035 39.9134 73.3586V87.2977H31.4604V73.2852C29.6636 72.6825 27.9653 71.7794 26.4275 70.6086C24.9648 69.4872 23.6563 68.1479 22.541 66.6305C21.4288 65.1298 20.5524 63.4419 19.9468 61.6343C19.3312 59.7646 19.0221 57.7932 19.0335 55.8088V32.3496H27.7197V55.8088C27.7085 56.9698 27.9202 58.1206 28.3415 59.1886C28.7269 60.2089 29.291 61.1391 30.003 61.9282C30.7444 62.7316 31.6174 63.3794 32.5778 63.8385C33.5654 64.3122 34.6355 64.552 35.7161 64.5418C36.7804 64.544 37.8343 64.3156 38.8155 63.87C39.7822 63.4461 40.6608 62.818 41.4 62.0226C42.1338 61.2293 42.7266 60.2972 43.1489 59.2726C43.5874 58.2057 43.8094 57.0497 43.7998 55.8823L43.7707 32.3496Z" fill="white" stroke="white" stroke-miterlimit="10"/>
<path d="M99.1523 51.9463C99.1953 54.8452 98.6928 57.7234 97.6754 60.4063C96.6819 62.948 95.2284 65.2497 93.4004 67.1764C91.5866 69.1101 89.4459 70.6495 87.0946 71.7108C84.634 72.8242 81.9894 73.3849 79.3217 73.3587C76.6504 73.3827 74.0036 72.8073 71.5489 71.6688C66.8231 69.5025 63.0608 65.4381 61.0555 60.3328C60.0138 57.6763 59.4771 54.8208 59.4771 51.9358C59.4771 49.0508 60.0138 46.1952 61.0555 43.5387C63.0577 38.4336 66.8214 34.3715 71.5489 32.2132C74.0015 31.0664 76.6493 30.4872 79.3217 30.5128C81.4858 30.5302 83.6266 30.997 85.6275 31.8878C87.4831 32.6424 89.1978 33.7517 90.6896 35.1627V16.6052H99.1426L99.1523 51.9463ZM90.6993 51.9463C90.7022 50.3248 90.3945 48.7202 89.7957 47.2334C88.6301 44.2949 86.4627 41.9534 83.7426 40.6942C82.3517 40.0434 80.8521 39.7076 79.3363 39.7076C77.8206 39.7076 76.3209 40.0434 74.9301 40.6942C72.2048 41.9452 70.0349 44.2893 68.8769 47.2334C68.2745 48.736 67.9637 50.356 67.9637 51.9935C67.9637 53.6309 68.2745 55.251 68.8769 56.7536C69.4564 58.2055 70.2837 59.5265 71.3157 60.6477C72.3549 61.7656 73.5815 62.6596 74.9301 63.2823C76.3209 63.9331 77.8206 64.2689 79.3363 64.2689C80.8521 64.2689 82.3517 63.9331 83.7426 63.2823C85.0881 62.6594 86.3115 61.7653 87.3472 60.6477C88.3887 59.5047 89.2196 58.1582 89.7957 56.6801C90.395 55.1861 90.7026 53.5745 90.6993 51.9463Z" fill="white" stroke="white" stroke-miterlimit="10"/>
<path d="M131.876 32.3496H140.329V55.4415C140.344 57.8243 139.898 60.1843 139.017 62.369C138.164 64.486 136.967 66.4202 135.48 68.079C133.965 69.7623 132.152 71.0998 130.149 72.0121C128.146 72.9245 125.994 73.393 123.821 73.3901C121.615 73.4072 119.431 72.9245 117.408 71.9731C113.422 70.0886 110.245 66.6416 108.518 62.327C107.639 60.1306 107.193 57.7608 107.206 55.368V32.3496H115.659V55.4415C115.653 56.6096 115.878 57.7656 116.32 58.8318C116.742 59.8563 117.335 60.7885 118.069 61.5818C118.808 62.3772 119.687 63.0052 120.653 63.4291C121.657 63.88 122.734 64.1084 123.821 64.1009C124.885 64.1043 125.939 63.8758 126.92 63.4291C127.888 63.007 128.767 62.3787 129.505 61.5818C130.239 60.7885 130.831 59.8563 131.254 58.8318C131.696 57.7656 131.921 56.6096 131.914 55.4415L131.876 32.3496Z" fill="white" stroke="white" stroke-miterlimit="10"/>
<path d="M151.114 32.3496H180.408L162.841 62.5789H180.408V71.7107H147.228L164.717 41.4814H151.114V32.3496Z" fill="white" stroke="white" stroke-miterlimit="10"/>
</svg>
