<svg xmlns="http://www.w3.org/2000/svg" xmlns:xlink="http://www.w3.org/1999/xlink" viewBox="0 0 554.47 1065.86"><defs><style>.cls-1{fill:none;}.cls-2{fill:#5384c5;}.cls-3{fill:#aaa480;}.cls-4{clip-path:url(#clip-path);}.cls-5{fill:#d0c897;}.cls-6{fill:#ff9c37;}.cls-7{fill:#fdd880;}.cls-8{fill:#609ae6;}</style><clipPath id="clip-path"><ellipse class="cls-1" cx="277.23" cy="1027.96" rx="281.77" ry="36.05"/></clipPath></defs><title>Lamp Lightmode</title><g id="Layer_14" data-name="Layer 14"><path class="cls-2" d="M286.76,654.06l.58-561.81H308a46.66,46.66,0,0,0,46.65-46.59A46.67,46.67,0,0,0,391.71,0H162.76a46.66,46.66,0,0,0,36.76,45.59h-.45a46.66,46.66,0,0,0,46.65,46.66h22V654.56a79.91,79.91,0,0,1-5.41,29C208.19,822.63,4.88,700.63,0,1027.43v2.38H554.47v-2.38C549.6,701,346.71,822.36,292.32,684A81.76,81.76,0,0,1,286.76,654.06Z"/><ellipse class="cls-3" cx="277.23" cy="1027.96" rx="281.77" ry="36.05"/><g class="cls-4"><ellipse class="cls-5" cx="277.23" cy="1073.82" rx="159.84" ry="68.12"/><path class="cls-6" d="M351.72,991.91c0,27.81-33.35,50.36-74.49,50.36s-74.48-22.55-74.48-50.36Z"/><ellipse class="cls-7" cx="277.23" cy="1017.09" rx="37.64" ry="18.82"/></g><ellipse class="cls-8" cx="355.04" cy="846.11" rx="79.76" ry="166.51" transform="translate(-560.55 906.51) rotate(-71.01)"/><ellipse class="cls-8" cx="203.92" cy="926.45" rx="38.44" ry="73.28" transform="translate(-738.47 817.82) rotate(-71.01)"/></g></svg>