<svg xmlns="http://www.w3.org/2000/svg" xmlns:xlink="http://www.w3.org/1999/xlink" viewBox="0 0 3042.14 2539.72"><defs><style>.cls-1{fill:none;}.cls-2{opacity:0.27;fill:url(#linear-gradient);}.cls-3{fill:#5384c5;}.cls-4{fill:#aaa480;}.cls-5{clip-path:url(#clip-path);}.cls-6{fill:#d0c897;}.cls-7{fill:#ff9c37;}.cls-8{fill:#fdd880;}.cls-9{fill:#609ae6;}</style><linearGradient id="linear-gradient" x1="1521.07" y1="1012.99" x2="1521.07" y2="2539.72" gradientUnits="userSpaceOnUse"><stop offset="0" stop-color="#fdd880"/><stop offset="1" stop-color="#fdd880" stop-opacity="0"/></linearGradient><clipPath id="clip-path"><ellipse class="cls-1" cx="1552.9" cy="1027.96" rx="281.77" ry="36.05"/></clipPath></defs><title>Lamp Lightmode</title><g id="Layer_15" data-name="Layer 15"><polygon class="cls-2" points="3042.14 2539.72 0 2539.72 1315.13 1012.99 1795.08 1012.99 3042.14 2539.72"/></g><g id="Layer_14" data-name="Layer 14"><path class="cls-3" d="M1562.42,654.06,1563,92.25h20.67a46.66,46.66,0,0,0,46.66-46.59,46.67,46.67,0,0,0,37-45.66h-229a46.65,46.65,0,0,0,36.77,45.59h-.45a46.66,46.66,0,0,0,46.65,46.66h22V654.56a79.9,79.9,0,0,1-5.4,29c-54.13,139.07-257.45,17.07-262.32,343.87v2.38h554.47v-2.38C1825.27,701,1622.38,822.36,1568,684A81.56,81.56,0,0,1,1562.42,654.06Z"/><ellipse class="cls-4" cx="1552.9" cy="1027.96" rx="281.77" ry="36.05"/><g class="cls-5"><ellipse class="cls-6" cx="1552.9" cy="1073.82" rx="159.84" ry="68.12"/><path class="cls-7" d="M1627.39,991.91c0,27.81-33.35,50.36-74.49,50.36s-74.48-22.55-74.48-50.36Z"/><ellipse class="cls-8" cx="1552.9" cy="1017.09" rx="37.64" ry="18.82"/></g><ellipse class="cls-9" cx="1630.7" cy="846.11" rx="79.76" ry="166.51" transform="translate(300.03 2112.76) rotate(-71.01)"/><ellipse class="cls-9" cx="1479.59" cy="926.45" rx="38.44" ry="73.28" transform="translate(122.11 2024.07) rotate(-71.01)"/></g></svg>