<svg xmlns="http://www.w3.org/2000/svg" xmlns:xlink="http://www.w3.org/1999/xlink" viewBox="0 0 563.55 1064.01"><defs><style>.cls-1{fill:none;}.cls-2{fill:#5384c5;}.cls-3{fill:#a8a8a8;}.cls-4{clip-path:url(#clip-path);}.cls-5{fill:#cecece;}.cls-6{fill:#fff;}.cls-7{fill:#fcfcfc;}.cls-8{fill:#609ae6;}</style><clipPath id="clip-path"><ellipse class="cls-1" cx="281.77" cy="1027.96" rx="281.77" ry="36.05"/></clipPath></defs><title>Lamp Darkmode</title><g id="Layer_11_copy_2" data-name="Layer 11 copy 2"><path class="cls-2" d="M291.3,654.06l.58-561.81h20.68a46.66,46.66,0,0,0,46.65-46.59A46.67,46.67,0,0,0,396.25,0H167.3a46.66,46.66,0,0,0,36.76,45.59h-.45a46.66,46.66,0,0,0,46.65,46.66h22V654.56a79.9,79.9,0,0,1-5.4,29C212.73,822.63,9.42,700.63,4.54,1027.43v2.38H559v-2.38C554.14,701,351.25,822.36,296.86,684A81.55,81.55,0,0,1,291.3,654.06Z"/><ellipse class="cls-3" cx="281.77" cy="1027.96" rx="281.77" ry="36.05"/><g class="cls-4"><ellipse class="cls-5" cx="281.77" cy="1073.82" rx="159.84" ry="68.12"/><path class="cls-6" d="M356.26,991.91c0,27.81-33.35,50.36-74.49,50.36s-74.48-22.55-74.48-50.36Z"/><ellipse class="cls-7" cx="281.77" cy="1017.09" rx="37.64" ry="18.82"/></g><ellipse class="cls-8" cx="359.58" cy="846.11" rx="79.76" ry="166.51" transform="translate(-557.49 910.81) rotate(-71.01)"/><ellipse class="cls-8" cx="208.46" cy="926.45" rx="38.44" ry="73.28" transform="translate(-735.41 822.11) rotate(-71.01)"/></g></svg>