<svg xmlns="http://www.w3.org/2000/svg" viewBox="0 0 2768.21 858.39"><defs><style>.cls-1{fill:#03dac5;}.cls-2,.cls-4{fill:#fff;}.cls-2{stroke:#fff;stroke-miterlimit:10;}.cls-3{fill:#f44336;}.cls-4{isolation:isolate;font-size:190.09px;font-family:Nunito-Regular, Nunito;}</style></defs><title>Lyudz Beta Dark Mode</title><g id="Layer_2" data-name="Layer 2"><g id="Layer_1-2" data-name="Layer 1"><g id="Layer_2-2" data-name="Layer 2"><g id="Layer_1-2-2" data-name="Layer 1-2"><rect class="cls-1" x="343.05" width="56.5" height="194.94"/><polygon class="cls-1" points="554.53 82.9 554.53 280.6 188.06 280.6 188.06 82.9 246.41 82.9 246.41 217.84 498.11 217.84 498.11 82.9 554.53 82.9"/><path class="cls-2" d="M.5,154.7H92.9V702.84H.5Z"/><path class="cls-2" d="M460.15,311.31H551V544.67a210,210,0,0,1-7.88,57.54,168.15,168.15,0,0,1-24.42,51.3,164.92,164.92,0,0,1-41.35,40.71q-24.81,17.22-58.68,25.07v138.6H327.81V718.5a193.33,193.33,0,0,1-54-26.62,201.23,201.23,0,0,1-41.89-39.54,174.55,174.55,0,0,1-27.41-49.73,170.91,170.91,0,0,1-9.79-57.94V311.31h92.4V544.67a85.54,85.54,0,0,0,25.06,61.07,91.35,91.35,0,0,0,27.41,18.79,81,81,0,0,0,33.67,7.05,86.22,86.22,0,0,0,33.28-6.65,84.83,84.83,0,0,0,27.8-18.4,91.17,91.17,0,0,0,18.79-27.41,81.05,81.05,0,0,0,7-33.68Z"/><path class="cls-2" d="M1055.26,506.29q0,45.42-16.45,84.18a206.88,206.88,0,0,1-45.41,67.34,214.71,214.71,0,0,1-67.73,45q-38.77,16.44-83.4,16.45t-83.4-16.84A212.92,212.92,0,0,1,646.11,589.69q-16.83-38.76-16.83-83.4t16.83-83.39A212.81,212.81,0,0,1,758.87,310.14q38.77-16.83,83.4-16.83,33.66,0,67.74,13.7t54.41,32.49V154.7h90.84Zm-90.84,0a116.64,116.64,0,0,0-9.79-47.37,123.42,123.42,0,0,0-65-65,119.55,119.55,0,0,0-94.75,0,123.62,123.62,0,0,0-65,65,119.63,119.63,0,0,0,0,94.75,123.69,123.69,0,0,0,65,65,119.55,119.55,0,0,0,94.75,0,123.55,123.55,0,0,0,65-65,116.52,116.52,0,0,0,9.79-47.38Z"/><path class="cls-2" d="M1406.86,311.31h90.84V540.75a169.62,169.62,0,0,1-14.1,68.91,191.86,191.86,0,0,1-38,56.77,174.42,174.42,0,0,1-125.68,52.86,169.45,169.45,0,0,1-68.91-14.1,184.42,184.42,0,0,1-95.53-95.92,172.35,172.35,0,0,1-14.09-69.3V311.31h90.83V540.75a81,81,0,0,0,7,33.67A91.17,91.17,0,0,0,1258,601.83a84.68,84.68,0,0,0,27.8,18.4,88,88,0,0,0,34.06,6.66,86,86,0,0,0,33.28-6.66,84.83,84.83,0,0,0,27.8-18.4,91.17,91.17,0,0,0,18.79-27.41,81,81,0,0,0,7-33.67Z"/><path class="cls-2" d="M1613.57,311.31h314.8L1739.65,612h188.72v90.84H1572.08L1760,402.15H1613.57Z"/><path class="cls-3" d="M2049.9,33.17h596.78A121.53,121.53,0,0,1,2768.21,154.7h0a121.53,121.53,0,0,1-121.53,121.53H2049.9A121.53,121.53,0,0,1,1928.37,154.7h0A121.53,121.53,0,0,1,2049.9,33.17Z"/><text class="cls-4" transform="translate(2101.3 226.25) scale(1.03 1)">BETA</text></g></g></g></g></svg>