<svg xmlns="http://www.w3.org/2000/svg" viewBox="0 0 1929.27 861.18"><defs><style>.cls-1{fill:#03dac5;}.cls-2,.cls-4{fill:#fff;}.cls-2{stroke:#fff;stroke-miterlimit:10;}.cls-3{fill:#f44336;}.cls-4{font-size:100.11px;font-family:Nunito-Regular, Nunito;}</style></defs><title>Lyduz Dark Mode Beta</title><g id="Layer_2" data-name="Layer 2"><g id="Layer_1-2" data-name="Layer 1"><rect class="cls-1" x="343.05" width="56.5" height="194.94"/><polygon class="cls-1" points="554.53 82.9 554.53 280.6 188.06 280.6 188.06 82.9 246.41 82.9 246.41 217.84 498.11 217.84 498.11 82.9 554.53 82.9"/><path class="cls-2" d="M.5,154.7H92.9V702.84H.5Z"/><path class="cls-2" d="M460.15,311.31H551V544.67a209.9,209.9,0,0,1-7.88,57.54,168.32,168.32,0,0,1-24.42,51.3,165.07,165.07,0,0,1-41.35,40.71q-24.81,17.22-58.68,25.07v138.6H327.81V718.5a193.1,193.1,0,0,1-54-26.62,201.39,201.39,0,0,1-41.89-39.54,174.29,174.29,0,0,1-27.41-49.73,170.87,170.87,0,0,1-9.79-57.94V311.31h92.4V544.67a85.55,85.55,0,0,0,25.06,61.07,91.36,91.36,0,0,0,27.41,18.79,81.05,81.05,0,0,0,33.67,7.05,86.07,86.07,0,0,0,33.28-6.65,84.75,84.75,0,0,0,27.8-18.4,91.36,91.36,0,0,0,18.79-27.41,81.07,81.07,0,0,0,7-33.68Z"/><path class="cls-2" d="M1055.26,506.29q0,45.42-16.45,84.18a206.92,206.92,0,0,1-45.41,67.34,214.81,214.81,0,0,1-67.73,45q-38.77,16.44-83.4,16.45t-83.4-16.84A212.92,212.92,0,0,1,646.11,589.69q-16.83-38.76-16.83-83.4t16.83-83.39A212.83,212.83,0,0,1,758.87,310.14q38.77-16.83,83.4-16.83,33.66,0,67.74,13.7t54.41,32.49V154.7h90.84Zm-90.84,0a116.58,116.58,0,0,0-9.79-47.37,123.43,123.43,0,0,0-65-65,119.52,119.52,0,0,0-94.75,0,123.61,123.61,0,0,0-65,65,119.63,119.63,0,0,0,0,94.75,123.7,123.7,0,0,0,65,65,119.52,119.52,0,0,0,94.75,0,123.52,123.52,0,0,0,65-65A116.52,116.52,0,0,0,964.42,506.29Z"/><path class="cls-2" d="M1406.86,311.31h90.84V540.75a169.57,169.57,0,0,1-14.1,68.91,191.71,191.71,0,0,1-38,56.77,174,174,0,0,1-56.38,38.76,172.25,172.25,0,0,1-69.3,14.1,169.44,169.44,0,0,1-68.91-14.1,184.4,184.4,0,0,1-95.53-95.92,172.34,172.34,0,0,1-14.09-69.3V311.31h90.83V540.75a81.05,81.05,0,0,0,7,33.67,91.36,91.36,0,0,0,18.79,27.41,84.65,84.65,0,0,0,27.8,18.4,87.93,87.93,0,0,0,34.06,6.66,86.08,86.08,0,0,0,33.28-6.66,84.75,84.75,0,0,0,27.8-18.4,91.36,91.36,0,0,0,18.79-27.41,81.05,81.05,0,0,0,7-33.67Z"/><path class="cls-2" d="M1613.57,311.31h314.8L1739.65,612h188.72v90.84H1572.08L1760,402.15H1613.57Z"/><rect class="cls-3" x="1486.08" y="729.88" width="442.29" height="128" rx="64" ry="64"/><text class="cls-4" transform="translate(1577.15 831.56) scale(1.03 1)">BETA</text></g></g></svg>