<svg width="218" height="108" viewBox="0 0 218 108" fill="none" xmlns="http://www.w3.org/2000/svg">
<path d="M54.1264 80.67H62.1344C64.0931 80.67 65.6184 81.164 66.7104 82.152C67.8024 83.1227 68.3484 84.492 68.3484 86.26C68.3484 88.028 67.8024 89.406 66.7104 90.394C65.6184 91.382 64.0931 91.876 62.1344 91.876H57.4804V99H54.1264V80.67ZM61.7184 89.302C64.0237 89.302 65.1764 88.2967 65.1764 86.286C65.1764 85.2633 64.8904 84.5093 64.3184 84.024C63.7464 83.5213 62.8797 83.27 61.7184 83.27H57.4804V89.302H61.7184ZM79.1225 88.678L77.2245 88.86C75.0752 89.0853 74.0005 90.1773 74.0005 92.136V99H70.7505V86.286H73.8445V88.522C74.5032 86.9967 75.8639 86.1647 77.9265 86.026L78.9145 85.948L79.1225 88.678ZM80.7037 99V86.286H83.9537V99H80.7037ZM80.5217 80.384H84.1097V83.582H80.5217V80.384ZM96.2232 86.312H99.4212L93.8572 99H91.0232L85.5112 86.312H88.9432L92.5312 95.282L96.2232 86.312ZM106.273 85.974C108.058 85.974 109.384 86.4073 110.251 87.274C111.118 88.1407 111.551 89.4753 111.551 91.278V99H108.457V97.05C108.162 97.726 107.694 98.2547 107.053 98.636C106.429 99.0173 105.701 99.208 104.869 99.208C104.02 99.208 103.248 99.0347 102.555 98.688C101.862 98.3413 101.316 97.8647 100.917 97.258C100.518 96.6513 100.319 95.9753 100.319 95.23C100.319 94.294 100.553 93.5573 101.021 93.02C101.506 92.4827 102.286 92.0927 103.361 91.85C104.436 91.6073 105.918 91.486 107.807 91.486H108.457V90.888C108.457 90.0213 108.266 89.3973 107.885 89.016C107.521 88.6347 106.906 88.444 106.039 88.444C105.363 88.444 104.652 88.5653 103.907 88.808C103.179 89.0333 102.46 89.354 101.749 89.77L100.839 87.534C101.55 87.0833 102.408 86.7107 103.413 86.416C104.418 86.1213 105.372 85.974 106.273 85.974ZM105.519 96.868C106.386 96.868 107.088 96.582 107.625 96.01C108.18 95.4207 108.457 94.6667 108.457 93.748V93.202H107.989C106.828 93.202 105.926 93.254 105.285 93.358C104.644 93.462 104.184 93.644 103.907 93.904C103.63 94.164 103.491 94.5193 103.491 94.97C103.491 95.5247 103.682 95.984 104.063 96.348C104.444 96.6947 104.93 96.868 105.519 96.868ZM120.652 99.208C119.317 99.208 118.156 98.9393 117.168 98.402C116.197 97.8647 115.452 97.102 114.932 96.114C114.412 95.126 114.152 93.9733 114.152 92.656C114.152 91.3387 114.421 90.1773 114.958 89.172C115.513 88.1493 116.293 87.3607 117.298 86.806C118.303 86.2513 119.465 85.974 120.782 85.974C121.683 85.974 122.559 86.1213 123.408 86.416C124.275 86.6933 124.968 87.0747 125.488 87.56L124.552 89.848C124.015 89.4147 123.443 89.0853 122.836 88.86C122.247 88.6347 121.657 88.522 121.068 88.522C119.941 88.522 119.066 88.8773 118.442 89.588C117.818 90.2813 117.506 91.2867 117.506 92.604C117.506 93.904 117.818 94.9093 118.442 95.62C119.066 96.3133 119.941 96.66 121.068 96.66C121.657 96.66 122.247 96.5473 122.836 96.322C123.443 96.0967 124.015 95.7673 124.552 95.334L125.488 97.596C124.933 98.0987 124.223 98.4973 123.356 98.792C122.489 99.0693 121.588 99.208 120.652 99.208ZM136.467 86.312H139.665L132.021 103.68H128.745L131.059 98.506L125.755 86.312H129.187L132.775 95.282L136.467 86.312ZM148.58 80.67H156.588C158.546 80.67 160.072 81.164 161.164 82.152C162.256 83.1227 162.802 84.492 162.802 86.26C162.802 88.028 162.256 89.406 161.164 90.394C160.072 91.382 158.546 91.876 156.588 91.876H151.934V99H148.58V80.67ZM156.172 89.302C158.477 89.302 159.63 88.2967 159.63 86.286C159.63 85.2633 159.344 84.5093 158.772 84.024C158.2 83.5213 157.333 83.27 156.172 83.27H151.934V89.302H156.172ZM170.799 99.208C169.499 99.208 168.355 98.9393 167.367 98.402C166.396 97.8647 165.642 97.0933 165.105 96.088C164.567 95.0827 164.299 93.9127 164.299 92.578C164.299 91.2433 164.567 90.082 165.105 89.094C165.642 88.0887 166.396 87.3173 167.367 86.78C168.355 86.2427 169.499 85.974 170.799 85.974C172.099 85.974 173.234 86.2427 174.205 86.78C175.193 87.3173 175.947 88.0887 176.467 89.094C177.004 90.082 177.273 91.2433 177.273 92.578C177.273 93.9127 177.004 95.0827 176.467 96.088C175.947 97.0933 175.193 97.8647 174.205 98.402C173.234 98.9393 172.099 99.208 170.799 99.208ZM170.773 96.686C171.83 96.686 172.636 96.3393 173.191 95.646C173.745 94.9527 174.023 93.93 174.023 92.578C174.023 91.2433 173.745 90.2293 173.191 89.536C172.636 88.8253 171.839 88.47 170.799 88.47C169.759 88.47 168.953 88.8253 168.381 89.536C167.826 90.2293 167.549 91.2433 167.549 92.578C167.549 93.93 167.826 94.9527 168.381 95.646C168.935 96.3393 169.733 96.686 170.773 96.686ZM179.956 99V80.67H183.206V99H179.956ZM186.557 99V86.286H189.807V99H186.557ZM186.375 80.384H189.963V83.582H186.375V80.384ZM198.957 99.208C197.622 99.208 196.461 98.9393 195.473 98.402C194.502 97.8647 193.757 97.102 193.237 96.114C192.717 95.126 192.457 93.9733 192.457 92.656C192.457 91.3387 192.725 90.1773 193.263 89.172C193.817 88.1493 194.597 87.3607 195.603 86.806C196.608 86.2513 197.769 85.974 199.087 85.974C199.988 85.974 200.863 86.1213 201.713 86.416C202.579 86.6933 203.273 87.0747 203.793 87.56L202.857 89.848C202.319 89.4147 201.747 89.0853 201.141 88.86C200.551 88.6347 199.962 88.522 199.373 88.522C198.246 88.522 197.371 88.8773 196.747 89.588C196.123 90.2813 195.811 91.2867 195.811 92.604C195.811 93.904 196.123 94.9093 196.747 95.62C197.371 96.3133 198.246 96.66 199.373 96.66C199.962 96.66 200.551 96.5473 201.141 96.322C201.747 96.0967 202.319 95.7673 202.857 95.334L203.793 97.596C203.238 98.0987 202.527 98.4973 201.661 98.792C200.794 99.0693 199.893 99.208 198.957 99.208ZM214.772 86.312H217.97L210.326 103.68H207.05L209.364 98.506L204.06 86.312H207.492L211.08 95.282L214.772 86.312Z" fill="#263238"/>
<path d="M38.1351 0H32.8787V19.5966H38.1351V0Z" fill="#48FFD5"/>
<path d="M52.5535 8.33423V28.2142H18.45V8.33423H23.8812V21.8954H47.3068V8.33423H52.5535Z" fill="#48FFD5"/>
<path d="M1 16.6052H9.59875V71.7108H1V16.6052Z" fill="white" stroke="white" stroke-miterlimit="10"/>
<path d="M43.7707 32.3496H52.2237V55.8088C52.2289 57.7637 51.9837 59.71 51.495 61.5923C50.5215 65.3548 48.3549 68.6279 45.3739 70.8395C43.7194 72.0483 41.8658 72.9035 39.9134 73.3586V87.2977H31.4604V73.2852C29.6636 72.6825 27.9653 71.7794 26.4275 70.6086C24.9648 69.4872 23.6563 68.1479 22.541 66.6305C21.4288 65.1298 20.5524 63.4419 19.9468 61.6343C19.3312 59.7646 19.0221 57.7932 19.0335 55.8088V32.3496H27.7197V55.8088C27.7085 56.9698 27.9202 58.1206 28.3415 59.1886C28.7269 60.2089 29.291 61.1391 30.003 61.9282C30.7444 62.7316 31.6174 63.3794 32.5778 63.8385C33.5654 64.3122 34.6355 64.552 35.7161 64.5418C36.7804 64.544 37.8343 64.3156 38.8155 63.87C39.7822 63.4461 40.6608 62.818 41.4 62.0226C42.1338 61.2293 42.7266 60.2972 43.1489 59.2726C43.5874 58.2057 43.8094 57.0497 43.7998 55.8823L43.7707 32.3496Z" fill="white" stroke="white" stroke-miterlimit="10"/>
<path d="M99.152 51.9463C99.195 54.8452 98.6926 57.7234 97.6752 60.4063C96.6816 62.948 95.2282 65.2497 93.4001 67.1764C91.5864 69.1101 89.4457 70.6495 87.0944 71.7108C84.6338 72.8242 81.9891 73.3849 79.3215 73.3587C76.6502 73.3827 74.0034 72.8073 71.5486 71.6688C66.8228 69.5025 63.0605 65.4381 61.0552 60.3328C60.0136 57.6763 59.4768 54.8208 59.4768 51.9358C59.4768 49.0508 60.0136 46.1952 61.0552 43.5387C63.0574 38.4336 66.8212 34.3715 71.5486 32.2132C74.0013 31.0664 76.6491 30.4872 79.3215 30.5128C81.4856 30.5302 83.6264 30.997 85.6272 31.8878C87.4829 32.6424 89.1976 33.7517 90.6893 35.1627V16.6052H99.1423L99.152 51.9463ZM90.699 51.9463C90.7019 50.3248 90.3943 48.7202 89.7954 47.2334C88.6299 44.2949 86.4624 41.9534 83.7423 40.6942C82.3514 40.0434 80.8518 39.7076 79.3361 39.7076C77.8203 39.7076 76.3207 40.0434 74.9298 40.6942C72.2045 41.9452 70.0346 44.2893 68.8767 47.2334C68.2743 48.736 67.9634 50.356 67.9634 51.9935C67.9634 53.6309 68.2743 55.251 68.8767 56.7536C69.4562 58.2055 70.2835 59.5265 71.3154 60.6477C72.3547 61.7656 73.5813 62.6596 74.9298 63.2823C76.3207 63.9331 77.8203 64.2689 79.3361 64.2689C80.8518 64.2689 82.3514 63.9331 83.7423 63.2823C85.0879 62.6594 86.3112 61.7653 87.347 60.6477C88.3884 59.5047 89.2193 58.1582 89.7954 56.6801C90.3948 55.1861 90.7024 53.5745 90.699 51.9463Z" fill="white" stroke="white" stroke-miterlimit="10"/>
<path d="M131.876 32.3496H140.329V55.4415C140.344 57.8243 139.898 60.1843 139.017 62.369C138.164 64.486 136.967 66.4202 135.48 68.079C133.965 69.7623 132.152 71.0998 130.149 72.0121C128.146 72.9245 125.994 73.393 123.821 73.3901C121.615 73.4072 119.431 72.9245 117.408 71.9731C113.422 70.0886 110.245 66.6416 108.518 62.327C107.639 60.1306 107.193 57.7608 107.206 55.368V32.3496H115.659V55.4415C115.653 56.6096 115.878 57.7656 116.32 58.8318C116.742 59.8563 117.335 60.7885 118.069 61.5818C118.808 62.3772 119.687 63.0052 120.653 63.4291C121.657 63.88 122.734 64.1084 123.821 64.1009C124.885 64.1043 125.939 63.8758 126.92 63.4291C127.888 63.007 128.767 62.3787 129.505 61.5818C130.239 60.7885 130.831 59.8563 131.254 58.8318C131.696 57.7656 131.921 56.6096 131.914 55.4415L131.876 32.3496Z" fill="white" stroke="white" stroke-miterlimit="10"/>
<path d="M151.114 32.3496H180.408L162.841 62.5789H180.408V71.7107H147.228L164.717 41.4814H151.114V32.3496Z" fill="white" stroke="white" stroke-miterlimit="10"/>
</svg>
