<svg width="217" height="108" viewBox="0 0 217 108" fill="none" xmlns="http://www.w3.org/2000/svg">
<path d="M60.6943 99V83.426H54.7143V80.67H70.0283V83.426H64.0483V99H60.6943ZM81.1604 93.228H72.5024C72.6064 94.4067 72.9617 95.282 73.5684 95.854C74.1751 96.426 75.0417 96.712 76.1684 96.712C77.5724 96.712 78.8551 96.2613 80.0164 95.36L80.9524 97.596C80.3631 98.0813 79.6177 98.4713 78.7164 98.766C77.8324 99.0607 76.9397 99.208 76.0384 99.208C73.9584 99.208 72.3117 98.6187 71.0984 97.44C69.9024 96.2613 69.3044 94.6493 69.3044 92.604C69.3044 91.304 69.5644 90.1513 70.0844 89.146C70.6044 88.1407 71.3324 87.3607 72.2684 86.806C73.2217 86.2513 74.2964 85.974 75.4924 85.974C77.2431 85.974 78.6211 86.5373 79.6264 87.664C80.6491 88.7907 81.1604 90.342 81.1604 92.318V93.228ZM75.5704 88.262C74.7037 88.262 74.0017 88.5393 73.4644 89.094C72.9444 89.6487 72.6237 90.446 72.5024 91.486H78.3784C78.3437 90.4287 78.0837 89.6313 77.5984 89.094C77.1131 88.5393 76.4371 88.262 75.5704 88.262ZM92.1909 88.678L90.2929 88.86C88.1436 89.0853 87.0689 90.1773 87.0689 92.136V99H83.8189V86.286H86.9129V88.522C87.5716 86.9967 88.9322 86.1647 90.9949 86.026L91.9829 85.948L92.1909 88.678ZM108.878 85.974C110.317 85.974 111.391 86.4073 112.102 87.274C112.813 88.1233 113.168 89.432 113.168 91.2V99H109.918V91.33C109.918 90.3593 109.753 89.6573 109.424 89.224C109.095 88.7733 108.566 88.548 107.838 88.548C106.971 88.548 106.295 88.8427 105.81 89.432C105.325 90.0213 105.082 90.8447 105.082 91.902V99H101.832V91.33C101.832 90.3593 101.667 89.6573 101.338 89.224C101.026 88.7733 100.497 88.548 99.752 88.548C98.9027 88.548 98.2354 88.8427 97.75 89.432C97.2647 90.0213 97.022 90.8447 97.022 91.902V99H93.772V86.286H96.944V88.08C97.3254 87.3867 97.854 86.8667 98.53 86.52C99.206 86.156 99.9774 85.974 100.844 85.974C102.768 85.974 104.042 86.7713 104.666 88.366C105.065 87.6207 105.637 87.04 106.382 86.624C107.127 86.1907 107.959 85.974 108.878 85.974ZM121.151 99.208C120.025 99.208 118.985 99.0693 118.031 98.792C117.095 98.5147 116.298 98.116 115.639 97.596L116.549 95.334C117.901 96.322 119.453 96.816 121.203 96.816C121.949 96.816 122.512 96.6947 122.893 96.452C123.292 96.2093 123.491 95.8627 123.491 95.412C123.491 95.0307 123.353 94.736 123.075 94.528C122.815 94.32 122.339 94.1293 121.645 93.956L119.565 93.488C118.387 93.228 117.511 92.8033 116.939 92.214C116.367 91.6247 116.081 90.862 116.081 89.926C116.081 89.146 116.298 88.4613 116.731 87.872C117.182 87.2653 117.797 86.7973 118.577 86.468C119.375 86.1387 120.293 85.974 121.333 85.974C122.235 85.974 123.101 86.1127 123.933 86.39C124.783 86.6673 125.528 87.0573 126.169 87.56L125.259 89.77C123.942 88.8167 122.625 88.34 121.307 88.34C120.597 88.34 120.042 88.47 119.643 88.73C119.245 88.99 119.045 89.354 119.045 89.822C119.045 90.1687 119.167 90.4547 119.409 90.68C119.669 90.9053 120.077 91.0787 120.631 91.2L122.789 91.694C124.055 91.9713 124.982 92.4133 125.571 93.02C126.161 93.6093 126.455 94.3893 126.455 95.36C126.455 96.5387 125.979 97.4747 125.025 98.168C124.072 98.8613 122.781 99.208 121.151 99.208ZM144.599 99.234C142.814 99.234 141.262 98.8527 139.945 98.09C138.645 97.3273 137.64 96.2353 136.929 94.814C136.218 93.3927 135.863 91.7287 135.863 89.822C135.863 87.9153 136.21 86.26 136.903 84.856C137.614 83.4347 138.628 82.3427 139.945 81.58C141.262 80.8173 142.814 80.436 144.599 80.436C146.384 80.436 147.927 80.8173 149.227 81.58C150.544 82.3427 151.55 83.4347 152.243 84.856C152.954 86.26 153.309 87.9153 153.309 89.822C153.309 91.7287 152.954 93.3927 152.243 94.814C151.532 96.2353 150.518 97.3273 149.201 98.09C147.901 98.8527 146.367 99.234 144.599 99.234ZM144.599 96.556C146.28 96.556 147.589 95.9753 148.525 94.814C149.478 93.6527 149.955 91.9887 149.955 89.822C149.955 87.6553 149.478 86 148.525 84.856C147.589 83.6947 146.28 83.114 144.599 83.114C142.9 83.114 141.574 83.6947 140.621 84.856C139.685 86 139.217 87.6553 139.217 89.822C139.217 91.9887 139.685 93.6527 140.621 94.814C141.574 95.9753 142.9 96.556 144.599 96.556ZM160.545 86.286H163.899V88.73H160.545V99H157.295V88.73H154.851V86.286H157.295C157.295 84.466 157.763 83.0967 158.699 82.178C159.652 81.2593 161.125 80.748 163.119 80.644L164.393 80.566L164.601 82.984L163.379 83.036C162.356 83.088 161.628 83.322 161.195 83.738C160.761 84.1367 160.545 84.7867 160.545 85.688V86.286ZM180.64 99.234C178.126 99.234 176.22 98.584 174.92 97.284C173.62 95.984 172.97 94.086 172.97 91.59V80.67H176.246V91.772C176.246 93.3493 176.618 94.5453 177.364 95.36C178.109 96.1573 179.201 96.556 180.64 96.556C182.061 96.556 183.144 96.1487 183.89 95.334C184.635 94.5193 185.008 93.332 185.008 91.772V80.67H188.284V91.59C188.284 94.0687 187.634 95.9667 186.334 97.284C185.034 98.584 183.136 99.234 180.64 99.234ZM196.536 99.208C195.409 99.208 194.369 99.0693 193.416 98.792C192.48 98.5147 191.683 98.116 191.024 97.596L191.934 95.334C193.286 96.322 194.837 96.816 196.588 96.816C197.333 96.816 197.897 96.6947 198.278 96.452C198.677 96.2093 198.876 95.8627 198.876 95.412C198.876 95.0307 198.737 94.736 198.46 94.528C198.2 94.32 197.723 94.1293 197.03 93.956L194.95 93.488C193.771 93.228 192.896 92.8033 192.324 92.214C191.752 91.6247 191.466 90.862 191.466 89.926C191.466 89.146 191.683 88.4613 192.116 87.872C192.567 87.2653 193.182 86.7973 193.962 86.468C194.759 86.1387 195.678 85.974 196.718 85.974C197.619 85.974 198.486 86.1127 199.318 86.39C200.167 86.6673 200.913 87.0573 201.554 87.56L200.644 89.77C199.327 88.8167 198.009 88.34 196.692 88.34C195.981 88.34 195.427 88.47 195.028 88.73C194.629 88.99 194.43 89.354 194.43 89.822C194.43 90.1687 194.551 90.4547 194.794 90.68C195.054 90.9053 195.461 91.0787 196.016 91.2L198.174 91.694C199.439 91.9713 200.367 92.4133 200.956 93.02C201.545 93.6093 201.84 94.3893 201.84 95.36C201.84 96.5387 201.363 97.4747 200.41 98.168C199.457 98.8613 198.165 99.208 196.536 99.208ZM215.629 93.228H206.971C207.075 94.4067 207.43 95.282 208.037 95.854C208.644 96.426 209.51 96.712 210.637 96.712C212.041 96.712 213.324 96.2613 214.485 95.36L215.421 97.596C214.832 98.0813 214.086 98.4713 213.185 98.766C212.301 99.0607 211.408 99.208 210.507 99.208C208.427 99.208 206.78 98.6187 205.567 97.44C204.371 96.2613 203.773 94.6493 203.773 92.604C203.773 91.304 204.033 90.1513 204.553 89.146C205.073 88.1407 205.801 87.3607 206.737 86.806C207.69 86.2513 208.765 85.974 209.961 85.974C211.712 85.974 213.09 86.5373 214.095 87.664C215.118 88.7907 215.629 90.342 215.629 92.318V93.228ZM210.039 88.262C209.172 88.262 208.47 88.5393 207.933 89.094C207.413 89.6487 207.092 90.446 206.971 91.486H212.847C212.812 90.4287 212.552 89.6313 212.067 89.094C211.582 88.5393 210.906 88.262 210.039 88.262Z" fill="#263238"/>
<path d="M38.135 0H32.8786V19.5966H38.135V0Z" fill="#48FFD5"/>
<path d="M52.5535 8.33423V28.2142H18.45V8.33423H23.8813V21.8954H47.3068V8.33423H52.5535Z" fill="#48FFD5"/>
<path d="M1 16.6052H9.59875V71.7108H1V16.6052Z" fill="white" stroke="white" stroke-miterlimit="10"/>
<path d="M43.7706 32.3496H52.2236V55.8088C52.2288 57.7637 51.9835 59.71 51.4949 61.5923C50.5214 65.3548 48.3548 68.6279 45.3737 70.8395C43.7193 72.0483 41.8657 72.9035 39.9133 73.3586V87.2977H31.4603V73.2852C29.6635 72.6825 27.9652 71.7794 26.4273 70.6086C24.9647 69.4872 23.6562 68.1479 22.5409 66.6305C21.4287 65.1298 20.5523 63.4419 19.9467 61.6343C19.3311 59.7646 19.022 57.7932 19.0334 55.8088V32.3496H27.7196V55.8088C27.7083 56.9698 27.9201 58.1206 28.3414 59.1886C28.7267 60.2089 29.2909 61.1391 30.0029 61.9282C30.7443 62.7316 31.6173 63.3794 32.5776 63.8385C33.5653 64.3122 34.6354 64.552 35.7159 64.5418C36.7803 64.544 37.8342 64.3156 38.8154 63.87C39.782 63.4461 40.6607 62.818 41.3998 62.0226C42.1337 61.2293 42.7265 60.2972 43.1487 59.2726C43.5873 58.2057 43.8092 57.0497 43.7997 55.8823L43.7706 32.3496Z" fill="white" stroke="white" stroke-miterlimit="10"/>
<path d="M99.152 51.9463C99.195 54.8452 98.6926 57.7234 97.6752 60.4063C96.6816 62.948 95.2282 65.2497 93.4001 67.1764C91.5864 69.1101 89.4457 70.6495 87.0944 71.7108C84.6338 72.8242 81.9891 73.3849 79.3215 73.3587C76.6502 73.3827 74.0034 72.8073 71.5486 71.6688C66.8228 69.5025 63.0605 65.4381 61.0552 60.3328C60.0136 57.6763 59.4768 54.8208 59.4768 51.9358C59.4768 49.0508 60.0136 46.1952 61.0552 43.5387C63.0574 38.4336 66.8212 34.3715 71.5486 32.2132C74.0013 31.0664 76.6491 30.4872 79.3215 30.5128C81.4856 30.5302 83.6264 30.997 85.6272 31.8878C87.4829 32.6424 89.1976 33.7517 90.6893 35.1627V16.6052H99.1423L99.152 51.9463ZM90.699 51.9463C90.7019 50.3248 90.3943 48.7202 89.7954 47.2334C88.6299 44.2949 86.4624 41.9534 83.7423 40.6942C82.3514 40.0434 80.8518 39.7076 79.3361 39.7076C77.8203 39.7076 76.3207 40.0434 74.9298 40.6942C72.2045 41.9452 70.0346 44.2893 68.8767 47.2334C68.2743 48.736 67.9634 50.356 67.9634 51.9935C67.9634 53.6309 68.2743 55.251 68.8767 56.7536C69.4562 58.2055 70.2835 59.5265 71.3154 60.6477C72.3547 61.7656 73.5813 62.6596 74.9298 63.2823C76.3207 63.9331 77.8203 64.2689 79.3361 64.2689C80.8518 64.2689 82.3514 63.9331 83.7423 63.2823C85.0879 62.6594 86.3112 61.7653 87.347 60.6477C88.3884 59.5047 89.2193 58.1582 89.7954 56.6801C90.3948 55.1861 90.7024 53.5745 90.699 51.9463Z" fill="white" stroke="white" stroke-miterlimit="10"/>
<path d="M131.876 32.3496H140.329V55.4415C140.344 57.8243 139.898 60.1843 139.017 62.369C138.165 64.486 136.967 66.4202 135.48 68.079C133.965 69.7623 132.152 71.0998 130.149 72.0121C128.146 72.9245 125.995 73.393 123.821 73.3901C121.615 73.4072 119.431 72.9245 117.408 71.9731C113.422 70.0886 110.245 66.6416 108.518 62.327C107.639 60.1306 107.193 57.7608 107.206 55.368V32.3496H115.659V55.4415C115.653 56.6096 115.878 57.7656 116.32 58.8318C116.742 59.8563 117.335 60.7885 118.069 61.5818C118.808 62.3772 119.687 63.0052 120.654 63.4291C121.657 63.88 122.734 64.1084 123.821 64.1009C124.885 64.1043 125.94 63.8758 126.92 63.4291C127.888 63.007 128.767 62.3787 129.505 61.5818C130.239 60.7885 130.831 59.8563 131.254 58.8318C131.696 57.7656 131.921 56.6096 131.914 55.4415L131.876 32.3496Z" fill="white" stroke="white" stroke-miterlimit="10"/>
<path d="M151.114 32.3496H180.408L162.841 62.5789H180.408V71.7107H147.228L164.717 41.4814H151.114V32.3496Z" fill="white" stroke="white" stroke-miterlimit="10"/>
</svg>
