<svg width="187" height="187" viewBox="0 0 187 187" fill="none" xmlns="http://www.w3.org/2000/svg">
<path d="M165.52 63.6901C158.119 45.8237 144.338 31.3487 126.856 23.0806C109.374 14.8124 89.4418 13.3423 70.936 18.9562C52.4303 24.5701 36.6742 36.8665 26.7324 53.4538C16.7907 70.0411 13.374 89.7333 17.147 108.7C20.92 127.667 31.613 144.552 47.146 156.072C62.679 167.592 81.9415 172.922 101.187 171.026C120.432 169.131 138.284 160.144 151.271 145.815C164.258 131.486 171.45 112.839 171.45 93.5001C171.452 83.2702 169.437 73.1404 165.52 63.6901ZM137.62 137.56C127.427 147.754 114.014 154.097 99.6677 155.51C85.3214 156.923 70.9289 153.318 58.9426 145.309C46.9563 137.301 38.1178 125.383 33.9331 111.588C29.7484 97.7933 30.4763 82.9741 35.9929 69.6557C41.5095 56.3372 51.4735 45.3436 64.187 38.548C76.9005 31.7524 91.577 29.5753 105.716 32.3876C119.855 35.1999 132.581 42.8276 141.726 53.9711C150.871 65.1146 155.87 79.0843 155.87 93.5001C155.869 110.026 149.304 125.874 137.62 137.56V137.56Z" fill="#F44336"/>
<path d="M134.79 119.94C135.73 129.89 124.37 138.1 116.79 138.57C112.64 138.83 108.79 137.79 105.03 136.57C102.31 135.65 99.54 134.86 96.85 133.9C94.4543 133.043 91.8357 133.043 89.44 133.9C85.74 135.13 81.97 136.25 78.29 137.48C70.16 140.17 63.29 138.62 57.29 133.08C54.9475 131.133 53.1444 128.617 52.0535 125.774C50.9626 122.93 50.6205 119.854 51.06 116.84C51.64 112.72 54.21 109.64 57.93 107.27C59.3101 106.335 60.7769 105.535 62.31 104.88C69.7163 102.048 76.4081 97.6198 81.91 91.9099C83.0963 90.7633 84.4439 89.7964 85.91 89.0399C92.23 85.5499 96.77 85.7699 104.46 91.6099C108.53 94.6899 112.19 98.1999 116.4 101.12C119.3 103.12 122.87 104.4 126.06 106.12C132 109.33 135.35 113.83 134.79 119.94Z" fill="#F44336"/>
<path d="M84.64 70.5001C84.74 57.5801 101.01 59.3701 101.49 71.7601C102.05 86.4701 84.8 86.2301 84.64 70.5001Z" fill="#F44336"/>
<path d="M121.31 79.2802C121.13 83.0502 120.56 86.7302 117.16 89.5302C114.09 92.0802 110.6 91.7202 108.27 88.6102C104.4 83.4802 105.49 73.6102 110.42 69.2102C112.84 67.0502 115.78 67.0702 118.01 69.3802C120.77 72.2402 121.17 75.7102 121.31 79.2802Z" fill="#F44336"/>
<path d="M68.19 70.5299C74.52 59.2099 89.51 86.6399 75.9 90.5999C64.63 93.8799 65.18 75.9199 68.19 70.5299Z" fill="#F44336"/>
<path d="M48.33 92.0798C49.52 77.8898 66.83 82.3498 64.04 95.5198C61.28 108.53 47.46 102.54 48.33 92.0798Z" fill="#F44336"/>
<path d="M138.77 92.0798C139.12 95.5098 137.51 98.5598 135.21 101.23C131.74 105.23 126.49 104.81 124.35 100.13C121.75 94.4298 122.6 88.9998 127 84.1998C130.21 80.6598 134.59 81.1998 136.68 85.3298C137.783 87.4334 138.491 89.7211 138.77 92.0798V92.0798Z" fill="#F44336"/>
<path d="M96 59.4898C93.4 58.6098 90.61 58.4298 87.92 60.4398C88.41 54.8998 91.68 51.1798 96 48.2798V59.4898Z" fill="#F44336"/>
<path d="M57.36 80.0801L51 81.1501C50.8 77.1501 53.11 73.8801 56.15 71.3901L57.36 80.0801Z" fill="#F44336"/>
<path d="M135.53 79.32L129 78.48C129.25 75.9 129.54 72.93 129.83 70C131.446 70.9958 132.804 72.3588 133.795 73.9782C134.785 75.5976 135.38 77.4277 135.53 79.32Z" fill="#F44336"/>
<path d="M74.4 56.4702C74.68 59.5402 74.94 62.6002 75.18 65.3702L69 66.1002C69.1187 64.1925 69.6658 62.336 70.6007 60.6688C71.5356 59.0016 72.8342 57.5665 74.4 56.4702Z" fill="#F44336"/>
<path d="M112.74 56.0898C114.292 57.1912 115.58 58.6221 116.514 60.2801C117.448 61.938 118.003 63.782 118.14 65.6798L111.94 64.9498C112.19 62.2398 112.46 59.1398 112.74 56.0898Z" fill="#F44336"/>
</svg>
