<svg width="37" height="37" viewBox="0 0 37 37" fill="none" xmlns="http://www.w3.org/2000/svg">
<path d="M18.4995 -6.10352e-05C14.8406 -6.10352e-05 11.2638 1.08494 8.22147 3.11775C5.17916 5.15056 2.80797 8.03986 1.40775 11.4203C0.00752748 14.8007 -0.358834 18.5205 0.354992 22.1091C1.06882 25.6978 2.83077 28.9941 5.41804 31.5814C8.00532 34.1687 11.3017 35.9306 14.8903 36.6445C18.479 37.3583 22.1987 36.9919 25.5792 35.5917C28.9596 34.1915 31.8489 31.8203 33.8817 28.778C35.9145 25.7357 36.9995 22.1589 36.9995 18.4999C36.9995 13.5934 35.0504 8.88789 31.581 5.41846C28.1116 1.94904 23.406 -6.10352e-05 18.4995 -6.10352e-05V-6.10352e-05ZM18.4995 35.0213C15.2319 35.0213 12.0377 34.0524 9.32073 32.237C6.6038 30.4216 4.48621 27.8413 3.23575 24.8224C1.98528 21.8035 1.6581 18.4816 2.29558 15.2768C2.93306 12.0719 4.50658 9.12811 6.81713 6.81755C9.12769 4.50699 12.0715 2.93348 15.2764 2.296C18.4812 1.65852 21.8031 1.9857 24.822 3.23616C27.8409 4.48663 30.4212 6.60422 32.2366 9.32115C34.0519 12.0381 35.0209 15.2323 35.0209 18.4999C35.0157 22.8801 33.2734 27.0793 30.1761 30.1765C27.0789 33.2738 22.8797 35.0161 18.4995 35.0213Z" fill="#f44336"/>
<path d="M28.4915 25.7337C28.7151 28.4207 26.0084 30.6407 24.2118 30.7673C23.2225 30.8386 22.3123 30.5576 21.4101 30.2133C20.7631 29.966 20.1022 29.7523 19.4612 29.4911C18.8963 29.2597 18.2631 29.2597 17.6982 29.4911C16.8158 29.8235 15.9175 30.1263 15.041 30.4587C13.1059 31.1868 11.4676 30.7673 10.041 29.2715C9.46857 28.706 9.03627 28.0144 8.77862 27.2521C8.52096 26.4898 8.44509 25.6778 8.55705 24.881C8.69357 23.767 9.30694 22.936 10.1934 22.2949C10.5177 22.0445 10.8672 21.8283 11.2361 21.6499C13.0358 20.8564 14.6299 19.6611 15.8957 18.1557C16.1716 17.8515 16.4918 17.5907 16.8454 17.382C18.3492 16.4382 19.4315 16.4976 21.2617 18.0745C22.2312 18.9075 23.1038 19.8553 24.1069 20.6467C24.7975 21.1908 25.6483 21.5312 26.4061 21.9961C27.8168 22.8647 28.6241 24.0816 28.4915 25.7337Z" fill="#f44336"/>
<path d="M16.5469 12.3702C16.5706 8.87796 20.4447 9.36074 20.5595 12.7105C20.694 16.6856 16.5845 16.6203 16.5469 12.3702Z" fill="#f44336"/>
<path d="M25.2803 14.7426C25.2388 15.7615 25.1022 16.7568 24.291 17.5126C23.5609 18.2032 22.7299 18.1062 22.1739 17.2633C21.2538 15.8783 21.513 13.2091 22.6864 12.02C23.2621 11.4383 23.9626 11.4422 24.4948 12.0675C25.1517 12.8391 25.2467 13.777 25.2803 14.7426Z" fill="#f44336"/>
<path d="M12.6289 12.3781C14.1366 9.31721 17.7061 16.7311 14.4651 17.8035C11.7821 18.6879 11.9127 13.8344 12.6289 12.3781Z" fill="#f44336"/>
<path d="M7.90005 18.2031C8.18299 14.3666 12.3044 15.5736 11.6396 19.1311C10.9827 22.6491 7.69229 21.0306 7.90005 18.2031Z" fill="#f44336"/>
<path d="M29.439 18.2032C29.5221 19.1291 29.1383 19.9542 28.5902 20.6764C27.7631 21.7706 26.5127 21.644 26.0042 20.3776C25.3848 18.8383 25.5867 17.3721 26.6274 16.0722C27.3931 15.1145 28.4359 15.2471 28.9345 16.3769C29.2008 16.9542 29.3712 17.571 29.439 18.2032Z" fill="#f44336"/>
<path d="M19.2616 9.39438C18.6423 9.15497 17.9794 9.10748 17.3384 9.64962C17.4551 8.15379 18.2327 7.14866 19.2616 6.36513V9.39438Z" fill="#f44336"/>
<path d="M10.0511 14.9602L8.54143 15.2491C8.49394 14.1589 9.044 13.2823 9.77015 12.6096L10.0511 14.9602Z" fill="#f44336"/>
<path d="M28.6676 14.7525L27.1064 14.5269C27.1658 13.8304 27.2351 13.0271 27.3043 12.2337C27.7035 12.5267 28.0328 12.9046 28.2685 13.3401C28.5042 13.7756 28.6405 14.258 28.6676 14.7525Z" fill="#f44336"/>
<path d="M14.1087 8.57721C14.174 9.40823 14.2374 10.2353 14.2947 10.9832L12.8306 11.1811C12.8504 10.6819 12.9743 10.1924 13.1944 9.74402C13.4145 9.2956 13.726 8.89816 14.1087 8.57721Z" fill="#f44336"/>
<path d="M23.2383 8.47432C23.6197 8.79441 23.9308 9.18989 24.1521 9.63593C24.3735 10.082 24.5002 10.5689 24.5244 11.0663L23.0483 10.8684C23.1077 10.1363 23.173 9.2994 23.2383 8.47432Z" fill="#f44336"/>
</svg>
