<svg width="187" height="187" viewBox="0 0 187 187" fill="none" xmlns="http://www.w3.org/2000/svg">
<path d="M165.47 63.6899C158.07 45.8261 144.29 31.3534 126.81 23.0868C109.331 14.8201 89.4011 13.3505 70.8979 18.9639C52.3948 24.5772 36.641 36.8721 26.7007 53.4572C16.7604 70.0423 13.3443 89.7318 17.1168 108.696C20.8893 127.66 31.5807 144.543 47.1115 156.062C62.6423 167.58 81.9021 172.91 101.145 171.014C120.388 169.119 138.237 160.134 151.223 145.807C164.208 131.48 171.4 112.836 171.4 93.4999C171.397 83.2705 169.382 73.1415 165.47 63.6899V63.6899ZM137.56 137.56C127.367 147.746 113.957 154.083 99.616 155.49C85.2747 156.898 70.8889 153.29 58.9094 145.281C46.9299 137.272 38.0979 125.357 33.918 111.567C29.7381 97.7759 30.4689 82.9626 35.986 69.6503C41.5031 56.338 51.4651 45.3504 64.1747 38.5593C76.8844 31.7682 91.5555 29.5939 105.689 32.4067C119.822 35.2195 132.542 42.8454 141.683 53.9852C150.824 65.125 155.82 79.0896 155.82 93.4999C155.82 101.683 154.208 109.787 151.075 117.347C147.942 124.907 143.349 131.776 137.56 137.56V137.56Z" fill="#03DAC5"/>
<path d="M105.73 63.0698C105.06 69.8198 101.4 86.3998 94.9 103.07C87.82 86.4098 93.32 54.8298 92.4 48.0698C54.91 63.8998 53.91 119.14 75.82 134.3C83.49 139.63 106.9 141.05 113.98 134.72C127.06 123.14 134.39 75.9998 105.73 63.0698Z" fill="#03DAC5"/>
</svg>
