<svg width="37" height="37" viewBox="0 0 37 37" fill="none" xmlns="http://www.w3.org/2000/svg">
<path d="M18.4995 -6.10352e-05C14.8406 -6.10352e-05 11.2638 1.08494 8.22147 3.11775C5.17916 5.15056 2.80797 8.03986 1.40775 11.4203C0.00752748 14.8007 -0.358834 18.5205 0.354992 22.1091C1.06882 25.6978 2.83077 28.9941 5.41804 31.5814C8.00532 34.1687 11.3017 35.9306 14.8903 36.6445C18.479 37.3583 22.1987 36.9919 25.5792 35.5917C28.9596 34.1915 31.8489 31.8203 33.8817 28.778C35.9145 25.7357 36.9995 22.1589 36.9995 18.4999C36.9995 13.5934 35.0504 8.88789 31.581 5.41846C28.1116 1.94904 23.406 -6.10352e-05 18.4995 -6.10352e-05V-6.10352e-05ZM18.4995 35.0213C15.2319 35.0213 12.0377 34.0524 9.32073 32.237C6.6038 30.4216 4.48621 27.8413 3.23575 24.8224C1.98528 21.8035 1.6581 18.4816 2.29558 15.2768C2.93306 12.0719 4.50658 9.12811 6.81713 6.81755C9.12769 4.50699 12.0715 2.93348 15.2764 2.296C18.4812 1.65852 21.8031 1.9857 24.822 3.23616C27.8409 4.48663 30.4212 6.60422 32.2366 9.32115C34.0519 12.0381 35.0209 15.2323 35.0209 18.4999C35.0157 22.8801 33.2734 27.0793 30.1761 30.1765C27.0789 33.2738 22.8797 35.0161 18.4995 35.0213Z" fill="#48FFD5"/>
<path d="M20.6207 11.5985C20.4565 13.2012 19.5998 17.1387 18.0485 21.0959C16.3707 17.1387 17.6706 9.64368 17.455 8.03705C8.55121 11.7964 8.3217 24.9047 13.5274 28.5236C15.3517 29.7938 20.9056 30.1223 22.5993 28.6146C25.6761 25.8722 27.4153 14.6693 20.6207 11.5985Z" fill="#48FFD5"/>
</svg>
