<svg width="25" height="26" viewBox="0 0 25 26" fill="none" xmlns="http://www.w3.org/2000/svg">
<path d="M12.5 25.0044C14.2188 25.0044 15.625 23.8503 15.625 22.4398H9.375C9.375 23.8503 10.7812 25.0044 12.5 25.0044ZM21.875 17.3107V10.8993C21.875 6.96276 19.3281 3.66731 14.8438 2.79536V1.92341C14.8438 0.859125 13.7969 0 12.5 0C11.2031 0 10.1562 0.859125 10.1562 1.92341V2.79536C5.6875 3.66731 3.125 6.94994 3.125 10.8993V17.3107L0 19.8753V21.1576H25V19.8753L21.875 17.3107ZM18.75 18.593H6.25V10.8993C6.25 7.7193 8.60938 5.1291 12.5 5.1291C16.3906 5.1291 18.75 7.7193 18.75 10.8993V18.593Z" fill="#B6B6B6"/>
</svg>
