<svg width="23" height="23" viewBox="0 0 23 23" fill="none" xmlns="http://www.w3.org/2000/svg">
<path d="M9.2 12.65H1.15C0.845001 12.65 0.552494 12.7712 0.336827 12.9868C0.12116 13.2025 0 13.495 0 13.8V21.85C0 22.155 0.12116 22.4475 0.336827 22.6632C0.552494 22.8788 0.845001 23 1.15 23H9.2C9.505 23 9.79751 22.8788 10.0132 22.6632C10.2288 22.4475 10.35 22.155 10.35 21.85V13.8C10.35 13.495 10.2288 13.2025 10.0132 12.9868C9.79751 12.7712 9.505 12.65 9.2 12.65ZM8.05 20.7H2.3V14.95H8.05V20.7ZM21.85 0H13.8C13.495 0 13.2025 0.12116 12.9868 0.336827C12.7712 0.552494 12.65 0.845001 12.65 1.15V9.2C12.65 9.505 12.7712 9.79751 12.9868 10.0132C13.2025 10.2288 13.495 10.35 13.8 10.35H21.85C22.155 10.35 22.4475 10.2288 22.6632 10.0132C22.8788 9.79751 23 9.505 23 9.2V1.15C23 0.845001 22.8788 0.552494 22.6632 0.336827C22.4475 0.12116 22.155 0 21.85 0ZM20.7 8.05H14.95V2.3H20.7V8.05ZM21.85 12.65H13.8C13.495 12.65 13.2025 12.7712 12.9868 12.9868C12.7712 13.2025 12.65 13.495 12.65 13.8V21.85C12.65 22.155 12.7712 22.4475 12.9868 22.6632C13.2025 22.8788 13.495 23 13.8 23H21.85C22.155 23 22.4475 22.8788 22.6632 22.6632C22.8788 22.4475 23 22.155 23 21.85V13.8C23 13.495 22.8788 13.2025 22.6632 12.9868C22.4475 12.7712 22.155 12.65 21.85 12.65ZM20.7 20.7H14.95V14.95H20.7V20.7ZM9.2 0H1.15C0.845001 0 0.552494 0.12116 0.336827 0.336827C0.12116 0.552494 0 0.845001 0 1.15V9.2C0 9.505 0.12116 9.79751 0.336827 10.0132C0.552494 10.2288 0.845001 10.35 1.15 10.35H9.2C9.505 10.35 9.79751 10.2288 10.0132 10.0132C10.2288 9.79751 10.35 9.505 10.35 9.2V1.15C10.35 0.845001 10.2288 0.552494 10.0132 0.336827C9.79751 0.12116 9.505 0 9.2 0ZM8.05 8.05H2.3V2.3H8.05V8.05Z" fill="#B6B6B6"/>
</svg>
