<svg width="25" height="25" viewBox="0 0 25 25" fill="none" xmlns="http://www.w3.org/2000/svg">
<path d="M23.2474 0H2.04895C0.99918 0 0.148193 0.850987 0.148193 1.90075V16.2024C0.148193 17.2522 0.99918 18.1032 2.04895 18.1032H3.87203L5.1814 20.3712L7.8539 25L10.5263 20.3712L11.8358 18.1032H23.2474C24.2972 18.1032 25.1482 17.2522 25.1482 16.2024V1.90075C25.1482 0.850987 24.2972 0 23.2474 0ZM22.7874 13.8416C22.7874 14.8914 21.9364 15.7424 20.8867 15.7424H10.5263L7.8539 20.3712L5.1814 15.7424H4.40974C3.35997 15.7424 2.50899 14.8914 2.50899 13.8416V12.4308L3.90846 11.2175L8.37304 14.855L18.2922 5.79024L22.4448 9.06749L22.7874 8.77499V13.8416ZM22.7874 5.78292V6.28152L22.3895 6.62123L18.1996 3.31455H18.1768L8.29009 12.3492L3.86416 8.74319L2.50899 9.91808V4.26154C2.50899 3.21178 3.35997 2.36079 4.40974 2.36079H20.8867C21.9364 2.36079 22.7874 3.21178 22.7874 4.26154V5.78292Z" fill="#B6B6B6"/>
</svg>
