<?xml version="1.0" encoding="utf-8"?>
<!-- Generator: Adobe Illustrator 21.0.0, SVG Export Plug-In . SVG Version: 6.00 Build 0)  -->
<svg version="1.1" id="Layer_1" xmlns="http://www.w3.org/2000/svg" xmlns:xlink="http://www.w3.org/1999/xlink" x="0px" y="0px"
	 viewBox="0 0 769.7 647.5" style="enable-background:new 0 0 769.7 647.5;" xml:space="preserve">
<style type="text/css">
	.st0{fill:#D42083;}
</style>
<title>Average Price Calculator</title>
<path class="st0" d="M510.1,647.5c-20.2-0.1-39.3-8.6-53.6-23.9L242,395.8c-7.9-8.4-13.9-18.4-17.9-29.6l-53.4-153.9
	c-10.3-29.9-3.4-63.9,17.7-86.5l9.6-10.3c-9.9,5.2-17.7,11.8-23.2,19.7c-15,21.5-12.8,53-9.3,83.4c0.9,8,2.3,16.1,3.6,24l0.4,2.6
	c2.1,12.6,4.2,25.6,5.1,39.1l0.3,4.5c2.4,37,5.8,87.7-27.7,118.7c-13.9,12.9-32,20-51,20c-21.6,0-41.8-9.2-55.6-25.3
	C19.8,377.9,8,338.7,5.5,285.6c-2-44.4,2.4-86.5,12.6-122c13.1-45.3,35.4-80.3,66.3-103.9c28.4-21.7,61.3-33.2,95.1-33.2
	c16.5,0,33.2,2.7,49.6,8.1c10.8,3.5,21.5,8.2,31.9,14l14.1-15c0.9-1,1.8-2,2.6-3.1c14.6-18.6,36-29.3,58.8-29.3c10,0,19.7,2,29,6.1
	l147.4,64.1c10,4.3,18.8,10.7,26.3,18.9l208.9,230.6c29.4,32.4,28.7,84.4-1.7,115.9l-0.3,0.3L563.8,624.6
	c-14.4,14.8-33.3,22.9-53.2,22.9H510.1z M211.3,75.2c9.7,0,16.7,4.4,22.8,8.2l0.1,0.1c1.5,1,3.2,2,4.9,3l2.9,1.7l12.5,16.5
	l-42.9,45.8c-12.1,13-16.1,32.5-10.2,49.7L254.8,354c2.2,6.3,5.8,12.2,10.3,17.1l214.3,227.7c8.3,8.8,19.4,13.6,31.1,13.6
	c11.4,0,22.3-4.6,30.6-13.1L723.4,412c8.5-8.7,13.3-20.4,13.5-33s-4.2-24.5-12.3-33.5l-209-230.8c-4.3-4.7-9.5-8.5-15-10.9L353,39.6
	c-5.3-2.3-11-3.5-16.7-3.5c-13,0-25.3,6.1-33.7,16.8c-1.3,1.6-2.7,3.4-4.5,5.2l-31.8,33.8l-10.9-6.8c-12.7-7.9-24.1-13.4-36-17.4
	c-13.1-4.2-26.5-6.4-39.7-6.4c-27.1,0-53.5,9.2-76.4,26.7C41,135.7,35.7,231.1,38.1,283.8c2.1,44.7,11.1,76.6,26.7,94.8
	c7.5,8.8,19,13.8,31.4,13.8l0,0c11.2,0,21.7-4,29.6-11.3c21.1-19.4,18.5-58.4,16.5-89.8l-0.3-4.6c-0.8-11.5-2.6-22.9-4.6-35
	l-0.6-3.5c-1.3-8.3-2.7-16.8-3.8-25.4c-4.3-37.5-6.6-76.7,15.5-108.6c11.2-16.1,27.5-28.3,48.6-36.4
	C201.8,76.2,206.5,75.2,211.3,75.2z M96.6,383.9c-4.7,0-9.3-1.1-13.8-3.2l-0.1-0.1C62.4,370.5,54.1,341.1,48,300l-0.2-1.2v-1.2
	c-1.9-57.6,2.9-102.4,14.7-136.7c11.4-33.1,29.6-56.7,54.3-70l42.9-23.3L139,114c-1.8,4.2-3.6,8-5.3,11.4
	c-10,21.3-13.8,29.4-10.4,89.3c1.2,9.2,2.6,19,4.1,29.1l0.1,0.5c6.4,43.2,13.8,92.2-1.6,124.9l-2.2,4.4l-4,2.7l-0.1,0.1
	C111.6,381.4,103.9,383.9,96.6,383.9z M96.6,349c0.2,0,0.9,0,2-0.5c7.8-23.8,1.8-63.8-3.5-99.2c-1.9-12.2-3.2-21.9-4.3-30.6
	l-0.1-0.9v-0.5c-0.7-12.3-1.1-22.9-1.2-32.2c-7.5,28.1-10.4,64.6-8.9,110.3C87.4,342.2,95,348.3,96.6,349L96.6,349
	C96.5,349,96.5,349,96.6,349z"/>
<path class="st0" d="M510.6,638.8h-0.5c-17.9-0.1-35.1-7.8-47.8-21.4L247.8,389.6c-7-7.5-12.5-16.5-16-26.5l-53.4-153.8
	c-9.3-26.9-3.1-57,15.8-77.3l25.5-27.2c-5.7-3.6-8.1-4.5-14.1-2.1c-16.5,6.3-29,15.5-37.3,27.4c-16.7,24-14.5,57.5-10.8,89.7
	c1,8.8,2.5,17.8,4,26.4c2.1,12.6,4.3,25.6,5.1,38.8l0.3,4.5c2.5,37.2,5.5,83.4-24.9,111.5c-27.6,25.5-71.3,23.3-95.2-4.7
	C27.1,373.5,16,336,13.7,285.1C11.8,242,16,200.8,26,166.1c12.5-43.5,33.8-76.9,63.2-99.4c40.6-31.1,89.6-39.6,137.6-23.9
	c12.5,4.1,24.4,9.6,35.7,16.4l18.4-19.6c1.1-1.2,2.1-2.3,3.1-3.6c19.1-24.4,50.8-32.8,78.5-20.8l147.4,64.1
	c8.8,3.8,16.8,9.5,23.5,16.9l209,230.7c26.4,29,25.6,75.5-1.5,103.6c-0.1,0.1-0.1,0.1-0.2,0.2L558.2,618.3
	C545.4,631.4,528.3,638.8,510.6,638.8z M211.3,84c7.5,0,12.9,3.4,18.6,7c1.6,1.1,3.4,2.1,5.2,3.2l1.5,0.9l6.9,9.1l-37.6,40.2
	c-14.4,15.4-19.1,38.4-12.1,58.9l53.4,153.8c2.6,7.6,6.8,14.5,12.2,20.2l214.3,227.8c20.2,21.3,52.6,21.6,73.1,0.7L729,418.3
	c20.8-21.4,21.5-56.7,1.4-79l-0.1-0.1L521.4,108.6c-5-5.5-11.1-10-17.8-12.9L356.1,31.5c-21-9.2-45.2-2.8-59.7,15.7
	c-1.3,1.7-2.6,3.2-4,4.7l-27.3,29l-5.5-3.4c-13.4-8.4-25.4-14.1-37.7-18.2c-43-13.9-86.8-6.3-123.2,21.6
	c-65.5,50.2-71.1,149-68.7,203.4c2.2,46.8,11.8,80.5,28.8,100.3c17.8,20.8,51.7,22.3,72.4,3.2c24.2-22.2,21.5-63.7,19.3-97l-0.3-4.5
	c-0.8-12.3-2.8-24.3-4.9-37c-1.5-8.9-3-18.2-4.1-27.4c-4.1-35.7-6.4-73,13.9-102.3c10.2-14.7,25.3-25.9,44.8-33.4
	C203.6,84.8,207.4,84,211.3,84z M96.6,375.2c-3.6,0-7.2-0.9-10.5-2.4c-17-8.4-24.4-35.7-30.1-74.2l-0.1-0.5v-0.5
	C54,241,58.7,197.3,70.1,164c10.6-31,27.6-52.9,50.3-65.3L141.9,87l-10.4,23.2c-1.8,4.2-3.5,7.9-5.2,11.1
	c-10.5,22.2-14.8,31.5-11.3,94.2c1.2,9.3,2.6,19.2,4.2,29.6c6.3,42.1,13.5,89.7-0.7,120l-1.1,2.2l-2,1.4
	C108.8,373,102.5,375.2,96.6,375.2z M72.3,296.3c2.3,15.4,8.3,54.4,20.7,60.6c1.2,0.6,4.5,2.2,11.9-1.8
	c10.4-25.6,3.9-68.9-1.8-107.1c-1.6-10.7-3.1-20.8-4.3-30.5l-0.1-0.6c-2.5-43.6-1.2-63.8,3.5-80C79.6,167.4,69.8,220.1,72.3,296.3z"
	/>
<path class="st0" d="M538.5,223.7H484v56.8h-40.4v-56.8h-54.1V183h54.1v-56.8H484V183h54.5V223.7z"/>
<path class="st0" d="M542.8,563.1l-38.7-41.4l-37.8,40.4l-28.7-30.7l37.8-40.4l-38.5-41.2l27.2-29l38.5,41.1l37.8-40.4l28.7,30.7
	l-37.8,40.4L570,534L542.8,563.1z"/>
<rect x="532.7" y="321.1" class="st0" width="164.1" height="48.6"/>
<rect x="283.9" y="326.7" class="st0" width="152.9" height="45.3"/>
<ellipse class="st0" cx="360.3" cy="292.7" rx="22.7" ry="24.3"/>
<ellipse class="st0" cx="360.3" cy="406" rx="22.7" ry="24.3"/>
</svg>
