<?xml version="1.0" encoding="utf-8"?>
<!-- Generator: Adobe Illustrator 21.0.0, SVG Export Plug-In . SVG Version: 6.00 Build 0)  -->
<svg version="1.1" id="Capa_1" xmlns="http://www.w3.org/2000/svg" xmlns:xlink="http://www.w3.org/1999/xlink" x="0px" y="0px"
	 viewBox="0 0 512 512" style="enable-background:new 0 0 512 512;" xml:space="preserve">
<style type="text/css">
	.st0{fill:#973699;}
</style>
<g>
	<g>
		<g>
			<path class="st0" d="M465.8,224.9L424,178.5c-2.1-24.8-8.8-48.6-19.9-70.8C392.4,84.4,376.5,64,356.7,47
				C316,12.1,264-4.3,210.2,1C149.7,6.8,94.1,42.8,61.6,97.3C19.9,167,35.2,232,50.1,294.9c7.5,31.6,14.5,61.5,14.5,91.6V497
				c0,8.3,6.7,15,15,15h240c8.3,0,15-6.7,15-15v-60.2c0-4.1,1.6-7.9,4.6-10.8s6.8-4.3,10.9-4.2c19.8,0.7,38.5-6.4,52.6-20.1
				c14.1-13.6,21.9-32,21.9-51.8v-50h7.6c18,0,33.8-10.2,41.1-26.7C480.8,256.8,477.8,238.3,465.8,224.9z M446,261.1
				c-0.9,2.1-4.7,8.9-13.7,8.9h-22.6c-8.3,0-15,6.7-15,15v65c0,11.6-4.5,22.3-12.7,30.3c-8.2,7.9-19.1,12.1-30.7,11.7
				c-12.3-0.4-24,4-32.8,12.6c-8.9,8.6-13.7,20.1-13.7,32.4v45h-210v-95.5c0-33.7-7.8-66.6-15.4-98.5c-14.1-59.7-27.5-116.1,8-175.3
				c27.7-46.3,74.8-76.9,125.8-81.9c45.6-4.4,89.6,9.4,124,39c34,29.2,54.9,71.5,57.3,116c0.2,4.5,2.4,8.4,5.7,10.9l43.4,48.2
				C449.5,251.7,446.9,259,446,261.1z"/>
		</g>
	</g>
	<g>
		<g>
			<path class="st0" d="M229.7,150c-24.8,0-45,20.2-45,45s20.2,45,45,45s45-20.2,45-45S254.5,150,229.7,150z M229.7,210
				c-8.3,0-15-6.7-15-15s6.7-15,15-15s15,6.7,15,15S237.9,210,229.7,210z"/>
		</g>
	</g>
	<g>
		<g>
			<path class="st0" d="M349.7,180h-16.1c-2.6-17.8-9.6-34.1-19.9-47.8l11.4-11.4c5.9-5.9,5.9-15.4,0-21.2c-5.9-5.9-15.4-5.9-21.2,0
				L292.5,111c-13.7-10.3-30.1-17.3-47.9-19.9V75c0-8.3-6.7-15-15-15s-15,6.7-15,15v16.1c-17.8,2.6-34.1,9.6-47.8,19.9l-11.4-11.4
				c-5.9-5.9-15.4-5.9-21.2,0s-5.9,15.4,0,21.2l11.4,11.4c-10.3,13.7-17.3,30.1-19.9,47.9h-16.1c-8.3,0-15,6.7-15,15s6.7,15,15,15
				h16.1c2.6,17.8,9.6,34.1,19.9,47.8l-11.4,11.4c-5.9,5.9-5.9,15.4,0,21.2c2.9,2.9,6.8,4.4,10.6,4.4s7.7-1.5,10.6-4.4l11.4-11.4
				c13.7,10.3,30.1,17.3,47.8,19.9v16c0,8.3,6.7,15,15,15s15-6.7,15-15v-16.1c17.8-2.6,34.1-9.6,47.9-19.9l11.4,11.4
				c2.9,2.9,6.8,4.4,10.6,4.4s7.7-1.5,10.6-4.4c5.9-5.9,5.9-15.4,0-21.2l-11.4-11.4c10.3-13.7,17.3-30.1,19.9-47.8h16.1
				c8.3,0,15-6.7,15-15S358,180,349.7,180z M282.7,248L282.7,248C282.7,248,282.6,248,282.7,248c-13.7,13.6-32.4,22-53.1,22
				c-20.6,0-39.4-8.4-53-21.9c0,0,0,0-0.1-0.1s0,0-0.1-0.1c-13.5-13.6-21.9-32.3-21.9-53s8.4-39.4,21.9-53c0,0,0,0,0.1-0.1
				s0,0,0.1-0.1c13.6-13.5,32.3-21.9,53-21.9s39.4,8.4,53,21.9c0,0,0,0,0,0.1s0,0,0.1,0c13.6,13.6,21.9,32.3,21.9,53
				S296.3,234.4,282.7,248z"/>
		</g>
	</g>
</g>
</svg>
