<?xml version="1.0" encoding="utf-8"?>
<!-- Generator: Adobe Illustrator 21.0.0, SVG Export Plug-In . SVG Version: 6.00 Build 0)  -->
<svg version="1.1" id="Layer_1" xmlns="http://www.w3.org/2000/svg" xmlns:xlink="http://www.w3.org/1999/xlink" x="0px" y="0px"
	 viewBox="0 0 512 512" style="enable-background:new 0 0 512 512;" xml:space="preserve">
<style type="text/css">
	.st0{fill:#FFEB3B;}
</style>
<g transform="matrix(1 0 0 1 0 0)">
	<g>
		<g>
			<path class="st0" d="M14.1,509.6c-7.8,0-14.1-6.3-14.1-14.1V240.4c0-7.8,6.3-14.1,14.1-14.1h110.3c3.8,0,7.4,1.5,10,4.2
				c2.6,2.7,4,6.2,4,10l0,255c0,7.8-6.3,14.1-14.1,14.1H14.1z M110.3,481.4V254.6h-82v226.8H110.3z"/>
			<path class="st0" d="M122.3,229.9h-112c-5.7,0-10.3,4.6-10.3,10.3v259.1c0,5.7,4.6,10.3,10.3,10.3h111.9
				c5.7,0,10.3-4.6,10.3-10.3V240.2C132.6,234.5,128,229.9,122.3,229.9z M111.9,489H20.7V250.6H112L111.9,489L111.9,489z"/>
			<path class="st0" d="M200.9,509.5c-7.8,0-14.1-6.3-14.1-14.1v-479c0-7.8,6.3-14.1,14.1-14.1h110.3c3.8,0,7.4,1.5,10.1,4.2
				c2.6,2.7,4,6.2,4,9.9l0,479c0,7.8-6.3,14.1-14.1,14.1H200.9z M297.1,481.4V30.6h-82v450.9H297.1z"/>
			<path class="st0" d="M312,2.3H200c-5.7,0-10.3,4.6-10.3,10.3v486.6c0,5.7,4.6,10.3,10.3,10.3h112c5.7,0,10.3-4.6,10.3-10.3V12.6
				C322.4,7,317.8,2.3,312,2.3z M301.7,489h-91.3V23h91.3V489z"/>
			<path class="st0" d="M493.8,509.7L493.8,509.7l-106.2-0.1c-7.8,0-14.1-6.3-14.1-14.1V171.2c0-7.8,6.3-14.1,14.1-14.1h110.3
				c7.8,0,14.1,6.3,14.1,14.1v324.4c0,7.8-6.3,14.1-14.1,14.1H493.8z M483.8,481.4V185.3h-82v296.1H483.8z"/>
			<path class="st0" d="M501.7,509.7c5.7,0,10.3-4.6,10.3-10.3V169.9c0-5.7-4.6-10.3-10.3-10.3h-112c-5.7,0-10.3,4.6-10.3,10.3
				v329.4c0,5.7,4.6,10.3,10.3,10.3h111.9v0.1H501.7z M400.1,180.2h91.3V489h-91.3L400.1,180.2L400.1,180.2z"/>
		</g>
	</g>
</g>
</svg>
