<svg width="12" height="13" viewBox="0 0 12 13" fill="none" xmlns="http://www.w3.org/2000/svg">
<path d="M10.6311 10.2147C10.7459 11.5944 9.35593 12.7344 8.43336 12.7995C7.92534 12.836 7.45796 12.6918 6.99465 12.515C6.6624 12.388 6.32304 12.2782 5.99385 12.1441C5.70378 12.0253 5.37862 12.0253 5.08855 12.1441C4.6354 12.3148 4.17411 12.4703 3.72401 12.641C2.73032 13.0149 1.88904 12.7995 1.15647 12.0313C0.862516 11.7409 0.640525 11.3858 0.508216 10.9944C0.375907 10.6029 0.336944 10.1859 0.394437 9.77674C0.464544 9.20471 0.779517 8.77797 1.2347 8.44877C1.40128 8.32017 1.58072 8.20917 1.77016 8.11754C2.69436 7.71009 3.5129 7.09627 4.16294 6.32321C4.30463 6.16704 4.46904 6.03311 4.65064 5.92594C5.42283 5.44129 5.97861 5.47177 6.91845 6.28155C7.41631 6.70931 7.86438 7.19599 8.37951 7.60241C8.73411 7.88182 9.17101 8.05658 9.56016 8.29535C10.2846 8.74139 10.6991 9.36626 10.6311 10.2147Z" fill="#78909C"/>
<path d="M4.49707 3.3523C4.50926 1.55898 6.49867 1.80689 6.55761 3.52705C6.6267 5.56828 4.51638 5.53476 4.49707 3.3523Z" fill="#78909C"/>
<path d="M8.98212 4.57056C8.96078 5.09382 8.89068 5.60489 8.4741 5.99302C8.09918 6.34761 7.67244 6.29783 7.38693 5.86499C6.91447 5.15376 7.04758 3.78312 7.65009 3.17248C7.94576 2.87376 8.30544 2.8758 8.57875 3.19687C8.91608 3.59312 8.96485 4.07473 8.98212 4.57056Z" fill="#78909C"/>
<path d="M2.48572 3.35638C3.25995 1.78456 5.09289 5.59167 3.42861 6.14237C2.05086 6.59654 2.11791 4.10419 2.48572 3.35638Z" fill="#78909C"/>
<path d="M0.057328 6.34761C0.202622 4.37751 2.31904 4.99729 1.97765 6.82414C1.64032 8.63066 -0.0493565 7.79954 0.057328 6.34761Z" fill="#78909C"/>
<path d="M11.1181 6.34762C11.1607 6.82313 10.9636 7.24682 10.6822 7.61767C10.2575 8.17954 9.61533 8.11452 9.35421 7.46425C9.03619 6.67377 9.13983 5.92088 9.67426 5.25334C10.0675 4.76158 10.6029 4.82965 10.859 5.40981C10.9957 5.70625 11.0833 6.02301 11.1181 6.34762Z" fill="#78909C"/>
<path d="M5.89116 1.82421C5.57314 1.70127 5.23276 1.67688 4.90356 1.95528C4.96351 1.18715 5.36282 0.670999 5.89116 0.268646V1.82421Z" fill="#78909C"/>
<path d="M1.16172 4.68231L0.386477 4.83065C0.362092 4.27081 0.644552 3.8207 1.01744 3.47525L1.16172 4.68231Z" fill="#78909C"/>
<path d="M10.7216 4.57562L9.91992 4.45979C9.9504 4.10214 9.98596 3.68963 10.0215 3.2822C10.2265 3.43268 10.3956 3.62673 10.5167 3.85037C10.6377 4.07401 10.7077 4.3217 10.7216 4.57562Z" fill="#78909C"/>
<path d="M3.24547 1.40454C3.279 1.83128 3.31152 2.25598 3.34098 2.64005L2.58911 2.74165C2.59927 2.48534 2.66291 2.23398 2.77595 2.00371C2.88898 1.77344 3.04891 1.56935 3.24547 1.40454Z" fill="#78909C"/>
<path d="M7.93348 1.35172C8.12934 1.51609 8.28911 1.71917 8.40276 1.94822C8.51641 2.17727 8.58148 2.42734 8.59391 2.68273L7.83594 2.58113C7.86642 2.20519 7.89995 1.7754 7.93348 1.35172Z" fill="#78909C"/>
</svg>
