<svg xmlns="http://www.w3.org/2000/svg" viewBox="0 0 108.96 123.53"><title>Asset 1_1</title><g id="Layer_2" data-name="Layer 2"><g id="Layer_2-2" data-name="Layer 2"><path d="M104.12,97.89c1.13,13.58-12.55,24.8-21.63,25.44-5,.36-9.6-1.06-14.16-2.8-3.27-1.25-6.61-2.33-9.85-3.65a11.75,11.75,0,0,0-8.91,0c-4.46,1.68-9,3.21-13.43,4.89-9.78,3.68-18.06,1.56-25.27-6a26.07,26.07,0,0,1-7.5-22.19c.69-5.63,3.79-9.83,8.27-13.07a29.46,29.46,0,0,1,5.27-3.26A65.11,65.11,0,0,0,40.46,59.59a20.32,20.32,0,0,1,4.8-3.91c7.6-4.77,13.07-4.47,22.32,3.5,4.9,4.21,9.31,9,14.38,13,3.49,2.75,7.79,4.47,11.62,6.82C100.71,83.39,104.79,89.54,104.12,97.89Z" style="fill:#ff4848"/><path d="M43.75,30.35C43.87,12.7,63.45,15.14,64,32.07,64.71,52.16,43.94,51.83,43.75,30.35Z" style="fill:#ff4848"/><path d="M87.89,42.34c-.21,5.15-.9,10.18-5,14-3.69,3.49-7.89,3-10.7-1.26-4.65-7-3.34-20.49,2.59-26.5,2.91-2.94,6.45-2.92,9.14.24C87.24,32.72,87.72,37.46,87.89,42.34Z" style="fill:#ff4848"/><path d="M24,30.39c7.62-15.47,25.66,22,9.28,27.42C19.67,62.28,20.33,37.75,24,30.39Z" style="fill:#ff4848"/><path d="M.05,59.83C1.48,40.44,22.31,46.54,19,64.52,15.63,82.3-1,74.12.05,59.83Z" style="fill:#ff4848"/><path d="M108.91,59.83c.42,4.68-1.52,8.85-4.29,12.5-4.18,5.53-10.5,4.89-13.07-1.51C88.42,63,89.44,55.63,94.7,49.06c3.87-4.84,9.14-4.17,11.66,1.54A29.7,29.7,0,0,1,108.91,59.83Z" style="fill:#ff4848"/><path d="M57.47,15.31C54.34,14.1,51,13.86,47.75,16.6,48.34,9,52.27,4,57.47,0Z" style="fill:#ff4848"/><path d="M10.92,43.44,3.29,44.9C3.05,39.39,5.83,35,9.5,31.56Z" style="fill:#ff4848"/><path d="M105,42.39l-7.89-1.14c.3-3.52.65-7.58,1-11.59A17,17,0,0,1,105,42.39Z" style="fill:#ff4848"/><path d="M31.43,11.18c.33,4.2.65,8.38.94,12.16l-7.4,1A18.11,18.11,0,0,1,31.43,11.18Z" style="fill:#ff4848"/><path d="M77.57,10.66a18.3,18.3,0,0,1,6.5,13.1l-7.46-1C76.91,19.06,77.24,14.83,77.57,10.66Z" style="fill:#ff4848"/></g></g></svg>