<?xml version="1.0" encoding="utf-8"?>
<!-- Generator: Adobe Illustrator 21.0.0, SVG Export Plug-In . SVG Version: 6.00 Build 0)  -->
<svg version="1.1" id="Layer_1" xmlns="http://www.w3.org/2000/svg" xmlns:xlink="http://www.w3.org/1999/xlink" x="0px" y="0px"
	 viewBox="0 0 512 512" style="enable-background:new 0 0 512 512;" xml:space="preserve">
<style type="text/css">
	.st0{fill:#F14336;}
	.st1{display:none;fill:#3D50A2;stroke:#3D50A2;stroke-width:9;stroke-miterlimit:10;}
	.st2{font-family:'Multicolore';}
	.st3{font-size:69.7085px;}
	.st4{display:none;fill:#3B509B;}
	.st5{font-size:111.8201px;}
	.st6{fill:none;stroke:#F14336;stroke-width:30;stroke-miterlimit:10;}
</style>
<g>
	<path class="st0" d="M345,325.2v-83.1c0-39.5-24.3-73.2-58.1-85.6v-15.1c0-17.5-13.6-31.7-30.4-31.7h-1.2
		c-16.7,0-30.4,14.2-30.4,31.7v15.1c-33.8,12.4-58.1,46.1-58.1,85.6v83.1c-16.9,2.1-30,17.2-30,35.4v1.5c0,19.7,15.3,35.7,34.1,35.7
		h45.1c4.1,18.9,20.4,33.1,39.7,33.1s35.6-14.2,39.7-33.1h45.1c18.8,0,34.1-16,34.1-35.7v-1.5C375,342.4,361.9,327.3,345,325.2z
		 M243.3,151.4v-10c0-7,5.4-12.7,12.1-12.7h1.2c6.7,0,12.1,5.7,12.1,12.7v10H243.3z M185.2,242.1c0-39.5,30.8-71.7,68.6-71.7h4.4
		c37.8,0,68.6,32.2,68.6,71.7v82.8H185.2V242.1z M256,411.8c-9.2,0-17.2-5.8-20.7-14.1h41.3C273.2,406,265.2,411.8,256,411.8z
		 M356.8,362c0,9.2-7.1,16.6-15.9,16.6H171.1c-8.8,0-15.9-7.5-15.9-16.6v-1.5c0-9.2,7.1-16.6,15.9-16.6h169.8
		c8.8,0,15.9,7.5,15.9,16.6V362z"/>
</g>
<text transform="matrix(0.7281 0 0 1 157.4155 278.252)" class="st1 st2 st3">w</text>
<text transform="matrix(0.7281 0 0 1 217.5918 278.252)" class="st1 st2 st3">w</text>
<text transform="matrix(0.7281 0 0 1 278.5938 278.252)" class="st1 st2 st3">w</text>
<text transform="matrix(1.1097 0 0 1 333.917 282.0459)" class="st4 st2 st5">.</text>
<path class="st6" d="M459.2,452.9H51.8c-12.4,0-22.5-10.1-22.5-22.5V96.6c0-12.4,10.1-22.5,22.5-22.5h407.5
	c12.4,0,22.5,10.1,22.5,22.5v333.8C481.7,442.8,471.6,452.9,459.2,452.9z"/>
<path class="st0" d="M88.2,143H72.7c-6.6,0-12-5.4-12-12v-14.8c0-6.6,5.4-12,12-12h15.5c6.6,0,12,5.4,12,12V131
	C100.2,137.6,94.8,143,88.2,143z"/>
<path class="st0" d="M134.9,143h-15.5c-6.6,0-12-5.4-12-12v-14.8c0-6.6,5.4-12,12-12h15.5c6.6,0,12,5.4,12,12V131
	C146.9,137.6,141.5,143,134.9,143z"/>
<path class="st0" d="M181.6,143h-15.5c-6.6,0-12-5.4-12-12v-14.8c0-6.6,5.4-12,12-12h15.5c6.6,0,12,5.4,12,12V131
	C193.6,137.6,188.2,143,181.6,143z"/>
</svg>
