<?xml version="1.0"?>
<svg xmlns="http://www.w3.org/2000/svg" height="512px" viewBox="-58 0 512 512" width="512px" class=""><g><path d="m346.609375 343.570312v-132.453124c0-62.980469-40.457031-116.679688-96.746094-136.496094v-24.042969c0-27.890625-22.691406-50.578125-50.578125-50.578125h-2.003906c-27.890625 0-50.578125 22.6875-50.578125 50.578125v24.046875c-56.289063 19.816406-96.75 73.511719-96.75 136.496094v132.449218c-28.105469 3.417969-49.953125 27.410157-49.953125 56.425782v2.359375c0 31.355469 25.507812 56.859375 56.859375 56.859375h75.199219c6.914062 30.1875 33.96875 52.785156 66.222656 52.785156s59.3125-22.597656 66.226562-52.785156h75.199219c31.351563 0 56.859375-25.507813 56.859375-56.859375v-2.359375c0-29.015625-21.847656-53.007813-49.957031-56.425782zm-169.570313-277.113281v-15.878906c0-11.164063 9.078126-20.242187 20.242188-20.242187h2.003906c11.160156 0 20.242188 9.078124 20.242188 20.242187v15.878906zm-96.75 144.660157c0-63.039063 51.285157-114.324219 114.328126-114.324219h7.332031c63.039062 0 114.328125 51.285156 114.328125 114.324219v132.019531h-235.988282zm117.992188 270.546874c-15.347656 0-28.578125-9.238281-34.421875-22.449218h68.847656c-5.84375 13.210937-19.074219 22.449218-34.425781 22.449218zm167.949219-79.308593c0 14.625-11.898438 26.523437-26.523438 26.523437h-282.847656c-14.625 0-26.523437-11.898437-26.523437-26.523437v-2.359375c0-14.628906 11.898437-26.527344 26.523437-26.527344h282.847656c14.625 0 26.523438 11.898438 26.523438 26.527344zm0 0" data-original="#000000" class="active-path" data-old_color="#FDFBFB" fill="#FFFFFF"/></g> </svg>
