<?xml version="1.0" encoding="utf-8"?>
<!-- Generator: Adobe Illustrator 21.0.0, SVG Export Plug-In . SVG Version: 6.00 Build 0)  -->
<svg version="1.1" id="Layer_1" xmlns="http://www.w3.org/2000/svg" xmlns:xlink="http://www.w3.org/1999/xlink" x="0px" y="0px"
	 viewBox="0 0 724.3 1007.5" style="enable-background:new 0 0 724.3 1007.5;" xml:space="preserve">
<style type="text/css">
	.st0{fill:#3D9EC4;}
</style>
<title>BuySell Calculators</title>
<g id="Layer_2">
	<g id="Layer_1-2">
		<path class="st0" d="M676.6,266.5H354.2l77.9,83h245.7v118H441L326.4,575.1v22.3c0,17.2-13.9,31.1-31.1,31.1h-25.8l-9.9,9.3
			l6.3,6.7h29.4c17.2,0,31.1,13.9,31.1,31.1l0,0v31.8c0,17.2-13.9,31.1-31.1,31.1h-75.8c-17.2,0-31.1-13.9-31.1-31.1l0,0V697
			l-46,10.7v252.1c0,26.3,21.4,47.7,47.7,47.7l0,0h486.6c26.3,0,47.7-21.4,47.7-47.7l0,0V314.2C724.4,287.9,703,266.5,676.6,266.5
			L676.6,266.5z M326.4,927.4c0,17.2-13.9,31.1-31.1,31.1h-75.8c-17.2,0-31.1-13.9-31.1-31.1l0,0v-31.8c0-17.2,13.9-31.1,31.1-31.1
			h75.8c17.2,0,31.1,13.9,31.1,31.1l0,0V927.4z M326.4,817.4c0,17.2-13.9,31.1-31.1,31.1h-75.8c-17.2,0-31.1-13.9-31.1-31.1l0,0
			v-31.8c0-17.2,13.9-31.1,31.1-31.1h75.8c17.2,0,31.1,13.9,31.1,31.1l0,0V817.4z M502.4,928.4c0,17.2-13.9,31.1-31.1,31.1h-75.8
			c-17.2,0-31.1-13.9-31.1-31.1l0,0v-31.8c0-17.2,13.9-31.1,31.1-31.1h75.8c17.2,0,31.1,13.9,31.1,31.1l0,0V928.4z M502.4,818.4
			c0,17.2-13.9,31.1-31.1,31.1h-75.8c-17.2,0-31.1-13.9-31.1-31.1l0,0v-31.8c0-17.2,13.9-31.1,31.1-31.1h75.8
			c17.2,0,31.1,13.9,31.1,31.1l0,0V818.4z M502.4,708.4c0,17.2-13.9,31.1-31.1,31.1h-75.8c-17.2,0-31.1-13.9-31.1-31.1l0,0v-31.8
			c0-17.2,13.9-31.1,31.1-31.1h75.8c17.2,0,31.1,13.9,31.1,31.1l0,0V708.4z M502.4,598.4c0,17.2-13.9,31.1-31.1,31.1h-75.8
			c-17.2,0-31.1-13.9-31.1-31.1l0,0v-31.8c0-17.2,13.9-31.1,31.1-31.1h75.8c17.2,0,31.1,13.9,31.1,31.1l0,0V598.4z M678.3,928.4
			c0,17.2-13.9,31.1-31.1,31.1h-75.8c-17.2,0-31.1-13.9-31.1-31.1l0,0v-31.8c0-17.2,13.9-31.1,31.1-31.1h75.8
			c17.2,0,31.1,13.9,31.1,31.1l0,0V928.4z M678.3,818.4c0,17.2-13.9,31.1-31.1,31.1h-75.8c-17.2,0-31.1-13.9-31.1-31.1l0,0v-31.8
			c0-17.2,13.9-31.1,31.1-31.1h75.8c17.2,0,31.1,13.9,31.1,31.1l0,0V818.4z M678.3,708.4c0,17.2-13.9,31.1-31.1,31.1h-75.8
			c-17.2,0-31.1-13.9-31.1-31.1l0,0v-31.8c0-17.2,13.9-31.1,31.1-31.1h75.8c17.2,0,31.1,13.9,31.1,31.1l0,0V708.4z M678.3,598.4
			c0,17.2-13.9,31.1-31.1,31.1h-75.8c-17.2,0-31.1-13.9-31.1-31.1l0,0v-31.8c0-17.2,13.9-31.1,31.1-31.1h75.8
			c17.2,0,31.1,13.9,31.1,31.1l0,0V598.4z"/>
		<path class="st0" d="M352.6,310.1l98.8,105.2L231.1,622l-15.3,14.4l14.4,15.3l2.8,3L43.9,698.8l55.9-185.9l2.8,3l14.4,15.3
			l15.3-14.4L352.6,310.1 M353.5,280.4L117.9,501.6L90.2,472L13.4,727.5l259.9-60.6l-27.8-29.6L481,416.2L353.5,280.4L353.5,280.4z"
			/>
		<polygon class="st0" points="142.4,445.9 142.4,464.9 188.9,421.3 188.9,402.5 		"/>
		<polygon class="st0" points="245.5,349.5 265.3,349.5 353.7,266.5 334.3,266.5 		"/>
		<path class="st0" d="M437.7,28.6l-56.3,185.8l-2.8-3l-14.3-15.3L349,210.4L128.2,416.7L29.7,311.3L250.4,105l15.3-14.3l-14.3-15.4
			l-2.8-3L437.7,28.6 M468.4,0l-260,60l27.7,29.6L0,310.3l127.2,136.1l236.1-220.7l27.7,29.6L468.4,0z"/>
	</g>
</g>
</svg>
