<?xml version="1.0" encoding="utf-8"?>
<!-- Generator: Adobe Illustrator 21.0.0, SVG Export Plug-In . SVG Version: 6.00 Build 0)  -->
<svg version="1.1" id="Capa_1" xmlns="http://www.w3.org/2000/svg" xmlns:xlink="http://www.w3.org/1999/xlink" x="0px" y="0px"
	 viewBox="0 0 512 512" style="enable-background:new 0 0 512 512;" xml:space="preserve">
<style type="text/css">
	.st0{fill:#4CAF50;}
</style>
<g>
	<g>
		<path class="st0" d="M497.4,198.3l-28.5,28.5l-79.5-79.5l28.6-28.6c9-9,22.5-10.1,30.1-2.5l51.9,51.9
			C507.5,175.8,506.4,189.3,497.4,198.3z M376.1,160.6l79.5,79.5L266,429.8c-0.9,0.9-3.3,3.3-6.7,4.1c-0.4,0.2-0.8,0.3-1.2,0.5
			l-99,31.5c-2.8,0.9-5.6,0.3-7.4-1.5c-1.8-1.8-2.4-4.6-1.5-7.4l31.5-99c0.1-0.4,0.3-0.8,0.5-1.2c0.9-3.4,3.3-5.8,4.2-6.7l35.6-35.6
			H101.7c-4.9,0-8.8-3.9-8.8-8.8s3.9-8.8,8.8-8.8h138L376.1,160.6z M241.5,423.7l-49-49l-13.1,41.2l20.9,20.9L241.5,423.7z
			 M373,192.2c-2.8-2.8-7.4-2.8-10.2,0L215,340c-2.8,2.8-2.8,7.4,0,10.2s7.4,2.8,10.2,0L373,202.4C375.8,199.6,375.8,195,373,192.2z
			 M364.1,473.7c0,5.3-4.3,9.6-9.6,9.6H180l-15.8,5c-3.2,1-6.4,1.5-9.7,1.5c-6.9,0-13.4-2.4-18.7-6.5H45.4c-5.3,0-9.6-4.3-9.6-9.6
			V71.1c0-5.3,4.3-9.6,9.6-9.6h35.9v15.2c0,5.3,4.3,9.6,9.6,9.6c5.3,0,9.6-4.3,9.6-9.6V61.5h55.1v15.2c0,5.3,4.3,9.6,9.6,9.6
			s9.6-4.3,9.6-9.6V61.5h47.9v15.2c0,5.3,4.3,9.6,9.6,9.6s9.6-4.3,9.6-9.6V61.5h52.7v15.2c0,5.3,4.3,9.6,9.6,9.6
			c5.3,0,9.6-4.3,9.6-9.6V61.5h40.7c5.3,0,9.6,4.3,9.6,9.6v66.4l10-10l18.7-18.7V71.1c0-21.1-17.2-38.3-38.3-38.3h-40.7V9.6
			c0-5.3-4.3-9.6-9.6-9.6c-5.3,0-9.6,4.3-9.6,9.6v23.2h-52.7V9.6c0-5.3-4.3-9.6-9.6-9.6s-9.6,4.3-9.6,9.6v23.2h-47.9V9.6
			c0-5.3-4.3-9.6-9.6-9.6s-9.6,4.3-9.6,9.6v23.2h-55.1V9.6c0-5.3-4.3-9.6-9.6-9.6c-5.3,0-9.6,4.3-9.6,9.6v23.2H45.4
			C24.2,32.8,7,50,7,71.1v402.6C7,494.8,24.2,512,45.4,512h309.1c21.1,0,38.3-17.2,38.3-38.3V334.1L364,362.9L364.1,473.7
			L364.1,473.7L364.1,473.7z M289.2,147.6H101.7c-4.9,0-8.8,3.9-8.8,8.8c0,4.9,3.9,8.8,8.8,8.8h187.5c4.9,0,8.8-3.9,8.8-8.8
			S294.1,147.6,289.2,147.6z M289.2,218.5H101.7c-4.9,0-8.8,3.9-8.8,8.8c0,4.9,3.9,8.8,8.8,8.8h187.5c4.9,0,8.8-3.9,8.8-8.8
			S294.1,218.5,289.2,218.5z"/>
	</g>
</g>
</svg>
