<svg id="Layer_1" data-name="Layer 1" xmlns="http://www.w3.org/2000/svg" viewBox="0 0 75.54 59.69"><defs><style>.cls-1{fill:#fff;}</style></defs><title>ico_bullish_no_ring</title><path class="cls-1" d="M74,11.33c-2.48-4.62-6.55-7.15-11.51-8.38a11.81,11.81,0,0,0-2.66,0c.27.3.45.46.59.66a48.28,48.28,0,0,1,3.35,4.69,5.32,5.32,0,0,1-1.94,6.89l-.23-.44a41,41,0,0,0-6.15-9.48C50.7-.18,44.71-1.4,38.18,1.68a1.33,1.33,0,0,1-1-.06C33-.32,28.81-.71,24.61,1.51a19.42,19.42,0,0,0-6.93,6.71c-1.48,2.22-2.79,4.56-4.17,6.85A5.84,5.84,0,0,1,11.13,10,8.6,8.6,0,0,1,13,6c.78-1,1.65-2,2.66-3.26A24.42,24.42,0,0,0,12.63,3,17.35,17.35,0,0,0,3.16,8.76a12,12,0,0,0-3,9.75,11,11,0,0,0,4.61,7.92C6,27.29,7.28,28,8.54,28.8c-.35,1.49-.81,3-1,4.52-.28,1.85-.18,3.71,1.22,5.15a7.21,7.21,0,0,0,8.07,2c.81-.28,1.58-.7,2.45-1.1,1.74,4.36,4.47,8.26,5.49,12.94A6.56,6.56,0,0,0,29,57.27c1,.38,2,.82,3,1.24a13.56,13.56,0,0,0,8.13.92,46.78,46.78,0,0,0,6.34-2.14,7,7,0,0,0,4.39-5,30.31,30.31,0,0,1,1-3.42c1-2.25,2.11-4.45,3.18-6.66.45-.94.91-1.87,1.39-2.84l.69.39a7.81,7.81,0,0,0,5.25,1.13c3.73-.67,6.5-3.22,5.7-7.68-.27-1.5-.69-3-1-4.38,1.29-.8,2.66-1.55,3.93-2.45a11.4,11.4,0,0,0,4.63-8.91A11.3,11.3,0,0,0,74,11.33Z"/></svg>