<svg id="Layer_1" data-name="Layer 1" xmlns="http://www.w3.org/2000/svg" viewBox="0 0 62.76 58.87"><defs><style>.cls-1{fill:#fff;}</style></defs><title>ico_bearish_no_ring</title><path class="cls-1" d="M59.56,17.72A15.26,15.26,0,0,0,62.72,7.53a7.29,7.29,0,0,0-2.36-5c-2-1.77-4.26-1.82-6.62-.77a12.09,12.09,0,0,0-4.2,3.19c-1.28-.76-2.49-1.53-3.74-2.22C41.78.45,37.55-.71,33,.47a6.25,6.25,0,0,1-3.14,0A19.37,19.37,0,0,0,26.41,0a15.93,15.93,0,0,0-8.14,2c-1.71.86-3.36,1.87-5.06,2.83A12,12,0,0,0,9,1.72c-3-1.35-5.87-.64-7.58,1.87S-.23,8.85.38,11.67a18.68,18.68,0,0,0,2.94,6.24,1.28,1.28,0,0,1,.25.85,80.77,80.77,0,0,0-1.77,12A19.5,19.5,0,0,0,2.15,37a22.82,22.82,0,0,0,5.69,9.84A19.15,19.15,0,0,0,17,52.41a19.2,19.2,0,0,1,7.07,3.24,15.82,15.82,0,0,0,5.13,2.74,5.88,5.88,0,0,0,2.47.46A16,16,0,0,0,38.28,56a26.3,26.3,0,0,1,4.37-2.46c1.78-.77,3.7-1.2,5.5-1.94a21.09,21.09,0,0,0,10.16-9.24A16.6,16.6,0,0,0,61,34.29a63.58,63.58,0,0,0-1.71-15.07A1.71,1.71,0,0,1,59.56,17.72Z"/></svg>