<svg xmlns="http://www.w3.org/2000/svg" viewBox="0 0 2080.27 2072.65"><defs><style>.cls-1{fill:#fff;}.cls-2{fill:#04b7a1;}</style></defs><title>Vyndue logo</title><g id="Layer_4" data-name="Layer 4"><path class="cls-1" d="M1508.16,285.81,476.66,470.47A245.32,245.32,0,0,0,274.57,712v660.9a238.07,238.07,0,0,0,197.57,234.6l39.57,6.84c-18.09,35.61-36.78,62.84-78.36,94.16,90.54,40.82,207.31,29.06,287.39-58.07l792.15,136.78c152.95,26.41,292.81-91.36,292.81-246.58V534.8C1805.7,377.26,1663.24,258,1508.16,285.81Z"/><path class="cls-2" d="M1556,1753.34a215.67,215.67,0,0,1-36.71-3.17L707,1609.91,693.11,1625c-40.61,44.18-95.55,68.52-154.69,68.52a216.39,216.39,0,0,1-31.63-2.34c15.79-18.81,27.34-38.14,38.38-59.87l23-45.34-89.68-15.48a200.53,200.53,0,0,1-166.42-197.62V712A207.59,207.59,0,0,1,483.28,507.41l1031.5-184.66a219.44,219.44,0,0,1,38.49-3.44c118.49,0,214.89,96.67,214.89,215.49V1540.58a211,211,0,0,1-63,151.14c-40.2,39.74-93.17,61.62-149.15,61.62Z"/><rect class="cls-1" x="611.33" y="887.53" width="135.87" height="443.88" rx="54.3"/><rect class="cls-1" x="777.57" y="961.86" width="135.87" height="255.77" rx="54.3"/><rect class="cls-1" x="1094.07" y="849.17" width="135.87" height="416" rx="54.3"/><circle class="cls-1" cx="1301.57" cy="788.93" r="71.63"/><circle class="cls-1" cx="996.33" cy="1306.23" r="71.63"/></g></svg>