<?xml version="1.0"?>
<svg xmlns="http://www.w3.org/2000/svg" height="512px" viewBox="0 -61 512 512" width="512px" class=""><g><path d="m512 45c0-24.8125-20.1875-45-45-45h-422c-24.8125 0-45 20.1875-45 45v300c0 12.132812 4.835938 23.152344 12.671875 31.257812.167969.1875.328125.378907.507813.5625 7.394531 7.394532 16.910156 11.894532 27.175781 12.941407.015625 0 .035156.003906.054687.007812.65625.066407 1.3125.113281 1.976563.148438.105469.007812.210937.019531.320312.023437.761719.039063 1.523438.058594 2.292969.058594h422c.769531 0 1.53125-.019531 2.292969-.058594.105469-.003906.214843-.015625.320312-.023437.660157-.035157 1.320313-.082031 1.976563-.148438.019531-.003906.035156-.007812.054687-.007812 10.265625-1.046875 19.78125-5.546875 27.175781-12.941407.179688-.183593.339844-.375.507813-.5625 7.835937-8.105468 12.671875-19.125 12.671875-31.257812zm-467-15h422c8.269531 0 15 6.730469 15 15v293.785156l-124.394531-124.390625c-5.855469-5.859375-15.355469-5.859375-21.210938 0l-80.394531 80.390625-80.394531-80.390625c-5.855469-5.859375-15.355469-5.859375-21.210938 0l-124.394531 124.390625v-293.785156c0-8.269531 6.730469-15 15-15zm6.214844 330 113.785156-113.785156 80.394531 80.390625c5.855469 5.859375 15.355469 5.859375 21.210938 0l80.394531-80.390625 113.785156 113.785156zm0 0" data-original="#000000" class="active-path" data-old_color="#000000" fill="#FFC107"/><path d="m256 190c33.085938 0 60-26.914062 60-60s-26.914062-60-60-60-60 26.914062-60 60 26.914062 60 60 60zm0-90c16.542969 0 30 13.457031 30 30s-13.457031 30-30 30-30-13.457031-30-30 13.457031-30 30-30zm0 0" data-original="#000000" class="active-path" data-old_color="#000000" fill="#FFC107"/></g> </svg>
