<?xml version="1.0" encoding="utf-8"?>
<!-- Generator: Adobe Illustrator 21.0.0, SVG Export Plug-In . SVG Version: 6.00 Build 0)  -->
<svg version="1.1" id="Layer_1" xmlns="http://www.w3.org/2000/svg" xmlns:xlink="http://www.w3.org/1999/xlink" x="0px" y="0px"
	 viewBox="0 0 512 512" style="enable-background:new 0 0 512 512;" xml:space="preserve">
<style type="text/css">
	.st0{fill:#9C27B0;}
</style>
<g>
	<path class="st0" d="M165,211h-15v-15c0-8.3-6.7-15-15-15s-15,6.7-15,15v15h-15c-8.3,0-15,6.7-15,15s6.7,15,15,15h15v15
		c0,8.3,6.7,15,15,15s15-6.7,15-15v-15h15c8.3,0,15-6.7,15-15S173.3,211,165,211z"/>
	<path class="st0" d="M392,191c0,8.3-6.7,15-15,15s-15-6.7-15-15s6.7-15,15-15S392,182.7,392,191z"/>
	<path class="st0" d="M392,261c0,8.3-6.7,15-15,15s-15-6.7-15-15s6.7-15,15-15S392,252.7,392,261z"/>
	<path class="st0" d="M357,226c0,8.3-6.7,15-15,15s-15-6.7-15-15s6.7-15,15-15S357,217.7,357,226z"/>
	<path class="st0" d="M427,226c0,8.3-6.7,15-15,15s-15-6.7-15-15s6.7-15,15-15S427,217.7,427,226z"/>
	<path class="st0" d="M271,211h-30c-8.3,0-15,6.7-15,15s6.7,15,15,15h30c8.3,0,15-6.7,15-15S279.3,211,271,211z"/>
	<path class="st0" d="M511.9,384.6l-15.5-170.3c-2.8-29.6-16.5-56.9-38.5-77c-18.4-16.8-41.4-27.4-65.9-30.4V96c0-8.3-6.7-15-15-15
		s-15,6.7-15,15v10.9c-26.3,3.3-50.8,15.3-69.7,34.1H271V66c0-8.3-6.7-15-15-15s-15,6.7-15,15v75h-21.3
		c-18.9-18.8-43.4-30.7-69.7-34.1V96c0-8.3-6.7-15-15-15s-15,6.7-15,15v10.9c-24.5,3.1-47.5,13.6-65.9,30.4
		c-22,20.1-35.7,47.4-38.5,77.1L0.1,384.6c0,0.5-0.1,0.9-0.1,1.4c0,41.4,33.6,75,75,75c23.8,0,46.4-11.5,60.5-30.7
		c0,0,0-0.1,0.1-0.1l61.2-84.8c2.3,0.4,4.8,0.6,7.2,0.6c21.4,0,39.3-15,43.9-35h16.3c4.6,20,22.5,35,43.9,35c2.5,0,4.9-0.2,7.2-0.6
		l61.2,84.8c0,0,0,0.1,0.1,0.1c14.1,19.2,36.7,30.7,60.5,30.7c41.4,0,75-33.6,75-75C512,385.5,512,385.1,511.9,384.6z M204,316
		c-8.3,0-15-6.7-15-15s6.7-15,15-15s15,6.7,15,15S212.3,316,204,316z M293,301c0-8.3,6.7-15,15-15s15,6.7,15,15s-6.7,15-15,15
		S293,309.3,293,301z M437,431c-14.5,0-27.7-6.7-36.3-18.4l-59.1-81.8c7-7.9,11.3-18.4,11.3-29.8c0-24.8-20.2-45-45-45
		c-17.6,0-32.9,10.2-40.3,25h-23.4c-7.4-14.8-22.7-25-40.3-25c-24.8,0-45,20.2-45,45c0,11.4,4.3,21.9,11.3,29.8l-59.1,81.8
		C102.7,424.3,89.5,431,75,431c-24.6,0-44.7-19.8-45-44.4l15.4-169.4c2.1-22.1,12.4-42.6,28.9-57.7C90.9,144.4,112.5,136,135,136
		c25.6,0,50,10.9,67.1,30c2.8,3.2,6.9,5,11.2,5h85.5c4.3,0,8.3-1.8,11.2-5c17.1-19.1,41.5-30,67.1-30c22.5,0,44.1,8.4,60.7,23.5
		c16.5,15.1,26.8,35.6,28.9,57.6L482,386.6C481.7,411.2,461.6,431,437,431z"/>
</g>
</svg>
