<svg width="31" height="31" viewBox="0 0 31 31" fill="none" xmlns="http://www.w3.org/2000/svg">
<path d="M15.5 26.66C11.625 26.66 8.1995 24.676 6.2 21.7C6.2465 18.6 12.4 16.895 15.5 16.895C18.6 16.895 24.7535 18.6 24.8 21.7C23.7753 23.2258 22.3911 24.4763 20.7693 25.3412C19.1476 26.2062 17.338 26.6591 15.5 26.66ZM15.5 4.65C16.7333 4.65 17.916 5.13991 18.788 6.01195C19.6601 6.884 20.15 8.06674 20.15 9.3C20.15 10.5333 19.6601 11.716 18.788 12.588C17.916 13.4601 16.7333 13.95 15.5 13.95C14.2667 13.95 13.084 13.4601 12.212 12.588C11.3399 11.716 10.85 10.5333 10.85 9.3C10.85 8.06674 11.3399 6.884 12.212 6.01195C13.084 5.13991 14.2667 4.65 15.5 4.65ZM15.5 0C13.4645 0 11.449 0.400919 9.56841 1.17987C7.68786 1.95882 5.97915 3.10054 4.53984 4.53984C1.63303 7.44666 0 11.3891 0 15.5C0 19.6109 1.63303 23.5533 4.53984 26.4602C5.97915 27.8995 7.68786 29.0412 9.56841 29.8201C11.449 30.5991 13.4645 31 15.5 31C19.6109 31 23.5533 29.367 26.4602 26.4602C29.367 23.5533 31 19.6109 31 15.5C31 6.9285 24.025 0 15.5 0Z" fill="#B2B7BB"/>
</svg>
