<?xml version="1.0" encoding="utf-8"?>
<!-- Generator: Adobe Illustrator 21.0.0, SVG Export Plug-In . SVG Version: 6.00 Build 0)  -->
<svg version="1.1" id="Layer_1" xmlns="http://www.w3.org/2000/svg" xmlns:xlink="http://www.w3.org/1999/xlink" x="0px" y="0px"
	 viewBox="0 0 639 889" style="enable-background:new 0 0 639 889;" xml:space="preserve">
<style type="text/css">
	.st0{fill:none;stroke:#9C27B0;stroke-width:41;stroke-miterlimit:10;}
	.st1{fill:none;stroke:#9C27B0;stroke-width:20;stroke-miterlimit:10;}
</style>
<path class="st0" d="M320.6,268c50.4,0,98.4,11,141.7,30.7V164.5c0-77.9-63.8-141.7-141.7-141.7l0,0c-77.9,0-141.7,63.8-141.7,141.7
	v134.2C222.2,279,270.2,268,320.6,268L320.6,268z"/>
<circle class="st0" cx="320.6" cy="569" r="297.8"/>
<circle class="st1" cx="323" cy="498.4" r="65.1"/>
<path class="st1" d="M294.7,557v75.3c0,15.6,12.7,28.3,28.3,28.3l0,0c15.6,0,28.3-12.7,28.3-28.3V557c-8.6,4.1-18.2,6.5-28.3,6.5
	C312.8,563.4,303.2,561.1,294.7,557z"/>
</svg>
