<svg width="25" height="20" viewBox="0 0 25 20" fill="none" xmlns="http://www.w3.org/2000/svg">
<path d="M23.6607 3.97042L20.0893 6.02679V1.78571C20.0893 0.800781 19.2885 0 18.3036 0H1.78571C0.800781 0 0 0.800781 0 1.78571V17.8571C0 18.8421 0.800781 19.6429 1.78571 19.6429H18.3036C19.2885 19.6429 20.0893 18.8421 20.0893 17.8571V13.6161L23.6607 15.6724C24.255 16.0156 25 15.5859 25 14.9023V4.7433C25 4.05692 24.255 3.62723 23.6607 3.97042ZM18.0804 17.6339H2.00893V2.00893H18.0804V17.6339ZM22.9911 12.9743L20.0893 11.3058V8.33984L22.9911 6.66853V12.9743ZM4.01786 5.58036H7.14286C7.26562 5.58036 7.36607 5.47991 7.36607 5.35714V4.01786C7.36607 3.89509 7.26562 3.79464 7.14286 3.79464H4.01786C3.89509 3.79464 3.79464 3.89509 3.79464 4.01786V5.35714C3.79464 5.47991 3.89509 5.58036 4.01786 5.58036Z" fill="#03DAC5"/>
</svg>
