<?xml version="1.0" encoding="utf-8"?>
<!-- Generator: Adobe Illustrator 21.0.0, SVG Export Plug-In . SVG Version: 6.00 Build 0)  -->
<svg version="1.1" id="Capa_1" xmlns="http://www.w3.org/2000/svg" xmlns:xlink="http://www.w3.org/1999/xlink" x="0px" y="0px"
	 viewBox="0 0 512 512" style="enable-background:new 0 0 512 512;" xml:space="preserve">
<style type="text/css">
	.st0{fill:#E91E63;}
	.st1{fill:#E62465;}
	.st2{fill:#E81F64;stroke:#E81F64;stroke-width:7;stroke-miterlimit:10;}
</style>
<path class="st0" d="M307.6,511.1c-9.3,0-18.6-0.7-27.8-2c-48.7-6.9-93.3-31.3-125.6-68.7c-16.9-19.7-29.8-42.1-38.3-66.6
	c-1.3-3.7-2.1-8.7-3.1-14.6c-0.9-5.2-2.5-14.9-3.9-17.3c-0.6-0.5-3.4-1.2-5.1-1.6c-4.4-1-10.5-2.5-16.3-6.9
	c-11.5-8.9-16.7-22.7-13.9-36.9c3-14.8,13.9-26.3,28.5-30.2c5.1-1.4,10-2.1,14.7-2.9c15.8-2.5,23.7-3.8,27.1-20.6
	c2.4-11.7-2.4-18.4-11.2-29.3c-6.4-8-13.7-17.1-16.1-29.8c-4.9-26,10.2-52.6,35-61.9c6.8-2.5,13-3.8,18.9-3.8
	c16.4,0,26.5,9.3,36.2,18.4c4.4,4.1,8.9,8.2,14.1,11.6c4.8,3.1,10.3,4.8,15.9,4.8c12.5,0,23.2-7.5,27.4-19.1
	c1.8-5.1,1.9-11.1,1.9-17.5c0.1-14.4,0.2-34.2,26.7-41.4c3.2-0.9,6.5-1.3,9.9-1.3l7.7,0.7l0,0l5.4,1.7c5.8,2.1,11.1,5.6,15.4,10.2
	c5.5,5.8,9,12.9,10.3,20.4c53.3,8.8,101.5,39.5,133.3,85.1c33.3,47.9,45,107.1,31.9,162.6C485.5,445.1,401.7,511.1,307.6,511.1z
	 M170.6,145.4c-2.6,0-5.6,0.7-9.3,2c-6,2.2-11.1,6.7-14.4,12.5c-3.3,5.8-4.5,12.5-3.3,18.7c1.1,6,5.5,11.4,10.5,17.7
	c9.2,11.5,21.8,27.1,16.7,52c-7.3,35.3-32.7,39.4-49.6,42.1H121c-4,0.6-8.1,1.3-11.9,2.3c-4.4,1.1-7.8,4.7-8.7,9.1
	c-0.4,1.8-0.3,3.6,0.3,5.3c0.6,1.7,1.7,3.2,3.4,4.5c1,0.8,2.9,1.3,5.8,2c5.6,1.3,14.2,3.3,20.5,11.5c5.2,6.7,7.1,16.1,9.3,29.6
	c0.6,3.5,1.4,8.7,1.9,10.1c10.8,31.3,30.1,58.9,55.9,79.7c16.5,13.3,35.1,23.5,55.2,30.2c17.7,5.9,36.1,8.9,54.7,8.9
	c19.8,0,39.4-3.4,58.1-10c18.5-6.5,35.8-16,51.3-28.1s28.9-26.6,39.7-43c18-27.5,27.7-59.4,28-92.3c0.1-12.3-1.1-24.6-3.6-36.6
	c-2.5-11.9-6.2-23.6-11-34.8c-9.7-22.4-23.6-42.4-41.3-59.3c-8.7-8.4-18.4-15.9-28.7-22.3c-21-13.2-45.1-21.7-69.6-24.8l-16.8-2.1
	l1-16.9c0.2-3.2-1-6.2-3.3-8.7c-2.4-2.5-5.5-4-8.7-4h-0.6c-0.7,0-1.5,0.2-2.2,0.4c-1.5,0.4-4.9,1.5-5.5,2.8c-1,2.3-1,7.6-1.1,12.4
	c0,7.6-0.1,17.1-3.5,26.5c-8,22.3-29.4,37.2-53.1,37.2c-11,0-21.7-3.2-30.9-9.2c-7.1-4.6-12.7-9.8-17.7-14.4
	c-3.9-3.6-7.5-6.9-10.8-9C175,146,173.1,145.4,170.6,145.4z"/>
<path class="st1" d="M302.8,91.6c5.7,0,11.3,2.5,15.4,6.9s6.2,9.9,5.8,15.6l-0.5,8.3l8.2,1c26.1,3.3,51.1,12.2,73.4,26.1
	c10.8,6.8,20.9,14.6,30.2,23.5c18.5,17.7,33.2,38.9,43.3,62.3c5.1,11.8,9,24,11.6,36.6c2.6,12.7,3.9,25.6,3.8,38.6
	c-0.3,34.6-10.6,68.3-29.6,97.2c-11.3,17.3-25.4,32.6-41.7,45.2c-16.2,12.7-34.4,22.7-53.9,29.5c-19.7,7-40.3,10.5-61.2,10.5
	c-19.6,0-39.1-3.2-57.6-9.4c-21.1-7.1-40.7-17.8-58.1-31.8c-27.1-21.9-47.5-50.9-58.8-83.9c-0.8-2.2-1.6-7-2.3-11.6
	c-2-12.1-3.6-20.4-7.5-25.4c-4.3-5.6-10.4-7-15.3-8.1c-3.6-0.8-6.7-1.6-9.4-3.6c-3.1-2.4-5.3-5.4-6.5-8.8c-1.1-3.3-1.3-6.8-0.6-10.1
	c1.6-7.9,7.6-14.2,15.4-16.3c4.2-1.1,8.7-1.8,12.9-2.5c16-2.6,36-5.8,42-34.8c4.2-20.6-5.9-33.2-14.8-44.3
	c-5.6-7-10.9-13.5-12.4-21.8c-1.6-8.4,0-17.3,4.4-25s11.2-13.6,19.2-16.6c4.7-1.8,8.8-2.6,12.5-2.6c4.2,0,7.8,1.1,11.8,3.5
	c4,2.5,8,6.2,12.2,10c4.7,4.4,10,9.3,16.5,13.5c7.7,5,16.7,7.7,25.8,7.7c19.9,0,37.7-12.5,44.4-31.1c2.9-8,2.9-16.2,3-23.5
	c0-6.2,0.1-12,1.8-16c1.1-2.6,3.5-5.8,11.5-8C299.3,91.8,301,91.6,302.8,91.6 M302.8,82.8c-2.5,0-5,0.3-7.5,1
	c-29.4,8-15.2,33.1-22.3,53c-5.7,15.9-20.6,25.3-36.1,25.3c-7.5,0-14.8-2.2-21-6.3c-17.2-11.2-25.9-28.5-45.3-28.5
	c-4.5,0-9.7,1-15.6,3.2c-20.6,7.7-33.2,29.9-29.2,51.5c4.6,24.7,33.1,34.2,27.3,62.7c-6.1,29.5-27.2,24.9-48.5,30.6
	c-22.9,6-30.8,35.7-11.4,50.7c8.5,6.6,18.4,4.2,23.1,10.2c4.5,5.8,5.8,26.9,8.4,34.5c8,23.3,20.4,44.9,36.5,63.6
	c30.5,35.4,73.6,59,119.9,65.6c8.8,1.2,17.6,1.9,26.5,1.9c88.4,0,169.5-61.8,190.2-149.8c26-110.7-52-223.3-165-237.4
	C333.9,97.3,319.4,82.8,302.8,82.8L302.8,82.8z"/>
<path class="st2" d="M224.1,83c10.4,0,18.7,8.4,18.7,18.7s-8.4,18.7-18.7,18.7s-18.7-8.4-18.7-18.7l0,0
	C205.3,91.3,213.7,83,224.1,83 M224.1,73.4c-15.6,0-28.3,12.7-28.3,28.3s12.7,28.3,28.3,28.3s28.3-12.7,28.3-28.3
	C252.4,86.1,239.7,73.4,224.1,73.4L224.1,73.4L224.1,73.4z"/>
<path class="st2" d="M274.3,19c5.2,0,9.5,4.3,9.5,9.5s-4.3,9.5-9.5,9.5s-9.5-4.3-9.5-9.5C264.9,23.2,269.1,19,274.3,19 M274.3,9.4
	c-10.5,0-19.1,8.5-19.1,19.1s8.5,19.1,19.1,19.1s19.1-8.5,19.1-19.1S284.9,9.4,274.3,9.4L274.3,9.4z"/>
<path class="st2" d="M91.1,207.6c9.1,0,16.5,7.4,16.5,16.5s-7.4,16.5-16.5,16.5s-16.5-7.4-16.5-16.5l0,0
	C74.7,215,82,207.6,91.1,207.6 M91.1,198c-14.4,0-26,11.7-26,26c0,14.4,11.7,26,26,26c14.4,0,26-11.7,26-26l0,0
	C117.2,209.7,105.5,198,91.1,198L91.1,198L91.1,198z"/>
<path class="st2" d="M25.6,176.9c5,0,9.1,4.1,9.1,9.1s-4.1,9.1-9.1,9.1s-9.1-4.1-9.1-9.1C16.6,180.9,20.6,176.9,25.6,176.9
	 M25.6,167.3c-10.3,0-18.6,8.3-18.6,18.6s8.3,18.6,18.6,18.6s18.6-8.3,18.6-18.6l0,0C44.2,175.6,35.9,167.3,25.6,167.3z"/>
<path class="st2" d="M100.8,85.6c5,0,9.1,4.1,9.1,9.1s-4.1,9.1-9.1,9.1s-9.1-4.1-9.1-9.1C91.8,89.7,95.8,85.6,100.8,85.6
	 M100.8,76.1c-10.3,0-18.6,8.3-18.6,18.6s8.3,18.6,18.6,18.6s18.6-8.3,18.6-18.6l0,0C119.5,84.4,111.1,76.1,100.8,76.1z"/>
<path class="st2" d="M124.3,14.1c-5.2,0-9.4,4.2-9.4,9.4s4.2,9.4,9.4,9.4c5.2,0,9.4-4.2,9.4-9.4S129.5,14.1,124.3,14.1z"/>
<path class="st2" d="M197.1,10.1c-5.2,0-9.4,4.2-9.4,9.4s4.2,9.4,9.4,9.4s9.4-4.2,9.4-9.4S202.3,10.1,197.1,10.1L197.1,10.1z"/>
<path class="st2" d="M62.8,21.1c-5.2,0-9.4,4.2-9.4,9.4s4.2,9.4,9.4,9.4s9.4-4.2,9.4-9.4S68,21.1,62.8,21.1z"/>
<path class="st2" d="M32,104.1c1.4,0,2.6,1.1,2.6,2.5s-1.1,2.6-2.5,2.6c-1.4,0-2.6-1.1-2.6-2.5l0,0C29.4,105.3,30.6,104.1,32,104.1
	 M32,94.6c-6.7,0-12.1,5.4-12.1,12.1s5.4,12.1,12.1,12.1s12.1-5.4,12.1-12.1l0,0C44.1,100,38.7,94.6,32,94.6z"/>
<path class="st2" d="M18.7,16.8c1.8,0,3.2,1.4,3.2,3.2s-1.4,3.2-3.2,3.2c-1.8,0-3.2-1.4-3.2-3.2l0,0C15.4,18.3,16.9,16.8,18.7,16.8
	 M18.7,7.2C11.6,7.2,5.9,13,5.9,20c0,7.1,5.7,12.8,12.8,12.8S31.5,27.1,31.5,20l0,0C31.5,13,25.7,7.3,18.7,7.2z"/>
<path class="st0" d="M436.8,209L303.1,439.7L169.5,209l0,0c49.8,0,94.7,30.2,113.5,76.3l23,56.4l26.6-63.5
	c17.5-41.9,58.5-69.2,103.9-69.2L436.8,209L436.8,209z"/>
</svg>
