<svg width="17" height="17" viewBox="0 0 17 17" fill="none" xmlns="http://www.w3.org/2000/svg">
<path d="M15.92 0H0.70942C0.31764 0 0 0.41036 0 0.91653V12.7591C0 13.2653 0.31764 13.6756 0.70942 13.6756H1.77019L4.50656 16.5918L7.22321 13.5965L15.9205 13.6756C16.3123 13.6756 16.6299 13.2652 16.6299 12.7591V0.91653C16.6294 0.41036 16.3118 0 15.92 0ZM16.0798 12.7591C16.0798 12.8729 16.0081 12.9655 15.92 12.9655H6.85211L4.52473 15.6397L2.10068 13.0068L0.70942 12.9654C0.621333 12.9654 0.549646 12.8729 0.549646 12.759V0.91653C0.549646 0.802685 0.621333 0.710056 0.70942 0.710056H15.92C16.0081 0.710056 16.0798 0.802685 16.0798 0.91653V12.7591Z" fill="#03DAC5"/>
<path opacity="0.4" d="M4.50678 15.9188L1.77304 13.1782L0.542236 13.061L0.550141 11.6972L1.58756 10.623L4.70667 13.5543L11.682 6.20193L14.6464 8.90033L16.0799 7.48785L16.0804 7.75075L16.1925 13.2126H12.6393L6.91693 13.2333L4.50678 15.9188Z" fill="#03DAC5"/>
<path d="M0.549561 8.7299L1.59048 7.68899L4.71027 10.6208L11.6866 3.26743L14.6487 5.96377L16.0797 4.55475V6.58202L14.6877 7.95261L11.7606 5.2882L4.76869 12.658L1.62169 9.70058L0.549561 10.7728V8.7299Z" fill="#03DAC5"/>
</svg>
